<svg xmlns="http://www.w3.org/2000/svg" width="168" height="38.3" style="overflow:visible;enable-background:new 0 0 168 38.3" xml:space="preserve"><path d="M33.9 5.9c0-.3.1-.7.2-1.1.1-.9.2-1.6.2-2 .4.2 1 .4 1.9.6.5.2 1.5.6 2.8 1.1-.1 1.4-.3 2.8-.6 4.4-.7 3-2.2 4.5-4.4 4.4h-4c-2.7-.1-4.1-1.9-4.1-5.3V7h-5c0 4-2.4 6.6-7.2 8-.1-.1-.2-.3-.3-.6-.6-.9-1-1.7-1.2-2.2H9.8v5l3.3-.6c-.1 2.5-.1 4.5 0 5.9-1 .1-2.1.3-3.3.6v9.2c.1 3-1.2 4.6-4.1 4.8-1.1.1-2.7.2-4.5.2-.1-.7-.3-1.8-.5-3.3-.3-1.1-.5-1.9-.5-2.3.8.1 1.7.1 2.5 0 .9.1 1.4-.4 1.2-1.6v-5.9c-1.1.3-2.3.6-3.6.8L0 18.6h.5c.9-.1 2.1-.3 3.6-.6v-5.8H.6V6.4H4V.3h5.8v6.1h3.4v3c1.9-.8 2.8-2.4 2.7-4.8V1.4h15.3v4.7c-.1 1 .2 1.5.8 1.4h.8c.6.1 1-.4 1.1-1.6zm2.2 9.6v5.8c-1.9 3.5-3.9 6.3-6.1 8.3 2.3 1 5.1 1.9 8.3 2.5-.8 1-1.9 2.8-3.3 5.3-4.1-1-7.5-2.4-10.3-4.2-3.6 2-7.2 3.4-10.8 4.4-.2-.4-.5-1-.9-1.7s-1.1-1.9-2.2-3.4c3.3-.7 6.3-1.7 8.9-2.8-1.8-1.8-3.4-3.8-5-6.1l3.6-2.5h-3.9v-5.5h21.7zM20 20.9c1.4 2.1 3 3.9 4.8 5.5 1.9-1.7 3.4-3.5 4.5-5.5H20zm23.8 4.3h37.5v4.5h-9.2c3.3 1 6.5 2.1 9.4 3.1l-2.7 4.5c-3.5-1.5-7.1-2.9-10.6-4.2l2.3-3.4h-3.8v1.9c.2 3.9-1.6 5.7-5.3 5.6-1.2.1-2.9.2-4.8.2-.1-.3-.3-.8-.5-1.6-.2-1.1-.4-2-.6-2.5-3 1.6-6.1 3-9.2 4.4-.4-.6-.9-1.6-1.6-2.8-.5-.8-.9-1.5-1.2-1.9 2.4-.6 5.2-1.7 8.3-3.3h-8v-4.5zm.8-19.3V1.1h36.1v4.8H70.1v1.7h9.5v10.6h-34V7.7H55V5.9H44.6zm1.9 13.6h32.2v4.4H46.5v-4.4zm4.5-5.3h3.9v-2.3H51v2.3zm7.4 18.3c1.6 0 2.3-.7 2.2-2.2v-.6h-5.8l2.2 2.8h1.4zm2.2-26.6v1.7h3.9V5.9h-3.9zm0 6v2.3h3.9v-2.3h-3.9zm13.5 0H70v2.3h4.1v-2.3zM91.2 0l5.6.9-.3 1.2h13.8v5.3h-5.8L102 13l3.1-.2c-.3-.9-.7-2-1.2-3.1l3.9-1.4c1.4 2.8 2.4 5.4 3.3 7.7V5.2h4.8v23h-4.8V17.3l-3.8 1.4c0-.2-.1-.5-.2-.8-.1-.4-.2-.7-.3-.8-1 0-2.8.1-5.3.3-2.4.1-4.2.2-5.3.3l-1.4-4.4h2c.4-.8 1-2.3 1.7-4.4.3-.7.5-1.2.6-1.6h-2.7v-5c-.4 2.2-1 4.4-1.9 6.6v28.6h-5.3V21.4c-.2.3-.5.9-.9 1.7-.5.7-.9 1.3-1.1 1.7-.1-.9-.3-2.4-.5-4.5-.3-2.2-.5-3.7-.6-4.5 2-3.9 3.7-9.1 5.1-15.8zm9.1 18.1h5.5v3.3h4.2v5.3h-4.2v3.4l4.7-.5v2.7c-.1 1-.2 1.9-.2 2.5-.6.1-1.6.2-3 .3-4.3.3-8.1.7-11.4 1.1l-.6-5.3 5-.5v-3.8h-4.4v-5.3h4.4v-3.2zM117.6.5h5.5V31c.2 4-1.4 5.9-4.8 5.9-1.2.1-3.2.2-5.8.2-.2-2-.5-3.8-.9-5.5h4.2c1.4.1 2-.6 1.9-2V.5zM135 33.1l-4.5-1.2c.4-.4.9-1 1.6-1.7.5-.6.9-1.1 1.2-1.4H130v-3.9h6.4l.8-1.1h-5.8v-7.5h7V15h-7v-4.2h-1.6V6.7h1.6V2.5h7V.2h5.2v2.3h7v4.2h1.6v4.1c1.4-3.1 2.3-6.7 3-10.8l5.6.8c-.5 2.2-1.1 4.2-1.7 6.1h8.6v5.3h-1.4c-.6 6.5-1.9 11.5-3.8 15 1.6 1.9 3.4 3.5 5.5 4.8-.3.6-.8 1.6-1.6 2.8-.6 1.1-1 2-1.2 2.5-2.4-1.8-4.4-3.5-5.9-5.2-1.8 1.8-3.9 3.6-6.4 5.6l-2.2-3-1.4 2.5c-.1 0-.3-.1-.5-.2-2.8-1.1-4.8-1.9-5.9-2.3-3 1.6-6.9 2.7-11.6 3.4-.1-.3-.3-.8-.6-1.4-.4-1.1-.8-2-1.1-2.7 2.8-.1 5.4-.5 7.7-1.2-.4 0-.9-.1-1.4-.3l-.9.6zm.9-13.9v1.4h2.5v-1.4h-2.5zm.2-13.4v1.4h2.3V5.8h-2.3zm0 4.5v1.4h2.3v-1.4h-2.3zm3 18.5-.6.6c.4.1 1 .3 1.7.5.8.3 1.4.5 1.7.6.6-.5 1.2-1.1 1.7-1.7h-4.5zm13.5 0h-3c-.8 1.2-1.7 2.3-2.7 3.3l2.8.9c2.5-1.9 4.5-3.8 6.1-5.6-1.1-2.5-2-5.3-2.7-8.3-.1.2-.3.5-.5.9-.3.4-.5.7-.6.9-.6-1.7-1.1-3.2-1.6-4.5v7.3H143l-.5.5c-.2.3-.4.5-.5.6h10.6v4zm-6.7-23h-2.3v1.4h2.3V5.8zm-2.3 4.5v1.4h2.3v-1.4h-2.3zm7 5.9c0-.2-.1-.4-.2-.6-.1-.3-.2-.5-.3-.6h-6.6v1.2h7.1zm-4.5 3h-2.5v1.4h2.5v-1.4zm4.5-5c.1-.3.3-.8.6-1.4.4-.8.7-1.5.9-2h-1.6v3.4zm6.6-2c.3 3.9 1 7.1 2 9.7.9-2.2 1.6-5.4 1.9-9.7h-3.9z" style="fill:#e4e762"/></svg>