<svg xmlns="http://www.w3.org/2000/svg" width="254.5" height="37.7" style="overflow:visible;enable-background:new 0 0 254.5 37.7" xml:space="preserve"><path d="M33.9 5.9c0-.3.1-.7.2-1.1.1-.9.2-1.6.2-2 .4.2 1 .4 1.9.6.5.2 1.5.6 2.8 1.1-.1 1.4-.3 2.8-.6 4.4-.7 3-2.2 4.5-4.4 4.4h-4c-2.7-.1-4.1-1.9-4.1-5.3V7h-5c0 4-2.4 6.6-7.2 8-.1-.1-.2-.3-.3-.6-.6-.9-1-1.7-1.2-2.2H9.8v5l3.3-.6c-.1 2.5-.1 4.5 0 5.9-1 .1-2.1.3-3.3.6v9.2c.1 3-1.2 4.6-4.1 4.8-1.1.1-2.7.2-4.5.2-.1-.7-.3-1.8-.5-3.3-.3-1.1-.5-1.9-.5-2.3.8.1 1.7.1 2.5 0 .9.1 1.4-.4 1.2-1.6v-5.9c-1.1.3-2.3.6-3.6.8L0 18.6h.5c.9-.1 2.1-.3 3.6-.6v-5.8H.6V6.4H4V.3h5.8v6.1h3.4v3c1.9-.8 2.8-2.4 2.7-4.8V1.4h15.3v4.7c-.1 1 .2 1.5.8 1.4h.8c.6.1 1-.4 1.1-1.6zm2.2 9.6v5.8c-1.9 3.5-3.9 6.3-6.1 8.3 2.3 1 5.1 1.9 8.3 2.5-.8 1-1.9 2.8-3.3 5.3-4.1-1-7.5-2.4-10.3-4.2-3.6 2-7.2 3.4-10.8 4.4-.2-.4-.5-1-.9-1.7s-1.1-1.9-2.2-3.4c3.3-.7 6.3-1.7 8.9-2.8-1.8-1.8-3.4-3.8-5-6.1l3.6-2.5h-3.9v-5.5h21.7zM20 20.9c1.4 2.1 3 3.9 4.8 5.5 1.9-1.7 3.4-3.5 4.5-5.5H20zM44.1 2.2h37.2v6.4H64.9v7.5l3-3.4c4.5 3.1 8.6 6.2 12.5 9.2l-4.5 5.5C71.8 24 68.2 21 65 18.6v18.6h-7.2V8.6H44.1V2.2zm52.1 35.1H90V21.4c-.1.2-.3.5-.5.8-.5.6-1.2 1.6-2 2.8-.6-2.9-1.1-5.6-1.6-8.1C89 12.1 91.5 6.5 93.3 0l6.4 1.6c-.9 2.9-2.1 5.9-3.4 8.9v26.8zm.3-7.6c1.7-4.1 3.2-8 4.5-11.9-.6-.5-1.5-1.2-2.5-2.2-.9-.8-1.7-1.5-2.2-1.9 2.9-3.8 5.1-8.3 6.6-13.6l6.4.9c-.3 1.2-.7 2.4-1.2 3.6h15.5V10l-2.2 6.4-5.9-1.2 1.7-4.7h-11.6c-.8 2-2 4-3.4 6.1l5.2 1.6c-.2.5-.5 1.4-.9 2.5-1.8 5-3.1 8.6-3.9 10.8h3.3c1.4.1 2-.5 1.9-1.9V12.3h6.2v18.8c.1 3.6-1.6 5.6-5.2 5.8h-2c-1.6.1-2.8.2-3.6.2-.1-.5-.3-1.5-.5-2.8-.2-1-.4-1.8-.5-2.3l-5.7-2.3zm23.3-13c.6 1.9 1.6 4.7 2.8 8.4.8 2.5 1.4 4.2 1.7 5.2l-6.1 1.9c-.4-1.2-1-3.2-1.9-5.9-1-3.6-1.8-6.3-2.3-8l5.8-1.6zm46 12.4c0 5-2.3 7.6-6.9 7.7-1.9.1-4.3.2-7.2.2-.1-.4-.2-1-.3-1.9-.2-1.2-.5-2.7-.9-4.2 1.2.1 3.1.2 5.6.2 2.3.2 3.4-.9 3.4-3.3v-6.6c.1-4.4.2-7.4.2-9.2h-5.5c-.6 1.7-1.4 3.3-2.2 4.8-1.6-.8-3.2-1.7-4.8-2.7v22.7h-6.1v-2.2h-4.5v2.3h-6.1v-31h4.4c.5-2.1.9-4 1.1-5.8l6.9.8c-.1.3-.2.7-.3 1.2-.2 1.1-.5 2.4-.9 3.8h5.6v6.6C149.4 8 150.9 3.9 152 0l6.2 1.4c-.1.5-.3 1.2-.6 2.2-.3 1-.6 1.8-.8 2.3h9.5c-.2 11.5-.4 19.2-.5 23.2zm-29.2-17.2v5.5h4.5v-5.5h-4.5zm0 11.4v5.5h4.5v-5.5h-4.5zm16.9-7.2c.9 1.1 2.3 2.9 4.1 5.3.7 1 1.3 1.8 1.7 2.3l-5.3 3.4c-2.2-3.3-4-6-5.5-8l5-3zm19.6-1.1h38.1v7h-38.1v-7zm43.7 10.2h37.5v4.5h-9.2c3.3 1 6.5 2.1 9.4 3.1l-2.7 4.5c-3.5-1.5-7.1-2.9-10.6-4.2l2.3-3.4h-3.8v1.9c.2 3.9-1.6 5.7-5.3 5.6-1.2.1-2.9.2-4.8.2-.1-.3-.3-.8-.5-1.6-.2-1.1-.4-2-.6-2.5-3 1.6-6.1 3-9.2 4.4-.4-.6-.9-1.6-1.6-2.8-.5-.8-.9-1.5-1.2-1.9 2.4-.6 5.2-1.7 8.3-3.3h-8v-4.5zm.8-19.3V1.1h36.1v4.8H243v1.7h9.5v10.6h-34.1V7.7h9.4V5.9h-10.2zm1.9 13.6h32.2v4.4h-32.2v-4.4zm4.5-5.3h3.9v-2.3H224v2.3zm7.3 18.3c1.6 0 2.3-.7 2.2-2.2v-.6h-5.8l2.2 2.8h1.4zm2.2-26.6v1.7h3.9V5.9h-3.9zm0 6v2.3h3.9v-2.3h-3.9zm13.6 0H243v2.3h4.1v-2.3z" style="fill:#6051a0"/></svg>