<svg xmlns="http://www.w3.org/2000/svg" xmlns:xlink="http://www.w3.org/1999/xlink" width="92.6" height="36.2" style="overflow:visible;enable-background:new 0 0 92.6 36.2" xml:space="preserve"><style>.st0{clip-path:url(#SVGID_2_);fill-rule:evenodd;clip-rule:evenodd;fill:#eb3f43}</style><defs><path id="SVGID_1_" d="M0 0h92.6v36.2H0z"/></defs><clipPath id="SVGID_2_"><use xlink:href="#SVGID_1_" style="overflow:visible"/></clipPath><path class="st0" d="M55.3.8c-1.6.4-3 .8-3.1.8-.1 0-.1 0-.1.4v.4l.9.2c1.1.4 1.2.4 1.2.9v20.9l-.1.1c-.1.1-.2.2-.3.2-.2.1-.3.1-2 .1s-1.9 0-2-.1c-.1-.1-.2-.2-.3-.2l-.1-.1v-7.1c0-6 0-7.1-.1-7.1 0 0-1.4.4-3 .8s-3 .8-3 .8c-.1 0-.1.1-.1.4v.4l.9.3c1 .3 1.1.4 1.2.6.1.2.1 11.2 0 11.3-.1.2-.3.2-1 .3-.4 0-.7.1-.8.1v1.1h17v-.6c0-.5 0-.6-.1-.6-.3 0-1.6-.2-1.8-.2-.3-.1-.3.9-.3-12.6 0-9.8 0-12.3-.1-12.3 0 0-1.3.3-2.9.8m-43.5.4c-.1 0-.3 0-.6.1-3.3.4-6.4 2.1-8.4 4.5C1.3 7.6.5 9.6.1 12.1 0 13 0 15 .1 15.8.5 18.7 1.7 21 3.6 23c2 2 4.5 3.1 7.6 3.6.7.1 2.9.1 3.7 0 2.4-.4 4.5-1.2 6.2-2.5 2.3-1.7 3.9-4.1 4.6-6.9.9-3.7.3-7.4-1.6-10.4-2-3-5-4.8-8.8-5.4-.6-.2-3.1-.2-3.5-.2m2.5 1.6c3.3.7 5.8 3.9 6.5 8.5.6 4-.2 8.1-2.2 10.8-.4.5-1.4 1.5-1.9 1.8-1.1.8-2.3 1.1-3.6 1.1-2.8 0-5.1-1.6-6.6-4.6-.7-1.4-1.1-2.9-1.3-4.7-.1-.8-.1-3.1 0-3.9.3-2 .8-3.8 1.6-5.2C8.1 4.4 10 3 12.1 2.7c.7-.1 1.6 0 2.2.1"/><path class="st0" d="M44.3 3.5c-2.9.3-5.1 1.9-6 4.3-.3.8-.4 1.3-.4 2.3 0 .7 0 .8-.1.8-.9-.4-2-.6-3.2-.6-2.8 0-5.3 1.3-6.4 3.4-.4.9-.6 1.6-.6 2.7 0 .9.1 1.4.5 2.2.5 1 1.2 1.8 2.2 2.4l.2.1-.5.1c-2.1.4-3.3 1.4-3.7 3-.1.5-.2 1.7 0 2.2.4 1.3 1.3 2.2 2.7 2.6.4.1.6.1 1.4.1.9 0 .9 0 3.7-.3 3.7-.5 4.3-.5 5.1-.1.8.4 1.1 1.2.9 2.3-.3 1.7-1.7 3-3.9 3.5-1 .2-2.4.2-3.4 0s-1.6-.6-1.9-1.2c-.2-.4-.2-.7-.2-1.5 0-.6 0-.7-.1-.9-.1-.3-.4-.5-.6-.7-.2-.1-.3-.1-.7-.1-.4 0-.5 0-.7.2-.5.3-.8.8-.8 1.6 0 1.6 1.1 3 2.9 3.7 1.1.4 2.2.6 3.7.6 1.2 0 1.7-.1 2.6-.3 3.6-.9 5.9-3.7 5.8-7 0-.9-.2-1.5-.7-2.2-.7-1.2-2.1-1.8-3.8-1.9-.7 0-.8 0-4.1.4-3.5.4-4.2.5-4.6.3-.7-.2-1-.6-1-1.3 0-.3 0-.4.1-.6.3-.7 1.3-1.1 2.8-1.3.6-.1 1.1-.1 2.8-.2.9 0 1.3-.1 1.7-.1 2.4-.5 4.3-1.9 5-3.9.3-.7.3-1.1.3-2.1 0-.7 0-.9-.1-1.3-.2-.6-.5-1.3-.9-1.8-.2-.2-.4-.5-.4-.6-.2-.4-.3-.9-.3-1.6-.1-1.7.4-3.1 1.5-4.1.7-.6 1.4-1 2.3-1.1.7-.1 1.3 0 1.5.3.1.1.1.2.1.8 0 .7 0 .7.2 1 .4.8 1.1 1.3 2 1.3.7 0 1.1-.2 1.6-.6.7-.7.8-1.8.4-2.7-.3-.7-1.2-1.3-2.1-1.6-.7-.4-1.9-.5-2.8-.5m-9.4 8.1c1 .2 1.9 1.1 2.3 2.4.6 1.8.4 4.2-.5 5.6-1 1.4-2.5 1.6-3.7.5-.7-.7-1.2-1.8-1.3-3.3-.2-1.8.4-3.7 1.4-4.6.5-.5 1.1-.7 1.8-.6m24.8-.2v.6l.6.1c.6.2.9.3 1.1.6.1.2 4.4 10.6 5.4 13.1l.2.5h2.4l2.5-6.3c1.4-3.5 2.7-6.5 2.8-6.8.3-1 .6-1.2 1.3-1.2.4 0 .7.1.9.4.1.1 1.2 2.9 3 7.2 1.6 3.8 2.9 7 2.9 7 0 .1-1.7 4-1.9 4.5-.5.9-.9 1.4-1.4 1.7l-.3.1h-2.4l-.3.1c-.6.3-.9.8-.9 1.5 0 .8.6 1.4 1.6 1.6.9.1 1.7-.1 2.5-.8.8-.6 1.7-1.7 2.3-3 .2-.4 2.1-4.8 4.3-9.9 2.2-5.1 4-9.3 4.1-9.5.3-.5.7-.8 1.5-.9l.5-.1v-1.2h-6v1l.7.1c.9.2 1 .2 1.1.4.1.1.1.5 0 .8-.1.4-3.4 8.2-3.4 8.2-.1.1-.2.1-.3-.1 0-.1-.8-2-1.6-4.2-1-2.7-1.5-4.1-1.6-4.2-.1-.5.1-.6 1.1-.8l.8-.2v-1H70.6v1l.8.2c.4.1.8.2.9.2.2.1.3.4.2.7-.1.3-3.3 8.8-3.4 8.9-.1.1-.2.1-.3-.1 0-.1-.8-2-1.7-4.4-1.7-4.4-1.8-4.6-1.6-4.9.1-.2.3-.3 1.1-.5l.8-.2v-1h-8l.3.8z"/></svg>