<svg xmlns="http://www.w3.org/2000/svg" xmlns:xlink="http://www.w3.org/1999/xlink" width="151.3" height="142.1" style="overflow:visible;enable-background:new 0 0 151.3 142.1" xml:space="preserve"><style>.st1{clip-path:url(#SVGID_4_);fill:#221d1e}</style><defs><path id="SVGID_1_" d="M0 0h151.3v142.1H0z"/></defs><clipPath id="SVGID_2_"><use xlink:href="#SVGID_1_" style="overflow:visible"/></clipPath><path d="M131 21.5C117.3 8 98.7.3 78.6 0c-20-.3-39.2 6.7-53.9 19.6C17 26.3 11 34.3 6.7 43.2 2.5 52 .3 61.2 0 70.6c-.6 18.8 6.6 36.5 20.2 50 13.7 13.5 32.3 21.2 52.4 21.5 20 .3 39.2-6.7 53.9-19.6 7.7-6.7 13.7-14.7 18-23.6 4.1-8.7 6.4-17.9 6.6-27.4.7-18.8-6.5-36.5-20.1-50M19.9 71.2c.4-13.9 6.7-26.9 17.8-36.6 11.1-9.7 25.4-14.9 40.5-14.7 5.4.1 10.6.9 15.5 2.3l-62.9 80.5c-7.4-8.9-11.2-19.9-10.9-31.5m53.1 51c-9.6-.2-18.8-2.5-26.8-6.9l30-38.4 15.5 42.7c-5.9 1.8-12.2 2.7-18.7 2.6m58.4-51.3c-.4 13.9-6.7 26.9-17.8 36.6-1.2 1.1-2.5 2.1-3.8 3.1l-19-52.2L112 31.3c1.8 1.4 3.5 2.8 5.1 4.4 9.5 9.5 14.6 22 14.3 35.2" style="clip-path:url(#SVGID_2_);fill:#221d1e"/></svg>