<svg xmlns="http://www.w3.org/2000/svg" width="168.7" height="37.3" style="overflow:visible;enable-background:new 0 0 168.7 37.3" xml:space="preserve"><path d="m.9 22.2 3.9-.2V3.3h8.3c.3-1 .7-2.1 1.1-3.3l7.2.3-1.4 3h13.1v15l2.2-1.6 3 4.7c-1.7 1.2-3.4 2.4-5.2 3.4v6.4c.2 3.8-1.8 5.6-6.1 5.6h-6.6c-.1-1.6-.4-3.3-.9-5.2h5.2c1.9.1 2.7-.6 2.5-2V28c-5.2 2.8-13.4 5.8-24.5 9-.1-.2-.2-.5-.3-.8C1.8 35 1 33.5 0 31.9c7.1-1.6 13-3.3 17.8-5.2-5 .1-10.6.3-16.7.5l-.2-5zm9.7-14.1V10h16.6V8.1H10.6zm0 5.8v1.9h16.6v-1.9H10.6zm0 5.9v2l16.6-.5v-1.6H10.6zm42.8 17.4h-6.1V20.5c-.4.6-1 1.5-1.7 2.5-.5.7-.9 1.3-1.2 1.7-.3-3.1-.6-6.1-.9-9.1 2.9-4.7 5.2-9.9 6.7-15.6l6.4 1.6c-.9 2.8-2 5.5-3.1 8v27.6zm23.7-6.6c0 3.9-2 5.8-5.9 5.9-1.2.1-3.1.2-5.6.2-.1-.5-.3-1.3-.5-2.3-.3-1.2-.6-2.2-.8-2.8h3.9c1.9.1 2.8-.7 2.7-2.3.2-2.6.3-5.1.3-7.3h-5c.1 6.5-2.6 11.6-8 15.5-.5-.4-1.3-1.1-2.3-2-1-.8-1.8-1.5-2.3-2 4.5-2.5 6.6-6.3 6.4-11.4h-1.7v-3.6c-.7.6-1.5 1.4-2.3 2.2-.4-1.6-1.2-3.2-2.3-5 2.7-2.3 4.8-5.6 6.2-9.8l5.3 1.6c-1.4 3.4-3.1 6.5-5.3 9.2h16.4c-2.8-3-5.2-6.7-7.2-11.1h-6.7v-5h11.1c1.8 5.4 4.5 9.5 8.1 12.2-.1.3-.2.7-.3 1.2-.4 1.5-.9 3.3-1.4 5.6-.8-.6-1.6-1.3-2.2-2l-.6 13zM99.6 2.5v5H96c-.5 2-1.1 3.9-1.7 5.8h5.2v23h-4.2v-2.2h-1.6v2.8h-4.8V23.1c-.2.2-.5.6-.8 1.1-.4.5-.7.9-.9 1.2-.1-.8-.2-2-.3-3.6-.2-1.8-.4-3.1-.5-3.9 2-3.1 3.4-6.6 4.2-10.5h-3.3v-5h12.3zm-4.3 15.8h-1.6v11.1h1.6V18.3zm28.4-5.2v4.4h-6.2v1.7h5.6v4.4h-5.6v1.9h5.6v4.2h-5.6v1.9h6.7v4.1h-16.4v1.7h-5.5V23.8l-1.9 1.7c-.1-2.2-.4-4.4-.8-6.7 3.9-3.4 6.4-6.9 7.7-10.5H105V12h-4.5V3.4h8.3c0-.3.1-.8.3-1.6.1-.8.2-1.5.3-1.9l6.1.5c0 .2-.1.5-.2.8-.2.5-.4 1.2-.6 2.2h9.1v8H119c-.3.5-.6 1.1-.9 1.7h5.6zm-15.8 4.4-.2.2v1.6h4.2v-1.7h-4zm-.1 6.1v1.9h4.2v-1.9h-4.2zm0 6.1v1.9h4.2v-1.9h-4.2zm5.3-21.4c-.1.2-.3.6-.5 1.1-.7 1.7-1.4 2.9-1.9 3.8h1.4c.6-1.4 1-2.4 1.1-3.1l5.3.5V8.3h-5.4zM130 6.4h15.9v3.3l1.6-2c.5.3 1.3.8 2.3 1.6 1.5.9 2.5 1.6 3.1 2l-2.5 3.3c-1.4-1.2-2.9-2.4-4.5-3.6v.3H130V6.4zm1 6.1h13.8v4.2H131v-4.2zm0 5.5h13.8v4.4H131V18zm16.1 6.1 2.8 1.1v-1.7h4.4l-.9-1.4 3.8-2.2.5.5c-.1-.4-.3-1.1-.5-2-.2-.8-.4-1.5-.5-1.9-1.6 2.3-3.8 4.4-6.7 6.4-.5-.6-.7-.8-.5-.6-1.2-1.5-2.2-2.6-3-3.4 5.3-3.2 8.1-7.3 8.4-12.2h-7.8v-5h20.6c-.2 6-.4 10.5-.5 13.3-.1 3.8-1.8 5.7-5.2 5.9h-1.4c-1.1.1-2.1.2-2.8.2.3.4.7 1 1.2 1.9.9 1.6 1.7 2.7 2.2 3.3l-4.1 2.8c-.2-.5-.6-1.2-1.1-2-.4-.9-.8-1.6-1.1-2v6.4c-.1 1 .4 1.5 1.4 1.4h1.2c.8 0 1.3-.5 1.4-1.4.1-.2.2-.9.3-2 .1-.5.2-.9.2-1.1 1.4.4 2.7.9 4.1 1.6l-2.2-6.1 4.1-1.4c.2.7.6 1.7 1.1 3 1 2.8 1.7 4.7 2 5.8l-4.1 1.6-.5-1.6c-.1.4-.3 1-.5 1.9-.1.3-.2.6-.2.8-.7 2.5-2.3 3.7-4.8 3.6h-4.2c-3 0-4.5-1.6-4.5-4.7v-4.2c-.3.7-.7 1.7-1.1 3-.5 1.2-.9 2.2-1.1 2.8l-3.1-1.2v4.4h-5v-1.6H136v1.6h-5V23.6h13.4v7.8c.1-.2.2-.5.3-.9 1.4-3.1 2.1-5.2 2.4-6.4zM131.7.6h12.5v4.2h-12.5V.6zm4.5 27.7v3h3.4v-3h-3.4zm26.1-21.7H160c-.4 3.5-1.4 6.6-2.8 9.1h2.8c1.4.1 2-.5 2-1.9.1-.8.2-2.1.2-3.8 0-1.4.1-2.5.1-3.4z" style="fill:#fff"/></svg>