<svg xmlns="http://www.w3.org/2000/svg" width="167.4" height="38.1" style="overflow:visible;enable-background:new 0 0 167.4 38.1" xml:space="preserve"><path d="M10.3 37.3H4.1V21.4c-.1.2-.3.5-.5.8-.5.6-1.2 1.6-2 2.8C1 22.1.5 19.4 0 16.9 3.1 12.1 5.6 6.5 7.3 0l6.4 1.6c-.9 2.9-2.1 5.9-3.4 8.9v26.8zm.3-7.6c1.7-4.1 3.2-8 4.5-11.9-.6-.5-1.5-1.2-2.5-2.2-.9-.8-1.7-1.5-2.2-1.9 3-3.7 5.2-8.2 6.6-13.5l6.4.9c-.3 1.2-.7 2.4-1.2 3.6h15.5V10l-2.2 6.4-5.9-1.2 1.7-4.7H19.7c-.8 2-2 4-3.4 6.1l5.2 1.6c-.2.5-.5 1.4-.9 2.5-1.8 5-3.1 8.6-3.9 10.8H20c1.4.1 2-.5 1.9-1.9V12.3H28v18.8c.1 3.6-1.6 5.6-5.2 5.8h-2c-1.6.1-2.8.1-3.6.1-.1-.5-.3-1.5-.5-2.8-.2-1-.4-1.8-.5-2.3l-5.6-2.2zm23.3-13c.6 1.9 1.6 4.7 2.8 8.4.8 2.5 1.4 4.2 1.7 5.2l-6.1 1.9c-.4-1.2-1-3.2-1.9-5.9-1-3.6-1.8-6.3-2.3-8l5.8-1.6zm46 12.4c0 5-2.3 7.6-6.9 7.7-1.9.1-4.3.2-7.2.2-.1-.4-.2-1-.3-1.9-.2-1.2-.5-2.7-.9-4.2 1.2.1 3.1.2 5.6.2 2.3.2 3.4-.9 3.4-3.3v-6.6c.1-4.4.2-7.4.2-9.2h-5.5c-.6 1.7-1.4 3.3-2.2 4.8-1.6-.8-3.2-1.7-4.8-2.7v22.7h-6.1v-2.2h-4.5v2.3h-6.1v-31H49c.5-2.1.9-4 1.1-5.8l6.9.8c-.1.3-.2.7-.3 1.2-.2 1.1-.5 2.4-.9 3.8h5.6v6.6C63.4 8 65 3.9 66 0l6.2 1.4c-.1.5-.3 1.2-.6 2.2-.3 1-.6 1.8-.8 2.3h9.5c-.1 11.5-.3 19.2-.4 23.2zM50.7 11.9v5.5h4.5v-5.5h-4.5zm0 11.4v5.5h4.5v-5.5h-4.5zm16.9-7.2c.9 1.1 2.3 2.9 4.1 5.3.7 1 1.3 1.8 1.7 2.3L68 27.2c-2.2-3.3-4-6-5.5-8l5.1-3.1zm29.2 5.1v-.8h-4.2V18c-1 .9-2.2 1.9-3.4 2.8a71 71 0 0 0-3.1-6.2c4.8-2.9 8-6.5 9.5-10.6l5.9 2.5C99.8 10 98 12.8 96 14.8h18c-2.5-2.6-4.4-5.7-5.6-9.2h-6.9V0h11.1c2.5 6.2 6.6 11 12.2 14.2-1.1 1.9-2.2 4-3.1 6.4-1-.6-2-1.2-3-1.9 0 .7-.1 1.9-.2 3.6-.1 3.6-.2 6-.3 7 .1 5-2.6 7.4-8 7.3-.8 0-2.1.1-3.9.2H104c-.3-1.6-.7-3.6-1.2-6.1 3 .2 5.1.3 6.2.2 1.9.1 2.8-.8 2.8-2.7.1-.6.2-1.9.2-3.9.1-1.8.2-3.1.2-3.9h-8.8v.5c-.1.3-.2.6-.2.8.4 7.2-3.8 12.6-12.7 16.1-1.7-2.4-3-4.1-4.1-5.2 7.2-2.5 10.7-6.4 10.4-11.4zm35.7-21h5v6.7h2v5.6h-2V15c.5.3 1.2.9 2 1.7.5.4.9.7 1.1.9l-1.7 5.5-1.4-1.6v15.9h-5V23.6c-.7 2.1-1.6 4.1-2.5 5.9-.1-.4-.2-1.1-.3-2-.3-2.8-.6-4.9-.8-6.2 1.1-1.8 2.2-4.7 3.3-8.8h-2.7V6.9h3V.2zm7.5 20h11l-.3-2.7-1.9.9c0-.1-.1-.3-.2-.6-.1-.2-.2-.4-.3-.5-2.9.2-5.3.4-7.2.6l-1.6-3.6h1.9c.5-.7 1.1-1.8 1.9-3.1.3-.5.6-.9.8-1.1-1.6-1.8-3.1-3.4-4.5-4.8l2.2-2.2.6.6c.1-.3.3-.7.6-1.2.5-.9.9-1.7 1.1-2.2l4.1 1.6c-.3.5-.8 1.2-1.4 2-.8 1-1.4 1.9-1.7 2.5l.8.9 1.4-2.3 3 1.7V.2h5.2v4.1l1.6-1.6 1.1 1.2c.7-1.2 1.3-2.4 1.7-3.4l3.9 1.2-3.3 4.4.9 1.1 1.6-2.7 3.3 1.6c-.3.5-.9 1.4-1.7 2.7-.8 1.4-1.5 2.3-1.9 3l2-.9c.4.9 1.1 2.7 2.2 5.3l.3.9-3 1.1c0-.2-.1-.4-.2-.6-.1-.3-.2-.5-.3-.6-.4 0-1.2.1-2.3.2-2 .1-3.5.2-4.5.3l-1.1-3.4h1.7c.4-.7 1-1.7 1.7-2.8.2-.4.4-.7.5-.9-1.4-1.6-2.8-3.1-4.2-4.5 0 3.2.1 6.4.3 9.5 0 .6.1 1.5.2 2.5 0 1.1.1 2 .2 2.5h2.7l-.8-2 4.5-.6 1.2 2.7h3.1v4.7h-4.4L165 27c-1.5 1.4-3.4 2.9-5.8 4.7.4.5.9.8 1.6.8s1.1-.3 1.4-.9c.2-.3.5-.8.8-1.6.2-.4.4-.7.5-.9 1.1.9 2.4 1.8 3.9 2.5-.5 1.5-1.2 2.8-2.2 3.9-.9 1.4-2.4 2-4.4 2-2.4 0-4.4-1.1-5.9-3.3-1.9 1.1-4 2.2-6.2 3.3-.2-.3-.6-.8-1.1-1.6-.7-1.1-1.3-2-1.7-2.5l3-1.1c-.8-.6-1.7-1.2-2.7-1.7-.6 2.2-2.1 4.7-4.4 7.5-.8-1.1-2.1-2.5-3.9-4.1 2.7-2.4 4.1-5.5 4.2-9.2h-2v-4.6zm6.9-6-.8-1.7-1.2 1.9 2-.2zm1.9-3.1c.1.4.4 1 .8 1.7.4.9.7 1.7.9 2.2 0-1.4-.1-3.7-.3-7 .2 2.3.2 2 0-.9l-3.8 5.2 2.4-1.2zm-1.7 13.7v1.4c1.4.6 2.8 1.2 4.4 1.9l-2.2 4.1c1.2-.6 2.4-1.2 3.6-1.9-.4-1-.8-2.7-1.2-5 0 .2-.1.1-.2-.5h-4.4zm10.1 2.7c.6-.3 1.5-.9 2.5-1.9.5-.3.9-.6 1.1-.8h-4.2c.1.3.2.8.3 1.6.2.5.3.9.3 1.1zm5.2-13.7-.5-1.2c-.3.5-.6.9-.9 1.2h1.4z" style="fill:#de4143"/></svg>