<svg xmlns="http://www.w3.org/2000/svg" width="299.8" height="67.8" style="overflow:visible;enable-background:new 0 0 299.8 67.8" xml:space="preserve">
    <path d="m17.2 29.8 6.3-1.6c1.8 4.7 3.2 9.1 4.1 13.1V6.6h10.1c.5-2 .9-3.9 1.1-5.7l11.2.5-1.9 5.2h17.8v38.6H52l3 5.5-1.1.5c.5.4 1.6.7 3.3 1.1.5.2 1 .4 1.4.5-.5-1.5-1.1-2.8-1.6-4.1l7.4-1.6c2 4.9 3.6 9.5 4.9 13.7l-7.4 2.5c-.2-.5-.5-1.4-.8-2.5-.2-.7-.6-2-1.4-3.8l-.8 2.7c-1.1 4-3.9 5.9-8.5 5.7h-8.5c-5.1 0-7.7-2.4-7.7-7.1v-4.9c-.7 2.9-2 6.3-3.8 10.1-.9-.5-2.4-1.2-4.4-1.9-.9-.4-1.6-.6-2.2-.8l1.4-3-3.6.8c0-.2-.1-.5-.3-1.1-.7-4.4-1.5-8.1-2.2-11.2l5.7-1.1c.7 2.6 1.4 5.3 1.9 8.2.2-.4.4-.9.5-1.6.2-.5.6-1.9 1.4-4.1l5.5 1.9v-3h9v7.9c-.2 2.4.7 3.5 2.7 3.3h1.9c2 .2 3.1-.7 3.3-2.7l.5-2.7-4.4 2.2c-.4-.9-1-2.2-1.9-3.8-.7-1.8-1.4-3.2-1.9-4.1l3.6-1.4H27.6v-2.5l-6.3 1.9-.8-3.7-2.2.3v25.2H9.6V42.1l-8.2.8-1.1-8.8c.9 0 2.4-.1 4.4-.3 1.6-2.6 3.6-5.3 5.7-8.2C7.3 23.3 3.8 20.8 0 18l4.4-7.1 2.2 1.4C8.9 8.1 10.8 4 12.3 0l8.8 3.6c-3.3 5.8-6 10.2-8.2 13.1.9.5 1.6 1.1 2.2 1.6 2.2-3.3 4.1-6.5 5.7-9.6l6.6 4.4c-3.1 5.5-7.6 12.3-13.4 20.5 1.6 0 3.1-.1 4.4-.3l-1.2-3.5zM8.5 46.2c0 .9-.1 2.4-.3 4.4-.5 5.8-1 9.7-1.4 11.5L0 61.2c.7-2.9 1.3-7.6 1.6-13.9.2-.7.3-1.3.3-1.6l6.6.5zm27.9-24.9c2.2-2.6 4-5 5.5-7.4h-5.5v7.4zm4.3 6.3 4.1-4.6 3 2.2c.4-.4.8-1 1.4-1.9.4-.4.6-.7.8-1.1h-5.7c-1.6 2.2-3.5 4.2-5.5 6l-2.5-3V32c2.6-.7 4.7-1.6 6.6-2.7l-2.2-1.7zm-1.1 9.9c-1.1-1.5-2.2-3-3.3-4.6v4.6h3.3zm8.8-3.9c-2 1.5-4.4 2.7-7.1 3.8H53l-4.6-3.8zm7.9-9.8c-1.1 1.8-2.2 3.6-3.3 5.2l4.4 3.3V13.9h-7.7c-.5.7-1.1 1.6-1.6 2.5h8.2v7.4zm-2.7 13.7h3.8v-4.6l-3.8 4.6zm18.7 7.3H138v7.9h-16.1c5.8 1.8 11.3 3.6 16.4 5.5l-4.6 7.9c-6.2-2.6-12.4-5-18.6-7.4l4.1-6h-6.6V56c.4 6.7-2.7 10-9.3 9.8-2.2.2-5 .3-8.5.3-.2-.5-.5-1.5-.8-2.7-.4-2-.7-3.5-1.1-4.4-5.3 2.7-10.7 5.3-16.1 7.7-.8-1.1-1.7-2.7-2.8-4.9-.9-1.5-1.6-2.6-2.2-3.3 4.2-1.1 9-3 14.5-5.7h-14v-8zm1.4-33.6V2.7h63.2v8.5h-18.6v3H135v18.6H75.3V14.2h16.4v-3h-18zM77 35h56.3v7.7H77V35zm7.9-9.3h6.8v-4.1h-6.8v4.1zm12.9 32c2.7 0 4-1.3 3.8-3.8v-1.1H91.5l3.8 4.9h2.5zm3.8-46.5v3h6.8v-3h-6.8zm0 10.4v4.1h6.8v-4.1h-6.8zm23.8 0h-7.1v4.1h7.1v-4.1zm25.3 37.2-7.9-2.2c.7-.7 1.6-1.7 2.7-3 .9-1.1 1.6-1.9 2.2-2.5H142v-6.8h11.2l1.4-1.9h-10.1V29.3h12.3v-2.2h-12.3v-7.4h-2.7v-7.1h2.7V5.2h12.3V1.1h9v4.1H178v7.4h2.7v7.1c2.4-5.5 4.1-11.8 5.2-18.9l9.8 1.4c-.9 3.8-1.9 7.4-3 10.7h15v9.3h-2.5c-1.1 11.3-3.3 20.1-6.6 26.2 2.7 3.3 5.9 6.1 9.6 8.5-.5 1.1-1.5 2.7-2.7 4.9-1.1 2-1.8 3.5-2.2 4.4-4.2-3.1-7.7-6.1-10.4-9-3.1 3.1-6.8 6.4-11.2 9.8l-3.8-5.2-2.5 4.4c-.2 0-.5-.1-.8-.3-4.9-2-8.4-3.4-10.4-4.1-5.3 2.7-12 4.7-20.2 6-.2-.5-.5-1.4-1.1-2.5-.7-2-1.4-3.6-1.9-4.6 4.9-.2 9.4-.9 13.4-2.2-.7 0-1.6-.2-2.5-.5l-1.2.8zm1.6-24.3V37h4.4v-2.5h-4.4zm.3-23.6v2.5h4.1v-2.5h-4.1zm0 8v2.5h4.1v-2.5h-4.1zm5.2 32.2-1.1 1.1c.7.2 1.7.5 3 .8 1.5.5 2.5.9 3 1.1 1.1-.9 2.1-1.9 3-3h-7.9zm23.8 0h-5.2c-1.5 2.2-3 4.1-4.6 5.7l4.9 1.6c4.4-3.3 7.9-6.6 10.7-9.8-2-4.4-3.6-9.2-4.6-14.5-.2.4-.5.9-.8 1.6-.5.7-.9 1.3-1.1 1.6-1.1-2.9-2-5.6-2.7-7.9v12.9h-13.4l-.8.8c-.4.5-.6.9-.8 1.1h18.6v6.9zm-11.8-40.2h-4.1v2.5h4.1v-2.5zm-4.1 8v2.5h4.1v-2.5h-4.1zM178 29.3c0-.4-.1-.7-.3-1.1-.2-.5-.4-.9-.5-1.1h-11.5v2.2H178zm-7.9 5.2h-4.4V37h4.4v-2.5zm7.9-8.8c.2-.5.5-1.4 1.1-2.5.7-1.5 1.3-2.6 1.6-3.6H178v6.1zm11.5-3.6c.5 6.7 1.7 12.4 3.6 17 1.6-3.8 2.7-9.5 3.3-17h-6.9zm91.4 36.4h-13.5l-2.8-8.8h-19.5l-2.7 8.8H229l17.2-51.2h17.2l17.5 51.2zm-18.7-18.3-7.1-21.6-7 21.6h14.1zm37.6-16.7c0 4.4-2.7 6.6-8.1 6.6-5.5 0-8.2-2.2-8.2-6.6 0-2.5.7-4.1 2.1-5.1 1.4-.9 3.5-1.4 6.1-1.4 2.6 0 4.6.5 6 1.4 1.4.9 2.1 2.6 2.1 5.1zm0 29.1c0 4.4-2.7 6.6-8.1 6.6-5.5 0-8.2-2.2-8.2-6.6 0-2.5.7-4.1 2.1-5.1 1.4-.9 3.5-1.4 6.1-1.4 2.6 0 4.6.5 6 1.4 1.4.9 2.1 2.6 2.1 5.1z" style="fill:#6051a0"/>
</svg>
