<svg xmlns="http://www.w3.org/2000/svg" width="199.4" height="70.3" style="overflow:visible;enable-background:new 0 0 199.4 70.3" xml:space="preserve">
    <path d="M.5 44.6h65.6v7.9H50c5.8 1.8 11.3 3.6 16.4 5.5l-4.6 7.9c-6.2-2.6-12.4-5-18.6-7.4l4.1-6h-6.6v3.3c.4 6.7-2.7 10-9.3 9.8-2.2.2-5 .3-8.5.3-.2-.5-.5-1.5-.8-2.7-.4-2-.7-3.5-1.1-4.4-5.3 2.7-10.7 5.3-16.1 7.7-.7-1.1-1.6-2.7-2.7-4.9C1.3 60.1.5 59 0 58.2c4.2-1.1 9-3 14.5-5.7H.5v-7.9zm1.4-33.7V2.5h63.2V11H46.5v3h16.7v18.6H3.6V13.9H20v-3H1.9zm3.3 23.8h56.3v7.7H5.2v-7.7zm7.9-9.3H20v-4.1h-6.8v4.1zm12.9 32c2.7 0 4-1.3 3.8-3.8v-1.1H19.7l3.8 4.9H26zm3.8-46.5v3h6.8v-3h-6.8zm0 10.4v4.1h6.8v-4.1h-6.8zm23.8 0h-7.1v4.1h7.1v-4.1zM112.1 0 98.2 70.3h-9.6L102.5 0h9.6zm67.2 42.6c0 4.6-1.7 8.4-5 11.3-3.4 2.9-8.9 4.3-16.6 4.3h-20.4V7h20c7.1 0 12.3 1.2 15.6 3.5 3.3 2.3 4.9 5.5 4.9 9.6 0 2.5-.5 4.7-1.5 6.6-1 2-2.6 3.3-4.7 3.9 2.3.8 4.2 2.3 5.7 4.6 1.3 2.5 2 4.9 2 7.4zM165 22.3c0-1.7-.5-2.9-1.5-3.7-1-.8-3-1.2-6-1.2h-7.3v9.9h7.1c3 0 5-.4 6.1-1.3 1-.8 1.6-2.1 1.6-3.7zm1.1 19.9c0-1.8-.5-3.2-1.6-4.1-1.1-.9-3.2-1.4-6.4-1.4h-7.9v11.2h7.7c3.2 0 5.4-.5 6.5-1.5 1.1-1.1 1.7-2.5 1.7-4.2zm33.3-19c0 4.4-2.7 6.6-8.1 6.6-5.5 0-8.2-2.2-8.2-6.6 0-2.5.7-4.1 2.1-5.1 1.4-.9 3.5-1.4 6.1-1.4 2.6 0 4.6.5 6 1.4 1.4 1 2.1 2.6 2.1 5.1zm0 29.1c0 4.4-2.7 6.6-8.1 6.6-5.5 0-8.2-2.2-8.2-6.6 0-2.5.7-4.1 2.1-5.1 1.4-.9 3.5-1.4 6.1-1.4 2.6 0 4.6.5 6 1.4 1.4 1 2.1 2.7 2.1 5.1z" style="fill:#6051a0"/>
</svg>
