<svg xmlns="http://www.w3.org/2000/svg" width="66.4" height="64" style="overflow:visible;enable-background:new 0 0 66.4 64" xml:space="preserve">
    <path d="M.5 42.1h65.6V50H50c5.8 1.8 11.3 3.6 16.4 5.5l-4.6 7.9c-6.2-2.6-12.4-5-18.6-7.4l4.1-6h-6.6v3.3c.4 6.7-2.7 10-9.3 9.8-2.2.2-5 .3-8.5.3-.2-.5-.5-1.5-.8-2.7-.4-2-.7-3.5-1.1-4.4C15.7 59 10.3 61.6 4.9 64c-.7-1.1-1.6-2.7-2.7-4.9-.9-1.5-1.6-2.6-2.2-3.3 4.2-1.1 9-3 14.5-5.7H.5v-8zM1.9 8.5V0h63.2v8.5H46.5v3h16.7v18.6H3.6V11.5H20v-3H1.9zm3.3 23.8h56.3V40H5.2v-7.7zm7.9-9.3H20v-4.1h-6.8V23zM26 55c2.7 0 4-1.3 3.8-3.8V50H19.7l3.8 4.9H26zm3.8-46.5v3h6.8v-3h-6.8zm0 10.4V23h6.8v-4.1h-6.8zm23.8 0h-7.1V23h7.1v-4.1z" style="fill:#6051a0"/>
</svg>
