<svg xmlns="http://www.w3.org/2000/svg" width="143.3" height="33.1" style="overflow:visible;enable-background:new 0 0 143.3 33.1" xml:space="preserve"><path d="m3 5.2-.7-3.6c6.8-.1 16-.3 27.6-.7l.5 3.7c-3.6.2-7.4.3-11.1.3v1.2H33v3.6H19.3v1.2h10.8v11.9H19.3V24h11.6v3.1H19.3v1.2h13.8v3.3H0v-3.3h13.8v-1.2H2.2V24h11.6v-1.2H3V10.9h10.8V9.7H.1V6.2h13.7V5.1c-1.5.1-3 .1-4.6.1H3zm5.3 8.7v1.4h5.5v-1.4H8.3zm0 4.4v1.5h5.5v-1.5H8.3zm16.6-4.4h-5.6v1.4h5.6v-1.4zm0 5.9v-1.5h-5.6v1.5h5.6zM68.1 1.1l1.6 4.8c-3.9.5-7.1.9-9.4 1.1v4.2h9.6v4.9h-2.6v16.1h-4.9V16.1h-2.1c0 4.2-.2 7.4-.7 9.7-.4 2.2-1.2 4.6-2.6 7.2l-4.5-3c.6-1.1 1.1-2.2 1.5-3.4L51.1 29c-.3-.3-.8-.9-1.6-1.8-.5-.6-.8-1.1-1.1-1.4v6.7h-5.1v-7c-.8 1.7-2.4 3.6-4.8 5.6-.7-1.3-1.6-2.6-2.6-3.8 2-1.5 3.8-3.4 5.5-5.9h-4v-4.2h5.9v-1.8h-6.4V11h3.6c-.2-.3-.5-.7-1-1.4-.5-.5-.8-1-1.1-1.2l2.3-1.1h-3.1V3h5.6V0h4.9v3h5.7v4.4h-3.4l2.7.8-1.9 2.9h3.1v4.4h-6v1.8H54v4.2h-5.6v2.2l1.9-1.5c.5.3 1.2 1 2.3 2.2l1.6 1.6c.6-1.9.9-5.4.8-10.4V2.5c5.1-.3 9.4-.8 13.1-1.4zm-22.9 9-2.1 1h3l2.2-3.7H43l2.2 2.7zm30.4-3c.4.3.9.6 1.5 1 1 .6 2.5 1.6 4.4 3l-3 3.7c-1.5-1.3-3.3-2.7-5.6-4.4l2.7-3.3zm20.5 6.6h4.8v1.1h3.8v3.6h-3.8v1.5h4.8v3.6H98c2.2.5 4.5 1.1 7 1.6l-1.8 3.3h3.6c-.4.7-.9 2.1-1.5 4H94.2c-2.7 0-5.2 0-7.5-.1C83.1 32 80.6 31 79 29l-1.1 1.1c-1.5 1.5-2.4 2.6-2.7 3l-2.1-5.5 3-2.9v-5.3h-2.7V15h7.7v9.8c.9 1.4 2.1 2.3 3.4 2.9L83 25c.8-.2 2-.5 3.6-.8 1.6-.4 2.8-.6 3.6-.8h-7.9v-3.6h4.5v-1.5H83v-3.6h3.7v-1.1h4.9v1.1h4.5v-1zM76.4.7c2.1 1.4 4.1 2.7 5.9 4.1l-3 3.6c-.6-.5-1.6-1.3-2.9-2.2-1.2-1-2.1-1.7-2.9-2.2L76.4.7zm16.8 7.9h-1.8c.8.3 1.6.5 2.3.8-.1.3-.2.7-.3 1.2-.2.3-.3.5-.3.7-.3 1.5-1.5 2.1-3.7 2.1h-2.9c-2.7.2-4-1-3.8-3.7V1.2h10.4v7.4zm-5.3 19.7c3.5.1 8.2.1 14.4 0-.6-.2-1.6-.5-3-.8-2.1-.6-3.7-1.1-4.8-1.5l1.5-2.6h-4.2l1.6 2.7c-.6.2-1.6.5-2.7.8-1.9.6-3.4 1-4.4 1.2.4.2 1 .2 1.6.2zM86.8 4.2v1.5h2.6V4.2h-2.6zM90 9.4c.1-.1.1-.2.1-.4.1-.2.1-.3.1-.4h-3.4v.7c0 .6.4 1 1.1 1h1c.6 0 1-.3 1.1-.9zm1.6 8.9v1.5h4.5v-1.5h-4.5zm13.1-9.7H103c.3.1.7.2 1.4.4.5.2 1 .3 1.2.4-.1.4-.2.8-.4 1.2-.1.4-.1.6-.1.7-.4 1.5-1.6 2.1-3.8 2.1H98c-2.7.1-4-1.1-3.8-3.6V1.2h10.5v7.4zm-6.5-4.4v1.5h2.6V4.2h-2.6zm3.5 5.2.1-.8h-3.7v.7c0 .6.4 1 1.1 1h1.4c.6 0 .9-.3 1.1-.9zM117.9.3v5.9h1.5v5.1h-1.5v4.4c.2-.1.5-.1 1-.1.4-.1.6-.1.8-.1v5.2c-.6.1-1.2.2-1.8.4v7.5c.1 2.5-1.1 3.8-3.6 4.1-1.3 0-2.4 0-3.4.1-.2-1.4-.5-3-1-4.9.7.1 1.3.1 1.8.1.9 0 1.4-.5 1.4-1.4V22c-.3 0-.6.1-1.1.3-.6.1-1.1.2-1.5.3l-.4-5.6c1.1-.1 2.1-.3 3-.5v-5.2h-2.3V6.2h2.3V.3h4.8zm3.3 11.3h7.5v-1.2h-8.3V1.6h22.1v8.8h-8.6v1.2h7.8V15h-7.8v1.2h9.4v3.4h-4.5l-1.1 1.9h4.2v3.6h-8.1v1.2h9.4v3.4h-9.4v3.1h-5.2v-3.1h-9.3v-3.4h9.3v-1.2h-8.1v-3.6h4.2l-1.1-1.9h-3.7v-3.4h8.6V15H121v-3.4zm3.4-6.7v2.2h2.1V4.9h-2.1zm4.3 14.8 1 1.9h3l1-1.9h-5zm1.6-14.8v2.2h2.1V4.9h-2.1zm7.8 0h-2.1v2.2h2.1V4.9z" style="fill:#949394"/></svg>