<svg xmlns="http://www.w3.org/2000/svg" width="166.5" height="38.6" style="overflow:visible;enable-background:new 0 0 166.5 38.6" xml:space="preserve"><path d="M13.3 3.4v5H9.7c-.5 2-1.1 3.9-1.7 5.8h5.2v23H8.9V35H7.3v2.8H2.5V24.1c-.2.2-.5.6-.8 1.1-.4.5-.7.9-.9 1.2-.1-.8-.2-2-.3-3.6-.2-1.8-.4-3.1-.5-3.9 2-3.1 3.4-6.6 4.2-10.5H.9v-5h12.4zM8.9 19.2H7.3v11.1h1.6V19.2zm28.4-5.1v4.4h-6.2v1.7h5.6v4.4h-5.6v1.9h5.6v4.2h-5.6v1.9h6.7v4.1H21.4v1.7h-5.5V24.7L14 26.4c-.1-2.2-.4-4.4-.8-6.7 3.9-3.4 6.4-6.9 7.7-10.5h-2.3V13h-4.5V4.4h8.3c0-.3.1-.8.3-1.6.1-.8.2-1.4.3-1.9l6.1.5c0 .2-.1.5-.2.8-.2.5-.4 1.2-.6 2.2h9.1v8h-4.8c-.3.5-.6 1.1-.9 1.7h5.6zm-15.7 4.3-.2.2v1.6h4.2v-1.7h-4zm-.2 6.1v1.9h4.2v-1.9h-4.2zm0 6.1v1.9h4.2v-1.9h-4.2zm5.3-21.4c-.1.2-.3.6-.5 1.1-.7 1.7-1.4 2.9-1.9 3.8h1.4c.6-1.4 1-2.4 1.1-3.1l5.3.5V9.2h-5.4zm16.9-1.9h15.9v3.3l1.6-2c.5.3 1.3.8 2.3 1.6 1.5.9 2.5 1.6 3.1 2L64 15.5c-1.4-1.2-2.9-2.4-4.5-3.6v.3H43.6V7.3zm1.1 6.1h13.8v4.2H44.7v-4.2zm0 5.5h13.8v4.4H44.7v-4.4zM60.8 25l2.8 1.1v-1.7H68L67 23l3.8-2.2.5.5c-.1-.4-.3-1.1-.5-2-.2-.8-.4-1.5-.5-1.9-1.6 2.3-3.8 4.4-6.7 6.4-.5-.6-.7-.8-.5-.6-1.2-1.5-2.2-2.6-3-3.4 5.3-3.2 8.1-7.3 8.4-12.2h-7.8v-5h20.6c-.2 6-.4 10.5-.5 13.3-.1 3.8-1.8 5.7-5.2 5.9h-1.4c-1.1.1-2.1.2-2.8.2.3.4.7 1 1.2 1.9.9 1.6 1.7 2.7 2.2 3.3L70.7 30c-.2-.5-.6-1.2-1.1-2-.4-.9-.8-1.6-1.1-2v6.4c-.1 1 .4 1.5 1.4 1.4h1.2c.8 0 1.3-.5 1.4-1.4.1-.2.2-.9.3-2 .1-.5.2-.9.2-1.1 1.4.4 2.7.9 4.1 1.6l-2.2-6.1 4.1-1.4c.2.7.6 1.7 1.1 3 1 2.8 1.7 4.7 2 5.8L78 33.8l-.5-1.6c-.1.4-.3 1-.5 1.9-.1.3-.2.6-.2.8-.7 2.5-2.3 3.7-4.8 3.6h-4.2c-3 0-4.5-1.6-4.5-4.7v-4.2c-.3.7-.7 1.7-1.1 3-.5 1.2-.9 2.2-1.1 2.8L58 34.2v4.4h-5V37h-3.4v1.6h-5V24.5H58v7.8c.1-.2.2-.5.3-.9 1.4-3 2.2-5.2 2.5-6.4zM45.3 1.6h12.5v4.2H45.3V1.6zm4.6 27.6v3h3.4v-3h-3.4zm26-21.7h-2.3c-.4 3.5-1.4 6.6-2.8 9.1h2.8c1.4.1 2-.5 2-1.9.1-.8.2-2.1.2-3.8.1-1.3.1-2.5.1-3.4zm14.3.6c.5.4 1.4 1 2.5 1.7 2.2 1.5 3.9 2.7 5 3.6l-3 3.8h2.8v11.4c1.2 1.7 2.9 2.7 4.8 3.1l-3-3.4c4.7-2.2 7.3-4.4 8-6.6h-8.6v-5.5h9.2v-3.1h-7.8V7.7h4.4c-.4-.6-1.1-1.7-2.2-3.3-.3-.5-.6-.9-.8-1.2l5.6-2.5c.6 1 1.6 2.5 2.8 4.4.4.5.7.9.8 1.1l-3.3 1.6h5c1.2-2.6 2.3-4.9 3.1-6.9l6.2 2c-1 1.7-2 3.3-3 4.8h4.8v5.5h-9.4v3.1h10.3v5.5h-10.8c-.2 1.2-.6 2.3-1.2 3.3l2.8-2.7c4.2 2.7 7 4.7 8.6 5.9l-3.3 3.8 4.7-.2c-.3 1-.7 2.4-1.2 4.2-.2.6-.4 1.1-.5 1.6-5.4 0-11.8-.1-19.1-.3H103c-4.1-.1-7-1.4-8.9-3.9-2.2 2.2-3.8 3.9-4.7 5.2l-2.3-7.2 3.9-3.3v-5.3h-3.8v-5.6h5.3c-1-.9-2.7-2.2-4.8-3.8-.5-.4-.9-.7-1.2-.9l3.7-4.5zm2-8.1c1.1.7 2.8 1.9 5 3.4 1.1.7 2 1.3 2.5 1.7L96 9.8c-.8-.6-2-1.5-3.6-2.8-1.7-1.2-2.9-2.2-3.8-2.8L92.2 0zm13.1 32h13.6c-.9-.9-2.5-2.2-4.7-3.9-1-.8-1.8-1.5-2.2-1.9-1.3 2-3.5 4-6.7 5.8zm26.3 6.1V21.9h6.4v8.8h7.7V19.2h-12.3v-15h6.4v8.9h5.9V.9h6.9v12.2h5.9V4.2h6.4v15h-12.3v11.4h7.7v-8.8h6.2V38h-6.2v-1.9H138V38h-6.4z" style="fill:#fff"/></svg>