<svg xmlns="http://www.w3.org/2000/svg" width="169.6" height="38.3" style="overflow:visible;enable-background:new 0 0 169.6 38.3" xml:space="preserve">
    <path d="M34.3 6c0-.3.1-.7.2-1.1.1-.9.2-1.6.2-2.1.4.2 1.1.4 1.9.6.5.2 1.5.6 2.8 1.1-.1 1.5-.3 2.9-.6 4.5-.7 3.1-2.2 4.5-4.4 4.4h-4c-2.7-.1-4.1-1.9-4.1-5.4v-.9h-5.1c0 4-2.4 6.7-7.3 8.1-.1-.1-.2-.3-.3-.6-.6-.9-1.1-1.7-1.3-2.2H10v5.1l3.3-.6c-.1 2.5-.1 4.5 0 6-1.1.1-2.2.3-3.3.6v9.3c.1 3.1-1.3 4.7-4.1 4.9-1.2.1-2.7.2-4.6.2-.1-.8-.3-1.9-.5-3.4-.3-1.2-.5-1.9-.5-2.4.8.1 1.7.1 2.5 0 .9.1 1.4-.4 1.3-1.6v-6c-1.2.3-2.4.6-3.6.8L0 18.8h.5c.9-.1 2.2-.3 3.6-.6v-5.9H.6V6.5h3.5V.3H10v6.2h3.5v3c1.9-.8 2.8-2.5 2.7-4.9V1.4h15.5v4.7c-.1 1.1.2 1.5.8 1.4h.8c.6.2.9-.3 1-1.5zm2.2 9.7v5.9c-1.9 3.6-4 6.4-6.2 8.4 2.3 1.1 5.1 1.9 8.4 2.5-.8 1.1-2 2.8-3.3 5.4-4.1-1.1-7.6-2.5-10.4-4.3-3.7 2-7.3 3.5-10.9 4.4-.2-.4-.5-1-.9-1.7S12 34.4 11 32.8c3.4-.7 6.4-1.7 9-2.8-1.8-1.8-3.5-3.8-5.1-6.2l3.6-2.5h-4v-5.5h22zm-16.2 5.5c1.4 2.1 3 4 4.9 5.5 1.9-1.7 3.4-3.5 4.6-5.5h-9.5zm24.1 4.3h38v4.6H73c3.4 1.1 6.5 2.1 9.5 3.2l-2.7 4.6c-3.6-1.5-7.2-2.9-10.8-4.3l2.4-3.5h-3.8V32c.2 3.9-1.6 5.8-5.4 5.7-1.3.1-2.9.2-4.9.2-.1-.3-.3-.8-.5-1.6-.2-1.2-.4-2-.6-2.5-3.1 1.6-6.2 3.1-9.3 4.4-.4-.6-.9-1.6-1.6-2.8-.5-.8-.9-1.5-1.3-1.9 2.4-.6 5.2-1.7 8.4-3.3h-8.1v-4.7zM45.2 6V1.1h36.5V6H71v1.7h9.7v10.8H46.1V7.8h9.5V6H45.2zm1.9 13.8h32.6v4.4H47.1v-4.4zm4.5-5.4h4V12h-4v2.4zm7.5 18.5c1.6 0 2.3-.7 2.2-2.2v-.6h-5.9l2.2 2.8h1.5zM61.3 6v1.7h4V6h-4zm0 6v2.4h4V12h-4zm13.8 0H71v2.4h4.1V12zm44.6 18.4c.2-1.1.4-2.4.5-4 2.3.7 4.3 1.4 6 2.1-.2 1.3-.5 2.8-.9 4.6-.1.3-.2.6-.2.8-.7 2.3-2.6 3.5-5.5 3.5H113c-3.3-.1-5-2-5.1-5.5v-5.5h-3.3c.1 5.9-4.1 9.9-12.5 12-1.1-1.9-2.3-3.8-3.8-5.7 6.4-1.2 9.6-3.3 9.5-6.3h-8.9v-5.7h36.2v5.7h-10.4v4c0 1.4.6 2.1 1.7 2.1h1.1c1.3-.1 2-.8 2.2-2.1zM103.9.3h6.6V4h14.2v9.8h-4v4.1H93.4v-4.1h-4.1V4h14.6V.3zm-8.2 9.2v2.8h22.8V9.5H95.7zm63.2-6.8 4.6-2.7c1.5 1.4 2.8 2.8 4.1 4.3l-3.2 1.9h4.9v5.7h-11.2c.1 3.6.4 6.6.9 9.2 1.3-2.3 2.6-5.1 4-8.2l5.4 2.5c-2.3 5.3-4.7 9.5-7.3 12.8.1.4.3.9.6 1.6.1.2.2.4.3.5.3.5.6.8.9.8.4 0 .7-.3.8-.9.3-1.3.6-3.1.9-5.5.6.3 1.5.7 2.7 1.1 1.1.3 1.8.6 2.2.8-.4 3-.9 5.4-1.4 7.3-.7 2.6-2.4 4-4.9 4.1-2.7 0-5-1.5-6.8-4.6-.1.1-.3.2-.6.3-1.4 1.3-3.3 2.8-5.9 4.7-1.2-1.6-2.5-3.2-4-4.7 3.2-2 5.9-4.1 8.1-6.3-1.2-4.2-1.9-9.3-2.2-15.3h-11.7v3.6h10.3c0 2.7-.1 6.3-.3 10.8-.1 4.1-1.9 6.2-5.4 6.3-1.2.1-2.6.2-4.4.2-.1-.8-.4-2.4-.8-4.7-.3 3-1.3 6.4-3 10.3-.5-.3-1.3-.8-2.2-1.6-1.4-.9-2.4-1.6-3.2-2.1 2-4.1 3-9.1 2.8-14.9V6.2h17.7v-6h6.2v6h4c-.9-1.1-1.9-2.2-2.9-3.5zm-18.7 18.2c0 .4-.1 1.1-.2 1.9 0 1.8-.1 3.2-.3 4.1h2.7c1.3.1 1.9-.5 1.9-1.7 0-.5.1-1.3.2-2.2v-2.1h-4.3z" style="fill:#de4143"/>
</svg>
