<svg xmlns="http://www.w3.org/2000/svg" width="211.7" height="38" style="overflow:visible;enable-background:new 0 0 211.7 38" xml:space="preserve"><path d="M10.3 37.3H4.1V21.4c-.1.2-.3.5-.5.8-.5.6-1.2 1.6-2 2.8C1 22.1.5 19.4 0 16.9 3.1 12.1 5.6 6.5 7.3 0l6.4 1.6c-.9 2.9-2.1 5.9-3.4 8.9v26.8zm.3-7.6c1.7-4.1 3.2-8 4.5-11.9-.6-.5-1.5-1.2-2.5-2.2-.9-.8-1.7-1.5-2.2-1.9 3-3.7 5.2-8.2 6.6-13.5l6.4.9c-.3 1.2-.7 2.4-1.2 3.6h15.5V10l-2.2 6.4-5.9-1.2 1.7-4.7H19.7c-.8 2-2 4-3.4 6.1l5.2 1.6c-.2.5-.5 1.4-.9 2.5-1.8 5-3.1 8.6-3.9 10.8H20c1.4.1 2-.5 1.9-1.9V12.3H28v18.8c.1 3.6-1.6 5.6-5.2 5.8h-2c-1.6.1-2.8.1-3.6.1-.1-.5-.3-1.5-.5-2.8-.2-1-.4-1.8-.5-2.3l-5.6-2.2zm23.3-13c.6 1.9 1.6 4.7 2.8 8.4.8 2.5 1.4 4.2 1.7 5.2l-6.1 1.9c-.4-1.2-1-3.2-1.9-5.9-1-3.6-1.8-6.3-2.3-8l5.8-1.6zm46 12.4c0 5-2.3 7.6-6.9 7.7-1.9.1-4.3.2-7.2.2-.1-.4-.2-1-.3-1.9-.2-1.2-.5-2.7-.9-4.2 1.2.1 3.1.2 5.6.2 2.3.2 3.4-.9 3.4-3.3v-6.6c.1-4.4.2-7.4.2-9.2h-5.5c-.6 1.7-1.4 3.3-2.2 4.8-1.6-.8-3.2-1.7-4.8-2.7v22.7h-6.1v-2.2h-4.5v2.3h-6.1v-31H49c.5-2.1.9-4 1.1-5.8l6.9.8c-.1.3-.2.7-.3 1.2-.2 1.1-.5 2.4-.9 3.8h5.6v6.6C63.4 8 65 3.9 66 0l6.2 1.4c-.1.5-.3 1.2-.6 2.2-.3 1-.6 1.8-.8 2.3h9.5c-.1 11.5-.3 19.2-.4 23.2zM50.7 11.9v5.5h4.5v-5.5h-4.5zm0 11.4v5.5h4.5v-5.5h-4.5zm16.9-7.2c.9 1.1 2.3 2.9 4.1 5.3.7 1 1.3 1.8 1.7 2.3L68 27.2c-2.2-3.3-4-6-5.5-8l5.1-3.1zM89.2 8c.4.3 1 .7 1.7 1.1 1.1.7 2.8 1.9 5 3.4l-3.4 4.2c-1.7-1.5-3.8-3.1-6.4-5L89.2 8zm23.4 7.5h5.5v1.2h4.4v4.1h-4.4v1.7h5.5v4.1h-8.8c2.5.6 5.2 1.2 8 1.9l-2 3.8h4.1c-.4.8-1 2.3-1.7 4.5h-12.7c-3.1 0-6-.1-8.6-.2-4.1-.1-7-1.3-8.8-3.6l-1.2 1.2c-1.7 1.8-2.7 2.9-3.1 3.4l-2.3-6.2 3.4-3.3V22h-3.1v-5h8.8v11.2c1 1.6 2.3 2.7 3.9 3.3l-1.7-3.1c.9-.2 2.3-.5 4.1-.9 1.9-.4 3.2-.7 4.1-.9h-9.1v-4.1h5.2v-1.7h-4.2v-4.1h4.2v-1.2h5.6v1.2h5.2v-1.2zM90.1.6c2.4 1.6 4.6 3.1 6.7 4.7l-3.4 4.1c-.7-.6-1.8-1.5-3.3-2.5-1.4-1.1-2.4-2-3.3-2.5L90.1.6zm19.3 9.1h-2l2.7.9c-.1.3-.2.8-.3 1.4-.2.3-.3.6-.3.8-.3 1.7-1.7 2.4-4.2 2.3H102c-3.1.2-4.6-1.2-4.4-4.2V1.2h11.9v8.5zm-6.1 22.5c4 .1 9.4.1 16.4 0-.7-.2-1.9-.5-3.4-.9-2.4-.7-4.2-1.3-5.5-1.7l1.7-3h-4.8l1.9 3.1c-.7.2-1.8.5-3.1.9-2.2.7-3.9 1.2-5 1.4.4.1 1 .2 1.8.2zM102 4.7v1.7h3V4.7h-3zm3.6 5.9c.1-.1.2-.3.2-.5.1-.2.2-.4.2-.5h-4v.8c0 .7.4 1.1 1.2 1.1h1.1c.8.1 1.2-.3 1.3-.9zm1.9 10.2v1.7h5.2v-1.7h-5.2zm15-11.1h-2c.3.1.8.3 1.6.5.6.2 1.1.4 1.4.5-.1.4-.3.9-.5 1.4-.1.4-.2.7-.2.8-.4 1.7-1.9 2.4-4.4 2.3h-3.6c-3.1.1-4.6-1.2-4.4-4.1V1.2h12v8.5zm-7.5-5v1.7h3V4.7h-3zm4.1 5.9.2-.9H115v.8c0 .7.4 1.1 1.2 1.1h1.6c.6 0 1-.4 1.3-1zm20-10.4v6.7h1.7v5.8h-1.7v5c.2-.1.6-.2 1.1-.2.4-.1.7-.2.9-.2v5.9c-.7.1-1.4.3-2 .5v8.6c.1 2.8-1.2 4.4-4.1 4.7-1.5 0-2.8.1-3.9.2-.2-1.6-.6-3.4-1.1-5.6.8.1 1.5.2 2 .2 1 0 1.6-.5 1.6-1.6V25c-.3 0-.7.1-1.2.3-.7.1-1.3.2-1.7.3l-.5-6.4c1.2-.1 2.4-.3 3.4-.6v-5.9H131V6.9h2.7V.2h5.4zm3.8 12.9h8.6v-1.4H142v-10h25.3v10h-9.8v1.4h8.9V17h-8.9v1.4h10.8v3.9H163l-1.2 2.2h4.8v4.1h-9.2V30h10.8v3.9h-10.8v3.6h-5.9v-3.6h-10.6V30h10.6v-1.4h-9.2v-4.1h4.8l-1.2-2.2h-4.2v-3.9h9.8V17h-8.6v-3.9zm3.9-7.6V8h2.3V5.5h-2.3zm4.8 16.8 1.1 2.2h3.4l1.1-2.2h-5.6zm1.9-16.8V8h2.3V5.5h-2.3zm8.9 0H160V8h2.3V5.5zm11.5 18.3v-5h37.5v5h-15.3v1.7h12.3V30h-12.3v1.9h15.6c-.6 1.7-1.1 3.3-1.4 4.8h-7c-3.9-.1-6.8-.2-8.8-.2-6.1 0-10.1-1.1-11.9-3.4-.8 1.6-2.6 3.2-5.2 4.8-1.2-1.4-2.6-2.8-3.9-4.4 4-1.9 6-5.1 6.1-9.5l5.8.8c-.1.5-.3 1.3-.5 2.3-.1.5-.2.9-.2 1.1 1 1.7 2.8 2.7 5.2 3.1v-7.7h-16zm3.9-6.5V1.4h29.7v15.9h-29.7zm6.3-11.1v1.4h17.2V6.2h-17.2zm0 6.8h17.2v-1.6h-17.2V13z" style="fill:#e4e762"/></svg>