<svg xmlns="http://www.w3.org/2000/svg" width="361.1" height="150.4" style="overflow:visible;enable-background:new 0 0 361.1 150.4" xml:space="preserve"><path d="m16.6 0 12 .5-1.9 3.6h39.9v8.8H20.7c-.7 1.1-1.6 2.2-2.7 3.3h43.8l-.5 15.3h7.1v9h-7.7c0 .7-.1 1.9-.3 3.6v3H66v9h-6.3c-.5 6.6-4.5 9.7-11.8 9.3h-6.3c-4 .2-6.9.3-8.8.3-.7-2.2-1.6-4.8-2.5-7.9 5.8.2 10.1.3 12.9.3 2.6 0 4.2-.6 4.9-1.9H19l-.3 2.7H6.4l2.7-18.3h-7v-9h8.2l1.4-9.3c-1.5 1.3-3 2.6-4.6 4.1C5.5 23 4 19.5 2.3 15.9c6.2-4.2 11-9.5 14.3-15.9zm9.8 44 3-3.6h-8.8l-.8 6.6h10.9l-4.3-3zm1.1-15.8 2.7-3.3h-7.9l-.8 6.6h11.2l-5.2-3.3zM43.1 44l-2.7 3h8.8c.2-.7.3-1.8.3-3.3.2-1.5.3-2.6.3-3.3H37.3l5.8 3.6zm1.1-16.4-3 3.8H50l.5-6.6h-11l4.7 2.8zM135 51.1c.2 8.4-3.8 12.8-12 13.1-2 .2-6.6.3-13.7.3-.5-3.1-1.4-6.7-2.5-10.9 3.5.2 7.4.3 11.8.3 3.6.2 5.4-1.5 5.2-4.9v-1.6H95.1c-.9 6-3.9 12.3-9 18.9-3.6-4-6.7-7-9-9 3.3-3.8 5.4-7.7 6.3-11.8 1.1-3.6 1.6-9.8 1.6-18.6V3.6h50v47.5zM96.1 13.7v6.6h27.6v-6.6H96.1zm0 16.9v6.6h27.6v-6.6H96.1zm110.4 5.2v7.7l-9.3 3h15.9v8.2h-25.4v1.4c.2 5.6-2.7 8.7-8.8 9-2.9.2-7.8.3-14.8.3-.4-2.6-1-5.3-1.9-8.2 3.5.2 7.1.3 10.9.3 2.2 0 3.2-.9 3-2.7h-29.3v-8.2h30.9l10.4-3h-35.8v-7.7h54.2zM175.3.3H186v4.9h27.1V14h-65.9V5.2h28.2V.3zm29.8 33.3h-50.6V16.1h50.6v17.5zm-40.2-10.1v3h29.8v-3h-29.8zm55.2 3h66.7v12.3h-66.7V26.5zm82.3 5.8 10.4 4.1c-1.1 2.9-3 8.2-5.7 15.9-2 5.3-3.4 8.9-4.1 10.9L292.8 58c2.6-6.4 5.8-15 9.6-25.7zM303.8 3c2.2 4.9 5 11.5 8.5 19.7l-10.7 4.1c-.7-1.8-2-5.1-3.8-9.8-1.8-4.6-3.1-7.9-3.8-10.1l9.8-3.9zm35.8 18.9c-.2 1.8-.3 3.6-.3 5.5.9 12 7.9 21.6 21.1 28.7-2.6 2.4-5.1 5.5-7.7 9.3-9.1-6-15.2-12.7-18.3-20-2.4 7.3-8.7 14.2-18.9 20.8-1.3-1.5-3.5-3.9-6.6-7.4l-1.4-1.4c12.6-6.9 19.2-14.9 20-23.8.5-3.1.8-7 .8-11.8h11.3zm18.9-13.1v9.6l-5 13.6-10.4-2.7 3.8-10.7h-20.2c-1.8 4.7-4.1 9.4-6.8 13.9-2.4-1.3-5.7-3-9.8-5.2 5.6-9.1 9.7-18.1 12-27.1l11.2 1.4c-.2.7-.5 1.9-1.1 3.6-.5 1.5-1 2.6-1.4 3.6h27.7zM5.7 97.9c3.3 1.8 7.4 4.6 12.3 8.2l-5.5 7.1h4.6v20.5c2.6 4 6.8 5.9 12.9 5.7 10.2.2 22.8.2 37.7 0-1.3 2.9-2.4 6-3.3 9.3H42.5c-5.3-.2-10.2-.4-14.8-.5-7.1-.2-12.2-2.4-15.3-6.6-2 1.8-4.6 4.6-7.9 8.5L.4 138.3l6.3-5.5v-10.4H1.1v-9.3h9.6c-1.6-1.3-4-3.1-7.1-5.5-1.6-1.3-2.8-2.2-3.6-2.7l5.7-7zm1.7-14.4c1.8 1.3 4.5 3 7.9 5.2 2 1.5 3.6 2.6 4.6 3.3l-6.3 8.2c-4-3.3-8-6.4-12-9.3l5.8-7.4zm25.7 33.3h19.7v12.6c1.6-.2 2.4-1.1 2.2-2.7v-32H31.2v17c.4 11.1-1.1 19.9-4.4 26.2-2.9-1.5-5.9-2.8-9-4.1 3.1-5.3 4.5-12.7 4.1-22.1V87h42.4v42.1c.4 5.3-2.2 8.1-7.7 8.5-1.3.2-3.5.3-6.6.3l-1.1-4.4H33.1v-16.7zm20.2-9v6.6H32.8v-6.6h5.7v-2.7h-5.2v-6.6h5.2v-3.3h8.8v3.3h5.2v6.6h-5.2v2.7h6zM41 123.1v4.1h4.1v-4.1H41zm45.9-38.8 10.7 3c-1.3 4.6-2.9 9-4.9 13.4v31.2c8.4-6.7 14-14.4 17-23h-14v-11h16.1V85.1h10.9V98h17v10.9h-15c3.1 9.3 8.8 17 17 23-2.4 3.8-4.6 7.2-6.6 10.1-5.1-5.1-9.2-10.8-12.3-17v24.6h-10.9v-24.3c-3.6 6.9-8 12.7-13.1 17.2-1.1-1.3-2.8-3.7-5.2-7.4-.4-.5-.6-1-.8-1.4v15.9H81.7v-29.5c-1.6 2.4-3.4 4.8-5.2 7.4-.2-1.1-.4-2.8-.5-5.2-.5-4.7-.9-8.2-1.1-10.4 4.9-8 8.9-17.2 12-27.6zm63.3 50.3h65.4v11.2h-65.4v-11.2zm3.9-45.7h57.4v11.5h-57.4V88.9zm3.2 22.7h51.1v11.2h-51.1v-11.2zm112.6 38v-4.1h-30.6v4.1h-11.8V87.8h54.4v61.8h-12zm-30.6-51.1v13.1h30.6V98.5h-30.6zm0 23.5v13.4h30.6V122h-30.6zm118.8-18.9v9.3c-1.3 9.5-3.8 16.9-7.7 22.1 3.1 2.7 6.7 5.2 10.7 7.4-.4.2-1 .7-1.9 1.6-2.4 2.7-4.1 4.8-5.2 6.3-3.8-2.4-7.1-5-9.8-7.9-2.9 2.7-6.3 5.5-10.1 8.2-.4-.5-1.1-1.6-2.2-3-1.5-2-2.6-3.5-3.3-4.4-1.1 2.6-2.6 5-4.6 7.4-1.5-2.2-2.9-4.2-4.4-6v4.6h-9.3v-22.1h-3c-.2 10.2-1.8 18.1-4.9 23.8-2.4-2-5.1-3.8-8.2-5.5 2.6-5.8 3.7-14.9 3.6-27.1V86.5h9.6v17.8h3.3V85.1h9.6v19.1h2.7v9h-15.6v4.6h12.3v20.5c3.1-5.5 4.6-13.5 4.4-24.1v-28h35.5v10.4h-25.7v6.6h24.2zm-20 31.8c-2.4-3.8-3.9-7.1-4.6-9.8-.5 7.1-1.9 12.8-4.1 17 3.4-2.5 6.3-4.9 8.7-7.2zm1.1-21.4h-5.5v5.5l5.5-5.5zm.3 0c.7 4.7 2.2 9 4.4 12.9 1.8-3.8 3-8.1 3.6-12.9h-8z" style="fill:#6051a0"/></svg>