<svg xmlns="http://www.w3.org/2000/svg" width="366.3" height="150.4" style="overflow:visible;enable-background:new 0 0 366.3 150.4" xml:space="preserve"><path d="M27.9 41.3h11.5v3.3h26v8.2H41.3c2.7 2.4 11.2 3.7 25.4 4.1-.9 1.3-1.9 3.2-3 5.7-.5 1.3-1 2.2-1.4 2.7-14.9-.9-24.6-3.5-29-7.7-4.2 3.6-13.8 6.5-28.7 8.5-1.5-3.3-3-6.1-4.6-8.5 14.2-.9 22.6-2.6 25.2-4.9H1.6v-8.2h26.2c.1-.8.1-1.9.1-3.2zM4.4 5.2h20c.5-2 1.1-3.7 1.6-5.2l13.1.8c-.5 1.1-1.3 2.6-2.2 4.4h25.4v37.2H52V13.1H14.8v23.8c3.6-1.3 6.9-2.7 9.8-4.4h-8.5v-6H21c-.4-.2-.7-.5-1.1-1.1-1.1-.7-2-1.4-2.7-1.9l2.5-2.2h-2.5c-.2-.4-.4-.9-.5-1.6-.2-.5-.6-1.9-1.4-4.1 12-.4 23.3-.7 33.9-1.1l1.1 6h-1.9c-.9.2-1.6.3-2.2.3l3.6 3c-.4.2-.8.5-1.4 1.1-1.1.7-1.9 1.3-2.5 1.6h4.6v6h-9c1.5.5 3.6 1.4 6.3 2.5 1.8.7 3.2 1.3 4.1 1.6l-4.1 5.5c-2.9-1.6-6.2-3.3-9.8-4.9v3.6h-9v-4.1c-3.5 2.6-7.2 4.6-11.2 6 0-.2-.1-.4-.3-.5-1.1-2-2-3.4-2.7-4.1v4.4H4.4V5.2zm23.2 18.9-3 2.5H29v-5.2h-4.9c.2.2.5.4.8.5.9.7 1.8 1.4 2.7 2.2zm12 0c1.5-1.1 3-2.2 4.6-3.3h-3c-1.5.2-2.6.3-3.3.3v5.5h3.8l-2.1-2.5zm1.4 8.4h-3v3.3l3-3.3zm61.9 6.3h11.5v2.7h26v8.2h-24.9c2.7 3.5 11.6 5.4 26.5 5.7-.7 1.3-1.6 3.2-2.7 5.7-.9 2-1.6 3.5-1.9 4.4-13.9-1.3-23.3-4.3-28.4-9-4.7 4-14.3 7.2-28.7 9.6-.4-.9-1.1-2.4-2.2-4.4-1.1-2.6-1.9-4.3-2.5-5.2 14.2-.7 22.5-3 24.9-6.8h-23v-8.2h25.2c0-.4.1-.8.3-1.4-.1-.6-.1-1.1-.1-1.3zM77.8 7.1h13.9c-.5-.9-1.4-2.2-2.5-3.8-.5-.9-.9-1.5-1.1-1.9l12-1.4c1.5 2 2.8 4.4 4.1 7.1h9.3c.5-.9 1.3-2.1 2.2-3.6.9-1.8 1.5-3 1.9-3.6l12 1.4c-.2.4-.5.9-1.1 1.6-.4.5-1.3 1.9-2.7 4.1H140v8.2h-25.7v3h22.1v8.2h-22.1v2.7h26.8v8.5H76.4v-8.5h26.5v-2.7h-21v-8.2H103v-3H77.8V7.1zM161.7.5h10.1v13.7h3.8V24h-3.8v10.4c1.1-.4 2.4-.6 3.8-.8 0 5.3.1 8.8.3 10.7-.7.2-1.6.4-2.7.5-.5.2-1 .3-1.4.3v20.8h-10.1V47c-1.8.4-4.6.9-8.2 1.6-.9.2-1.6.4-1.9.5l-.8-11.5c3.5-.5 7.1-1.1 10.9-1.6V24h-3c-.2.9-.4 2.2-.5 3.8-.4 1.8-.6 3.2-.8 4.1-.9-.2-2.4-.6-4.4-1.4-1.3-.4-2.1-.5-2.5-.5 1.5-7.1 2.4-15.1 2.7-24.1l6.6.5c-.2 2.7-.5 5.3-.8 7.7h2.7V.5zm15.1 20.6H191v-4.4h-11.8V7.4H191V.5h10.7v6.8h12v9.3h-12V21h15v9.3h-39.9v-9.2zm1.3 27.3 5.5-4.4h-6v-9.6h22.1v-3.3h10.7v3.3h5.7V44h-5.7v10.7c.2 6.9-2.7 10.4-8.8 10.4-2.9.2-6.7.3-11.2.3-.5-2.9-1.2-5.9-1.9-9l-2.2 1.6c-1.1-1.3-1.5-1.6-1.1-1.1-2.9-3.7-5.2-6.5-7.1-8.5zM194 52l-4.6 3.8h6.6c2.7 0 4-1.3 3.8-3.8v-8h-13.4c2.7 2.6 5.2 5.2 7.6 8zM244.3.5l12.9.5c-.2.2-.4.5-.5 1.1-.4.5-.9 1.4-1.6 2.5h23.8v8.8l-4.9 5.2h12.3v24.9c2.7.9 4.7 1.6 6 1.9-.5 4.2-1.2 7.7-1.9 10.4-1.5 5.3-5.7 7.8-12.9 7.7h-33.1c-8.9.4-13.2-3.6-12.9-12v-26L229 23c-1.6-1.5-2.8-2.6-3.6-3.3C233 14.8 239.3 8.4 244.3.5zM280.6 50c.4-.9.6-2.4.8-4.4H242v3.6c-.4 3.5 1.3 5 4.9 4.6h28.2c3.3.3 5.2-1 5.5-3.8zm-38.5-21.8v7.9h11.5v-7.9h-11.5zm21.8-14h-16.4c-1.3 1.6-2.6 3.1-4.1 4.4h16.4l4.1-4.4zm11.5 14h-11.5v7.9h11.5v-7.9zm38.9 37.4h-9.6V36.4c-1.1 2.2-2.3 4.3-3.6 6.3-.5-4.9-1.3-9.8-2.2-14.5 3.5-6.9 6.5-16.1 9-27.6l9.6 2.5c-.7 3.8-1.8 7.7-3.3 11.5v51zm25.7-38h-12.6v4.1h10.7v9h-10.7v4.4H339v9h-11.5v11.5h-9.6V3H340v24.6zM327.5 12v6.6h4.4V12h-4.4zm36.1 17.5V38c-1.5 6.6-3.5 11.6-6 15 2.4 1.6 5.3 3.1 8.8 4.4-2 3.1-3.7 5.9-5.2 8.5-3.8-2.2-7.1-4.4-9.8-6.6-2.9 2.4-6.6 4.7-10.9 7.1-.4-.4-.8-1.1-1.4-2.2-1.8-2.7-3.2-4.8-4.1-6.3 4.2-1.5 7.5-3 9.8-4.6-2.2-3.3-4-7.3-5.5-12l5.5-2.7h-5.2v-9h24zm-21.1-2.4v-9.3H354V12h-11.5V3h20.8v24.1h-20.8zM354 38.6h-6.6c1.1 3.3 2.4 6 3.8 8.2 1.3-2.2 2.2-5 2.8-8.2zM2.2 96.3l5.8.6c-.7 9.1-1.5 17-2.2 23.5l-5.5-.8c1.1-10.1 1.8-17.8 1.9-23.3zm16.2-11.8v12.3c2.4 1.1 4.9 2.2 7.7 3.3l-3.8 9.3c-.5-.2-1.5-.6-2.7-1.4-.5-.2-.9-.4-1.1-.5v42.4H8.3V84.5h10.1zm45.4 2.2v10.1c-3.3 4.4-6.7 8-10.1 10.9 3.8 1.1 8.4 2 13.7 2.7-1.5 2.9-2.8 6.3-4.1 10.1-8.8-2-15.3-4.2-19.7-6.6-5.1 2.7-11.2 5-18.3 6.8-1.5-3.1-3.2-6.3-5.2-9.6 4.4-.5 9.1-1.7 14.2-3.6-2.7-2.6-5.6-5.6-8.5-9l3.6-2.5h-5.7v-9.6h40.1zm-14.5 30.9v5.7h14.2v9.6H49.3v5.7h17.2v9H20.6v-9h17.5v-5.7H23.6v-9.6h14.5v-5.7h11.2zM36.1 96.3c2.4 2.7 4.9 4.9 7.7 6.6 3.1-2.2 5.6-4.4 7.7-6.6H36.1zM85.5 84l10.9.8c-.4.5-.9 1.5-1.6 2.7-.2.4-.3.6-.3.8h14.2v6.3c2.7-4 4.8-7.6 6.3-10.7l10.7.8-1.6 3.6h17v7.9h-11.5l1.9 1.9c.7.5 1.8 1.6 3.3 3.3l-4.4 3.6h8.5v29.3c.5 6.2-2.5 9.3-9 9.3h-5.7c-.4-1.1-1.1-3.8-2.2-8.2v14.5h-9.6v-44.8h14.5c-1.6-1.6-3.5-3.6-5.5-5.7l3.6-3h-5.7c-2.2 3.1-4.4 6-6.6 8.8-2-1.6-4.6-3.5-7.7-5.5.9-.9 1.7-2 2.5-3.3h-9.3l4.6 4.6-4.1 3.6h10.7v26.8h-5.7c1.3 1.8 3 4.6 5.2 8.2 1.3 2.2 2.3 3.7 3 4.6l-8.5 4.4-2.7-5.2c-9.5 2.6-16.6 4.6-21.3 6l-3-7.9c1.1-.4 2.1-.6 3-.8v-36.1h1.9l-2.2-2.2-4.1-4.1c4.4-4.3 7.9-9 10.5-14.3zm3.8 12.3c-2 2.7-4.4 5.5-7.1 8.2h12.6c-1.5-1.6-3-3.3-4.6-4.9l3.6-3.3h-4.5zm-.3 15.3v3h11v-3H89zm0 12.3h11v-2.7H89v2.7zm7.1 12.3-1.4-2.7 5.5-2.2H89v6.8l7.1-1.9zm25.7-22.1v20.8h4.4c2.2 0 3.2-.9 3-2.7v-18h-7.4zM176.6 84h11.2v14.8l22.4-4.9c-.4 11.9-.6 19.8-.8 23.8-.2 4.2-1 7.1-2.5 8.8 3.3 1.1 6.2 1.9 8.8 2.5-.4 4.4-1 8.3-1.9 11.8-1.3 5.1-5.7 7.7-13.1 7.7h-30.4c-9.7.2-14.4-4.4-14.2-13.7v-18.3l-5.7 1.1-1.4-10.1 7.1-1.6V91.4h11.2v11.8l9.3-1.9V84zm22.4 22.4-11.2 2.7v25.7h-11.2v-23.2l-9.3 2.2v18c-.4 4.7 1.7 6.8 6.3 6.3h24.6c3.6.2 5.6-1 5.7-3.6.4-1.8.6-3.8.8-6-1.3.5-3.1.9-5.5 1.1-1.8.2-4.7.3-8.8.3-.5-3.1-1.5-6.5-2.7-10.1 2.9.2 5.2.3 6.8.3 2.7.4 4.1-1 4.1-4.1.3-1.5.4-4.7.4-9.6zm64.7-22.1 10.9 1.4c-.2 1.3-.7 3.1-1.6 5.5-.4 1.3-.6 2.2-.8 2.7H290v10.4h-3.3c-1.3 11.5-3.9 20.6-7.9 27.3 3.1 2.9 7.1 5.7 12 8.2-2.4 3.1-4.6 6.4-6.6 9.8-4.9-3.3-9-6.4-12.3-9.3-3.5 3.1-7.8 6.5-13.1 10.1-1.8-2.7-3.6-5.3-5.2-7.7-.9 3.1-3.3 4.8-7.1 5.2-2.7 0-5.7.1-8.8.3-.5-2.6-1.1-5.1-1.6-7.7-.7 1.6-2.2 4.5-4.4 8.5.2-.5-.1-.1-.8 1.4-1.5-1.8-4-4.6-7.7-8.2 2.6-4.4 4.3-8.3 5.2-11.8.7-3.5 1.2-8.8 1.4-16.1l.3-10.7h-5.5v-9.8H235v-9.3h10.7v9.3h10.7v9.8h-16.1v6.3h13.1c4.4-7.2 7.9-15.8 10.3-25.6zm-18.9 35.2h-5.2c-.5 9.3-1.6 15.7-3 19.1h4.4c2 .2 3.1-.9 3.3-3.3.3-6.3.5-11.6.5-15.8zm9.3 19.7v.3c4.9-2.9 8.7-5.6 11.2-8.2-2.4-4-4-8.4-4.9-13.1l-2.2 3-3.3-6c-.1 10-.4 18-.8 24zm13.7-35-.5 1.4c1.1 6.6 2.7 12.1 4.9 16.7 2.2-4.7 3.6-10.8 4.4-18h-8.8zm94.9-1.1v9.3c-1.3 9.5-3.8 16.9-7.7 22.1 3.1 2.7 6.7 5.2 10.7 7.4-.4.2-1 .7-1.9 1.6-2.4 2.7-4.1 4.8-5.2 6.3-3.8-2.4-7.1-5-9.8-7.9-2.9 2.7-6.3 5.5-10.1 8.2-.4-.5-1.1-1.6-2.2-3-1.5-2-2.6-3.5-3.3-4.4-1.1 2.6-2.6 5-4.6 7.4-1.5-2.2-2.9-4.2-4.4-6v4.6h-9.3v-22.1h-3c-.2 10.2-1.8 18.1-4.9 23.8-2.4-2-5.1-3.8-8.2-5.5 2.6-5.8 3.7-14.9 3.6-27.1V86.5h9.6v17.8h3.3V85.1h9.6v19.1h2.7v9H312v4.6h12.3v20.5c3.1-5.5 4.6-13.5 4.4-24.1v-28h35.5v10.4h-25.7v6.6h24.2zm-20 31.8c-2.4-3.8-3.9-7.1-4.6-9.8-.5 7.1-1.9 12.8-4.1 17 3.4-2.5 6.4-4.9 8.7-7.2zm1.1-21.4h-5.5v5.5l5.5-5.5zm.3 0c.7 4.7 2.2 9 4.4 12.9 1.8-3.8 3-8.1 3.6-12.9h-8z" style="fill:#e4e762"/></svg>