<svg xmlns="http://www.w3.org/2000/svg" xmlns:xlink="http://www.w3.org/1999/xlink" width="450.2" height="280.6" style="overflow:visible;enable-background:new 0 0 450.2 280.6" xml:space="preserve"><style>.st0,.st1{clip-path:url(#SVGID_2_);fill:#8949ff}.st1{fill:#f1ff53}</style><defs><path id="SVGID_1_" d="M0 0h450.2v280.6H0z"/></defs><clipPath id="SVGID_2_"><use xlink:href="#SVGID_1_" style="overflow:visible"/></clipPath><path class="st0" d="m10.9 79-.2-.2-.1-.4c.2-1.9 0-4.6-.3-6.3l.1-.4.2-.3.3-.2 3.6-.7.3.1-.3-.5v-.4l.1-.3.2-.3-2.2 1.2-.7-.2-2-3.9c-.1.9-.2 1.8-.4 2.7-.1.5-.3.8-.5.9-.3.2-.4.2-.6.2H8l-2.9-.8-.3-.6c.7-2.2 1.1-4.8 1-7.3L3 62.8l-.4.1-.3-.1-.3-.2L.6 60v-.4l.1-.3.2-.3 3-1.6.8-.4-1.4-2.6V54l.1-.3.2-.3 2.8-1.6h.4l.4.1.3.2 1.4 2.5 2.6-1.5h.4l.4.1.3.2L14 56v.4l-.1.3-.3.3-2.7 1.4.4.7.2-.5.2-.2.3-.2.3-.1c.9.1 2.3.6 3.4 1.1L13 54.4 11.1 51l-.1-.3.1-.3.3-.3 3.4-1.8 3.9-2.2 3.5-2.1h.4l.3.1.3.2 1.8 3.4 4.1 7.4 2.1 3.7v.4l-.1.3-.2.3-1.3.7c2 .4 4.4 1.2 6.1 2l.3.5.1.3v.3l-1.8 3.5-.3.3-.3.1h-.4c-.8-.5-1.7-.9-2.5-1.3.5 1.4.5 2.5.1 3.4-.6 1.4-1.6 2.4-6.7 5.2-2.6 1.4-3.9 1.9-4.8 1.9-1.2 0-1.7-.8-2.2-1.6L16.1 73l-.6-1c.3 1.9.5 4.1.4 6.1l-.1.3-.2.2-.3.1-3.9.4-.5-.1zM21 71.1l1.2-.6c2.5-1.4 3-1.7 3.2-2.3.2-.4.1-.8-.3-1.7l-1.4 2.8-.4.3-.3.1-.3-.1c-1-.6-2.1-1.1-3.5-1.5.2 0 1.8 2.9 1.8 3m-4.7-3.3-.2.7 2-1.1h.1V67l.8-1.4-1.9-3.7-.6-1.1-1 2.2-.2.2-.3.2h-.5c-.3-.2-.7-.4-1.2-.6l3 5zm6.6-3.5c.8.2 1.6.5 2.3.8l.3.4v.1l2.8-.3-1.2-.3-.4-.3-.1-.3V64l1.4-2.5-.9.5-3.7 2-.5.3zm-1-4.1 3.2-1.8-.3-.5-3.2 1.8.3.5zm-2.3-4.1 3.2-1.8-.3-.5-3.2 1.8.3.5zm-2.2-4 3.2-1.8-.2-.4-3.2 1.8.2.4z"/><path class="st1" d="m22.5 44.5.3.1 1.8 3.4 4.1 7.5 2.2 3.7-.1.3-3.8 1.9-3.9 2.1-1.6.9c1.2.2 2.3.6 3.4 1.1l.1.3-1.7 3.2-.3.1c-1.4-.8-3-1.4-4.3-1.7l-.1-.3 1-1.7-.1-.1-2-3.8-4.1-7.5-1.9-3.3.1-.3 3.4-1.8 3.9-2.2 3.6-1.9zm-5.3 8.3 4.1-2.2-.7-1.3-4.1 2.2.7 1.3m2.2 4 4.1-2.2-.7-1.3-4.1 2.2.7 1.3m2.3 4 4.1-2.2-.8-1.4-4.1 2.2.8 1.4M6.6 52.2l.4.1 1.7 3h.1l2.9-1.7.4.1 1.4 2.6-.1.3-3.1 1.6h-.1l1.1 2 .6-1.4.3-.2c1.1.2 2.7.8 3.9 1.3l.1.3-1.1 2.5-.3.2c-.8-.4-1.7-.8-2.6-1.1l3.6 6.2-3.6 2-2.9-5.6c0 1.6-.1 3.2-.5 4.5-.1.3-.2.5-.3.6h-.2c-.1 0-.2 0-.3-.1l-2.9-.8c.9-2.6 1.2-5.7 1-8.3l-.6.3-2.9 1.7-.3-.1L1 59.7l.1-.3 3-1.6 1.3-.7-1.7-3 .1-.3 2.8-1.6M29.2 61c2 .3 4.4 1.1 6.3 2.1l.1.3-1.8 3.5-.3.1c-2-1.1-4.3-2.2-6.2-2.6l-.1-.3 1.7-2.9.3-.2m.5 4.5c.2 0 .3.1.4.4.5 1.2.7 2.5.3 3.5-.5 1.2-1.3 2.1-6.5 5-2.3 1.3-3.7 1.9-4.6 1.9-.8 0-1.3-.5-1.7-1.3l-1.1-2.1-1.6-2.9.1-.3 3.4-1.9.3.1 1.8 3.3c.2.3.2.4.4.4s.7-.2 1.6-.7c2.5-1.4 3.1-1.8 3.4-2.5.3-.6.1-1.2-.4-2.4l4-.4c.1 0 .2-.1.2-.1m-15.1 5.6.2.2c.5 2.1.7 4.5.6 6.8l-.2.2-3.9.4-.2-.2c.2-1.9 0-4.6-.3-6.4l.2-.3 3.6-.7m8.1-27.6-.7.1-3.6 2.1-3.9 2.1-3.4 1.8-.5.7-.1.3.1.7.8 1.3h-.3L9 53.9l-1.2-2.1-.6-.5-.4-.1-.7.1-2.8 1.6-.5.5-.1.3.1.8L4 56.7l-.4.2-3 1.5-.5.6-.1.4.1.8 1.4 2.6.6.5.3.1.8-.1 2-1.2c0 2.2-.4 4.4-1 6.3l.8 1.2 2.9.8c.1 0 .3.1.6.1.2 0 .5-.1.7-.2.6-.3.7-1 .8-1.2.1-.4.2-.7.2-1.1l1.2 2.4.5.1-1.1.2-.6.4-.2.3-.1.7c.3 1.6.4 4.2.3 6.1l.2.7.2.2.9.3 3.9-.4.6-.3.2-.2.3-.7c0-1.1 0-2.3-.1-3.5l.4.7c.5.9 1.2 1.8 2.6 1.8 1.1 0 2.4-.5 5.1-2 5.2-2.9 6.3-3.9 7-5.5.3-.8.4-1.6.2-2.7.5.3 1 .5 1.5.8l.9.1.3-.1.5-.5 1.8-3.5.1-.6-.1-.3-.7-.3c-1.4-.7-3.2-1.4-4.9-1.8l.1-.1.5-.6.1-.3-.1-.8-2.2-3.6-4.1-7.4-1.8-3.4-.6-.6-.3-.1zm-9.5 14.3.6-.3.2-.3.6 1c-.5-.2-.9-.3-1.4-.4m1.4 6h.8l.3-.2.4-.5.6-1.3.1.2 1.8 3.4-.6 1.2v.3l-1.1.6-2.3-3.7zm9.6.3 2.7-1.5-.6 1-.1.8.1.3.2.2-.8.1-.3-.4c-.4-.1-.8-.3-1.2-.5m-2.9 6.3-.9-1.4c.7.3 1.3.6 1.9.9-.1 0-.2.1-.3.1-.2.1-.5.3-.7.4"/><path class="st0" d="m39.3 64.4-.4-.2-.2-.2-.1-.3c.3-2.4.3-4.5 0-6.1l.1-.4.2-.2.4-.2 3.7-.3.2.1-.6-1.6v-.4l.1-.3.3-.3 3.6-1.6h.1l.1-.3.2-.3-1.5.7-.7-.3-2.8-6.6-1.5-3.3-1.2.6c-.5 2.7-1.2 5.2-2 7.1-.1.4-.3.6-.6.7-.1.1-.3.1-.4.1-.2 0-.3 0-.5-.1l-3.8-1-.3-.7c1.8-3.5 2.9-8.3 2.8-12.1l.2-.4.2-.2.3-.1 4-.3.4.2.2.2.1.3v1.1L50 33.2l4.5-2.1h.3l.2.1.3.3 1.3 3v.4l.1.1-.3.2-4.6 2-6.6 3 .1.2 4.4-2 4.4-2.1h.3l.2.1.3.3 1.3 2.9v.4l-.1.2-.1.2-4.5 1.9-4.4 2 .2.3 4.9-2.2 4.4-2.1h.3l.2.1.3.3 1.3 2.9v.4l-.1.2-.3.2-4.5 1.9-4.7 2.1.3.6c1.5.3 2.9.8 4.6 1.5l.3.4v.3l-.1.3-.1.1h2.3c-.3-.1-.6-.3-.9-.4l-.2-.2-.1-.3.1-.4 1.8-2.9.3-.2.3-.1h.3c2 .6 4.5 1.7 6.5 3l.2.4v.3l-.1.3-1.9 3.5-.3.2-.4.1-.4-.1c-.8-.6-1.6-1.2-2.5-1.7.3 1.3.3 2.3-.2 3.2-.6 1.5-1.5 2-7.2 4.6-2.2 1-3.4 1.4-4.3 1.4-1.4 0-2-.9-2.4-1.9L43.9 58c.2 1.8.2 3.6.1 5.8l-.2.3-.2.2-.3.1h-4zm9.9-7.7c0 .1.1.2.1.2.2 0 .7-.3.9-.4 2.9-1.3 3.3-1.6 3.6-2.2.1-.2 0-.6-.3-1.5l-1.3 2.1-.4.2h-.3l-.3-.1c-1.3-.8-2.5-1.4-3.6-1.8l1.6 3.5z"/><path class="st1" d="m54.8 31.5.2.1 1.3 3-.1.2-4.6 2-7.1 3.2.5 1.1 4.9-2.2 4.4-2.1.2.1 1.3 2.9-.1.2-4.5 1.9-4.9 2.2.6 1.2 5.3-2.4 4.4-2.1.2.1 1.3 2.9-.1.2-4.5 1.9-5.2 2.4.6 1.3c1.7.3 3.1.8 4.7 1.6v.3l-2 3.3h-.3c-1.6-1-3-1.6-4.5-2l.2-.4 1.2-1.7-3.1 1.3-2.8-6.6-1.7-3.7-1.9.9c-.4 2.7-1.1 5.3-2 7.3-.1.3-.3.4-.4.5h-.2c-.1 0-.2 0-.3-.1l-3.8-1c1.9-3.7 2.9-8.7 2.8-12.3l.2-.2 4-.3.2.2v1.9l11.2-5 4.4-2.1zm3 16.1c2 .6 4.4 1.7 6.3 2.9v.3l-1.9 3.5-.3.1c-1.9-1.5-4.3-2.8-6.2-3.5l-.1-.3 1.8-2.9.4-.1m-3.9 4.7h4c.4 0 .5.1.5.4.4 1.4.5 2.5 0 3.5-.5 1.3-1.2 1.8-6.9 4.4-2 .9-3.3 1.3-4.1 1.3-1 0-1.5-.5-2-1.6l-1-2.4-1.4-3.1.1-.3 3.6-1.6.3.1 1.8 3.9c.2.4.3.5.5.5s.6-.1 1.2-.4c2.8-1.3 3.5-1.7 3.9-2.4.2-.5 0-1-.5-2.3m-10.8 4.5.2.3c.4 2.3.4 4.3.2 6.7l-.2.2-3.9-.1-.2-.2c.2-2 .3-4.3 0-6.3l.2-.2 3.7-.4M55 30.5l-.7.1-4.5 2.1-9.7 4.4v-.3l-.2-.6-.1-.2-.9-.4-4 .3-.5.2-.2.2-.4.8c.1 3.6-1 8.5-2.7 11.8l.6 1.4 3.8 1c.2 0 .4.1.6.1.2 0 .4 0 .6-.1.4-.2.7-.5.9-1 .8-1.9 1.5-4.3 2-7l.5-.2 1.3 2.8 2.8 6.6.6.2-2 .9-.5.6-.1.3v.8l.3.7-3.1.3-.7.4-.2.2-.2.7c.2 1.6.2 3.7 0 6l.2.7.2.2.8.4 3.9.1.7-.2.2-.2.3-.7c.1-1.1.1-2 .1-3 .5 1 1.2 2 2.8 2 1 0 2.3-.4 4.6-1.4 5.8-2.6 6.7-3.2 7.4-4.9.3-.7.5-1.5.4-2.4.5.3 1 .7 1.5 1.1l.8.2.3-.1.7-.5 1.9-3.5.1-.6v-.3l-.5-.7c-2-1.3-4.5-2.4-6.6-3h-.6l-.3.1-.5.4-1.8 2.9-.1.7-.5-.7c-1.6-.7-2.9-1.2-4.4-1.5l4.2-1.9 4.4-1.9.5-.5.1-.2v-.8l-1.3-2.9-.6-.6-.2-.1h-.2v-.5l-1.3-2.9-.2-.2 1.3-.6.5-.5.1-.2V34l-1.3-3-.6-.6-.3.1zm-.2 20.8zm-1.6 3.1.2-.4v.1c0 .1-.1.2-.2.3m-3.6 1.9-.9-2c.8.3 1.6.8 2.4 1.3-.3.1-.7.3-1.1.5-.1 0-.3.1-.4.2"/><path class="st0" d="M71.5 52.8c-.1 0-.3 0-.4-.1l-3.8-1.5-.3-.4c0-3.7-.9-7.6-2.9-12.8l-2-5.2-1.7-4.2v-.4l.1-.3.3-.3 4.7-1.7 5.4-2-.6-1.5V22l.1-.3.3-.3 3.8-1.4h.4l.3.1.3.3.5 1.6 4.8-1.8 4.6-1.8h.4l.3.1.3.3 1 2.8v.4l-.1.3-.3.2-4.1 1.5.1.2.8-.3 3.1-1.3h.4l.3.2.2.3.9 2.3v.4l-.2.2-.3.3-1.2.4h.1l.3.3.6 1.6.3-.4 1.8.2c.4.1.7.2.9.7.4 1.2.5 2 .1 2.7-.4.7-1.1.9-1.9 1.3-.8.3-1.4.4-1.8.4-.3 0-.5 0-.7-.1l.2.4-.3.7-2.5 1 2.8.4.3.2.2.2.1.5c-.8 2-1.5 3.9-2.3 5.7.5-.2 1.1-.5 1.6-.8-.2-.1-.3-.1-.4-.2l-.3-.4v-.3l.1-.4 1.8-2.5.3-.2.3-.1h.3c2.5.9 4.9 2.2 6.4 3.2l.2.3.1.3-.5.6-1.9 2.9-.3.2h-.3l-.4-.1H92l-1.2-.9c-5 2.6-10 4.9-16.3 7.6h-.3l-.3-.1-.3-.2-1.4-2c.1.9.1 1.7 0 2.6 0 .3-.2.6-.5.7l-.2.1zm-1.2-12.5c.9 2.8 1.5 5.3 1.7 7.6l.1-.1c2.2-.8 4.1-1.6 5.8-2.3-1.7-.4-3.5-.8-5.2-.9l-.4-.3-.1-.2v-.4l.7-2.9.2-.3.2-.2.3-.1c.5 0 1 .1 1.6.2.2-.6.4-1.3.5-2l-2.2.8-.4-.2-.5-1.6c0 .7 0 1.4-.1 2.1 0 .2-.1.6-.6.8h-1.6zm10.1 1.2c.7-1.9 1.4-3.8 1.9-5.6l.2-.3.1-.1-.1-.1-.7-2c.1 1 0 1.9-.2 2.7 0 .2-.2.5-.5.7H81l.2.2.1.4c-.4 1.3-.8 2.6-1.3 3.8 0 .2.2.3.4.3m-12.1-6.8c-.1-.2-.1-.4-.2-.7v-.2h-.2l.4.9zm2.4-1.9h.2-.2zm6.8-2.4.3.3c0-.1 0-.2-.1-.2l.1-.4-.3-.1-.1.2-.1.1.2.1zm-10.8-.1.2-.2 2.7-.9-.1-.2-2.8 1.3zm13.2-.9.5-.1v-.1l-.5.2zm-6.5-1.6 2.3-.9h.4l.2.1.1-.2.3-.3 2.2-.7-.1-.2-5.4 2.2z"/><path class="st1" d="m85.7 18.9.3.1 1 2.8-.1.2-4.7 1.7.4 1.2 1.3-.5 3.1-1.3.3.2.9 2.3-.2.3-3.1 1.1-1.3.5.4 1 2.3 5.6-3.3 1.2-2-5.8-.4-1-2.6 1.1-.3-.2-.9-2.3.1-.3 2.7-.9-.4-1.2-6.5 2.4.4 1.2 2.8-1.1.3.2.9 2.3-.1.3-2.8 1 .4 1.1 2.2 5.3.1-.5.2-.2 3.5.5.2.2c-.5 1.6-1 3-1.6 4.3.5.2 1.1.3 1.6.5.8-2.1 1.5-4.2 2.1-6.1l.3-.2 3.6.5.2.2c-.9 2.4-1.9 4.7-2.9 6.9 1.3-.6 2.6-1.2 3.8-1.8-.5-.2-1-.5-1.4-.6v-.3l1.8-2.5.3-.1c2.1.7 4.3 1.9 6.3 3.2l.1.3-1.9 2.9h-.3c-.5-.4-1.1-.8-1.7-1.2-5.2 2.8-10.5 5.1-16.5 7.8H74l-1.8-2.7.2-.3 6.9-2.7.1-.2c-2.1-.6-4.2-1-6.4-1.3l-.1-.2.7-2.9.2-.2c.6.1 1.3.1 2 .2.4-1.1.6-2.2.9-3.3l-3 1.1-2-5.8-.4-1-.3.3-3 1.2-.3-.1-.9-2.4.1-.3 3-1 .1-.1-.4-1.2-3.8 1.4 2.6 7 .6 1.8c.1-1.5-.1-2.9-.6-4.6l.2-.3 2.3-.4.2.2c.7 2.3.9 4.2.7 6.1 0 .2-.1.3-.2.4h-.3l-1.8-.2c1.7 5 2.3 8.9 2.1 12.3 0 .2-.1.2-.2.3h-.3l-3.8-1.5c0-3.8-.9-7.9-2.9-13l-2-5.2-1.7-4.2.1-.3 4.7-1.7 5.8-2.2-.7-2 .4-.2 3.8-1.4.3.1.7 2 5.3-2 4.6-1.8zm1 8.2.3.1.6 1.6.4 1.1c.1.3.2.4.3.4h.1c.2-.1.3-.2.3-.4s-.1-.5-.4-1.2l1.7.3c.3 0 .4.1.5.3.4 1.2.4 1.8.1 2.3-.3.5-.8.7-1.7 1.1-.7.3-1.3.4-1.7.4-.6 0-.9-.4-1.2-1l-.9-2.4-.6-1.6.1-.3 2.1-.7m-6.3 2.7.2.2c.6 2 .9 4.2.5 6.1 0 .1-.1.3-.2.3h-.2l-2-.2c0-.1 0-.3.1-.4l-1.8.7-1-2.7-.8-2.1.1-.3 1.8-.7.3.1.8 2.1.7 1.6c.1-1.4-.2-2.8-.6-4.3l.2-.2 1.9-.2m4.9-11.9-4.6 1.8-4.4 1.6-.4-1-.5-.6-.3-.1h-.8L70.5 21l-.6.5-.1.3v.8l.4 1-4.9 1.8-4.7 1.7-.6.5v1.2l1.7 4.2 2 5.2c1.9 5.2 2.8 9.1 2.8 12.7l.6.9 3.8 1.5c.2.1.4.1.6.1.2 0 .3 0 .4-.1.5-.2.8-.6.8-1.2v-.9l.4.6.6.4.3.1.6-.1c6.3-2.7 11.2-4.9 16.1-7.5.3.2.7.5 1 .7l.2.2.7.2.3-.1.7-.4 1.9-2.9.2-.7-.1-.3-.4-.7c-1.6-1-4-2.4-6.5-3.3h-.6l-.3.1-.2.2c.1-.2.1-.4.2-.6l-.1-1-.2-.2-.6-.4-.9-.1.7-.3.4-.9h.2c.5 0 1.1-.1 2-.5 1-.4 1.7-.7 2.2-1.5.5-.8.4-1.8 0-3.1-.3-.7-.8-.9-1.3-1l-1.8-.2-.1.2-.3-1 .4-.2.6-.6.1-.3v-.7l-.9-2.3-.4-.5.1-.3v-.8l-1-2.8-.5-.6-.3-.1h-.8zM73.9 39.8l1.3-.5c-.1.2-.1.4-.2.6-.4-.1-.8-.1-1.2-.1l-.7.2-.2.2c.1-.2.1-.3.1-.5v-.3l.9.4zm-2.3 1.1c.2 0 .3 0 .5-.1s.3-.2.5-.3l-.1.2-.7 2.9c-.2-.9-.5-1.8-.8-2.7h.6m.9 6.3c-.1-.8-.3-1.7-.5-2.6l.8.5c1.2.1 2.4.3 3.6.6-1.3.4-2.6.9-3.9 1.5"/><path class="st0" d="M100.8 41.8c-.1 0-.3 0-.4-.1l-3.2-1.3-.3-.6c1.5-4.8 1.3-9.4-.6-15.7L96 23l-2.9 1h-.4l-.3-.1-.3-.3-1-3.3v-.4l.1-.2.3-.2 3.8-1.1.5-.2-1.3-4.2v-.4l.1-.3.3-.2 3.5-1.1h.4l.3.1.2.3 1.3 4.2h.1l3.7-1.2h.3l.2.1.3.3.8 2.7c.4-2.6.5-5.5.2-8.5l.2-.5.2-.1.3-.1h4l.4.3.7.4.1.2c0 1.5 0 2.9-.1 4.3l3.4-1 3.8-1.3h.4l.3.1.3.3 1 3.2-.1.4-.2.3-.3.2-1.3.4c.8 4 .9 7.5.3 10.6 1.6.9 3.4 1.6 5.9 2.3l.3.7-2 4c-.1.2-.3.4-.5.5h-.2c-.2 0-.4-.1-.6-.2-1.8-.6-3.3-1.4-4.7-2.3-1 1.9-2.3 3.6-4 5.3-.2.2-.3.3-.5.3h-.3c-.2 0-.3 0-.5-.1l-2.7-1.3c-.1.2-.1.4-.2.6-.5 1.1-1.7 2-3.4 2.6l-.7.2c-.2.1-.3.1-.4.1-.4 0-.6-.2-.8-.4l-1.8-2.4c-.2 1.2-.5 2.3-.9 3.5-.1.4-.4.5-.5.6l-.3.1zm1.5-14.5c.6 3.1.7 5.9.4 8.7.5-.2.9-.3 1.2-.4.5-.2.5-.2.6-.4.1-.8-.1-2.3-1.7-8l-.5.1zm5-2.4c.8 2.8 1.6 5.6 2.3 8.5.1.5.2 1 .2 1.4 1.9-1.8 3.1-3.5 3.9-5.3-1.4-1.4-2.6-3-3.6-4.8-.1.4-.4.6-.7.7h-.3c-.2 0-.3 0-.5-.1l-1.3-.4zm5-5.7c.8 1.6 1.6 3.1 2.7 4.6 0-1.8-.3-3.5-.6-5.2l-2.1.6zm-11.1 3.7 1.8-.5 2.6-.9h.2c.1-.5.3-1 .4-1.6l-3.8 1.1-1.6.5.4 1.4z"/><path class="st1" d="M107.4 9.9h4l.2.3c0 1.7 0 3.4-.1 5l4.1-1.3 3.8-1.3.3.1 1 3.2-.2.3-1.8.5c.8 3.6 1.1 7.5.3 11.2 1.8 1.1 3.9 1.9 6.4 2.5l-2 4c-.1.1-.1.2-.2.3h-.1c-.1 0-.2 0-.5-.1-1.9-.7-3.6-1.5-5.1-2.5-1 2.1-2.4 3.9-4.2 5.7-.1.1-.2.2-.3.2h-.1c-.1 0-.1 0-.2-.1l-3.3-1.6c0 .5-.2.8-.3 1.2-.4 1-1.6 1.8-3.1 2.3l-.7.2c-.1 0-.2.1-.3.1-.2 0-.3-.1-.4-.2l-2.3-3.1c.8-.2 1.3-.4 1.8-.6.6-.2.8-.3.9-.8.2-.9-.1-2.6-1.9-8.7l-1.3.4c1.2 5.8.6 10-.7 14.1-.1.1-.1.2-.2.3h-.3L97.4 40c1.5-4.9 1.4-9.5-.6-16l-.5-1.6-3.3 1.1-.3-.1-1-3.3.1-.2 3.8-1.1 1-.3-1.4-4.7.1-.3 3.5-1.1.3.1 1.4 4.7.6-.2 3.8-1.2.2.1 1 3.3-.1.2-3.8 1.1-2.1.6.7 2.3 2.3-.7 2.6-.9.2.1.1.3c1.2-3.7 1.5-8.2 1.1-12.4l.3.1zm8 15.1c.2-2.4-.2-4.8-.7-7.1l-3.1 1c1.1 2.2 2.2 4.3 3.8 6.1m-6.3 0c-.1 0-.2 0-.3-.1l-2.2-.9c.9 3.1 1.9 6.3 2.6 9.4.2.8.3 1.6.3 2.4 2-1.9 3.8-3.9 4.9-6.5-1.7-1.7-3.2-3.8-4.3-6-.1.4-.2.7-.3 1.1-.1.2-.2.4-.4.4-.2.2-.3.2-.3.2m-1.7-16.1-.5.1-.2.1-.5.9c.2 2.1.2 4.1 0 6l-.1-.4-.6-.6-.2-.1h-.7l-3.4 1.1-1.1-3.7-.5-.6-.3-.1-.8-.1-3.5 1.1-.6.5-.1.3-.1.8 1.1 3.7h-.1L91.4 19l-.4.4-.1.2-.1.8 1 3.3.6.6.3.1h.7l2.4-.8.2.7c1.9 6.2 2.1 10.7.6 15.4l.6 1.2 3.2 1.3h.1c.1 0 .3.1.5.1.1 0 .2 0 .4-.1s.6-.3.9-.9c.3-.9.5-1.7.7-2.5l1.1 1.5c.1.2.5.6 1.2.6.2 0 .4 0 .6-.1l.7-.2c1.9-.6 3.2-1.6 3.7-2.8 0 0 0-.1.1-.1l2.2 1.1c.2.1.4.2.7.2.1 0 .3 0 .4-.1.3-.1.5-.3.8-.5 1.6-1.6 2.8-3.2 3.8-4.9 1.3.8 2.8 1.5 4.4 2.1.3.1.5.2.8.2.1 0 .3 0 .4-.1.5-.2.7-.6.8-.7l2-4-.6-1.4c-2.3-.6-4-1.2-5.5-2 .6-3 .5-6.2-.2-10l.9-.2.6-.4.2-.3.1-.8-1-3.2-.5-.6-.3-.1h-.7l-3.8 1.3-2.7.8c0-1.1.1-2.3 0-3.6l-.1-.4-.2-.3-.9-.5-4.6-.4zm5.6 10.6 1-.3c.2.9.3 1.9.4 2.8-.5-.8-.9-1.7-1.4-2.5m-11.6 2.4 1.1-.3 3-.8c0 .1-.1.2-.1.3l-2.6.9-1.3.4-.1-.5zm7.7 4.1c.2 0 .3 0 .5-.1s.4-.2.5-.3c.9 1.4 1.9 2.8 3 4-.7 1.4-1.6 2.7-3 4.1 0-.1-.1-.3-.1-.4-.6-2.5-1.3-5.1-2-7.6l.3.1c.3.1.5.2.8.2m-5.8 9.3c.1-1.3.1-2.6.1-4 .5 2 .7 3.1.6 3.7-.1 0-.2.1-.3.1-.1.1-.3.2-.4.2"/><path class="st0" d="m130.1 33-1.9-9.1-.2-.9c-.1.2-.1.3-.2.5-.2.5-.5.6-.7.7h-.2c-.2 0-.5-.1-.7-.5l-2-3.8v-.4c.9-3.4 1.7-9.3 1.4-14.6l.2-.4.2-.2.3-.1h3.7l.4.2.2.2 2.8-.6 2.5-.6 3.1-.8.4.1.3.2.1.2v-.3l.2-.3.3-.2 2.6-.5 2.7-.6 2.9-.8.4.1.3.2.2.3.6 3 .8 3.5.8 3.2v.4l-.2.3-.3.2-2.9.6-2.7.6-2.6.7-.4-.1-.3-.2-.1-.1v.1l-.2.3-.3.2-3.1.6-1.5.4.3 1.3.5-.1 3.5-.9.4.1.3.2.2.3.7 3.1-.1.4-.2.3-.3.2-3.6.7-.5.1.3 1.4.7-.1 3.5-.9.4.1.3.2.2.3.7 3.1-.1.4-.2.1c.7-.5 1.3-1.1 1.7-1.6-1-1-1.8-2.1-2.6-3.4l-.1-.3v-.3l.2-.4 1.2-.8-1.1.3h-.4l-.2-.1-.3-.3-.7-3.2.1-.4.1-.2.3-.2 2.8-.6 3.9-.9 1.2-.4h.4l1.5.8c.4.2.6.5.7.9 0 .1 0 .3.1.4v.1c.1 2.8-.3 5.2-1.2 7.4 1 .4 2.2.8 3.8 1.1l.4.7-1.4 3.5c-.1.3-.3.5-.6.6h-.2c-.2 0-.3 0-.6-.1-1.4-.4-2.6-.9-3.8-1.6-1.1 1.3-2.4 2.5-3.9 3.6-.1.1-.2.1-.2.1-.1.1-.3.2-.5.2h-.2c-.3 0-.6-.2-.8-.4l-2.4-2.2.1-.8c.8-.5 1.5-1 2.1-1.4l-3.5.7-.6.1 1 4.2-.3.9-3.8.9-.6-.4-2-9.2-3-13.3c0 1-.1 2-.2 3l4.6 19.9-.4.6-3.9.9-.6-.4zm16.8-15.3c.3.5.7 1 1 1.4.1-.5.2-1.1.3-1.7l-1.3.3zm-11.2-7 1-.2-.6-2.7-1 .2.6 2.7zm5.5-1.1v-.2l.2-.3.3-.2 2.6-.5 1.4-.3-.5-2.2-1.4.3-2.6.7-.4-.1-.3-.2-.2-.3.9 3.3z"/><path class="st1" d="m148.6 1 .3.2.6 3 .8 3.5.8 3.3-.2.3-2.9.6-2.7.6-2.6.7-.3-.2-.7-3.2.2-.3 2.6-.5 1.9-.4-.7-3.2-1.8.4-2.6.7-.3-.2-.7-3.1.2-.3 2.6-.5 2.7-.6 2.8-.8zm-9.5 2.2.3.2.6 3 .8 3.5.8 3.3-.2.3-3.1.6-2 .5.5 2.3 1-.2 3.5-.9.3.2.7 3.1-.2.3-3.6.7-1 .2.5 2.3 1.1-.3 3.5-.9.3.2.7 3.1-.2.3-3.6.7-1.1.3 1.1 4.7-3.8.9-2-9.2-3.1-13.5-.8-3.3.1-.2 3.1-.6 2.5-.6 3.3-1m-3.7 8.1 1.9-.4-.9-3.7-1.9.4.9 3.7M130 4.7l.2.2c0 2.6-.1 5-.2 7.1l4.6 20-3.9.9-1.9-9.1-.8-2.8c-.2 1-.3 1.5-.7 2.4-.1.2-.2.4-.3.4h-.1c-.1 0-.2-.1-.3-.3l-1.9-3.8c1-3.5 1.7-9.4 1.4-14.8l.2-.2h3.7m20.5 8 1.5.8c.2.1.4.3.4.6 0 .1 0 .3.1.5.1 2.9-.4 5.4-1.3 7.6 1.2.6 2.6 1 4.4 1.4l-1.4 3.5c-.1.2-.2.3-.3.3h-.1c-.1 0-.2 0-.4-.1-1.4-.4-2.8-1-4.1-1.7-1.1 1.4-2.4 2.6-4.1 3.8-.2.1-.4.3-.5.3h-.1c-.1 0-.3-.1-.5-.3l-2.4-2.2c2.1-1.3 3.6-2.5 4.7-3.8-1-1-2-2.2-2.9-3.6v-.3l2.6-1.7.3.1c.6.9 1.1 1.6 1.7 2.3.3-1 .5-2.2.6-3.4l-2.7.6-2.8.7-.2-.1-.7-3.2.1-.2 2.8-.6 3.9-.9 1.4-.4M148.3 0l-2.9.8-2.7.6-2.6.5-.6.4-.7-.1-3 .8-2.5.6-2.5.4h-.1l-.7-.3h-3.7l-.7.3-.2.2-.4.8c.4 5.3-.4 11.1-1.3 14.5l.1.7 1.9 3.8c.4.7.9.8 1.2.8h.3c.1 0 .4-.1.6-.3l1.8 8.7 1.2.8 3.9-.9.7-1.1.9.6 3.8-.9.8-1.2-.9-3.8h.2l1.1-.2-.2 1.6 2.4 2.2c.2.2.6.5 1.2.5h.3c.3-.1.5-.2.6-.3 0 0 .1-.1.2-.1h.1c1.4-1 2.7-2.1 3.7-3.3 1.1.6 2.3 1.1 3.6 1.4.3.1.5.1.7.1h.3c.5-.1.8-.4 1-.9l1.4-3.4-.7-1.4c-1.4-.3-2.4-.6-3.3-.9.8-2.1 1.1-4.5 1-7.1v-.2c0-.2 0-.3-.1-.5-.1-.6-.4-1-.9-1.2l-1.2-.7.5-.4.2-.3.1-.7-.8-3.3-.8-3.5-.6-2.9-.5-.7-.3-.2-.9-.3zm-6.9 7.4 2.6-.7.8-.2.3 1.3-.9.2-2.6.5-.2.1-.3-1.2h.3zm-4 7.8 1.1-.2 3-.6-.1.4-.4-.1-3.5.9-.1-.4zm1.3 5.7 3.6-.7.4-.2.1.4s0 .1.1.1h-.3l-3.5.9h-.1l-.3-.5zm5.9 3-.3-1.5c.3.3.6.7.9 1-.3.2-.5.3-.6.5m36.6 255.7-.1-7.7-.1-2.3c-.2.2-.3.4-.5.5-.2.2-.5.4-.7.4-.2 0-.6-.1-.8-.7l-1.5-3.6.1-.6c2.3-2 4.2-4.4 5.5-7-.6.5-1.2 1-1.8 1.4-.3.2-.5.3-.7.3-.4 0-.6-.2-.8-.4l-2.3-3 .1-.7c2.6-1.6 4.5-3.4 5.9-5.5l.4-.2h.3l.3.1 3.1 1.8.2.3.1.3-.1.4c-1.1 1.6-2.1 2.9-3.2 4h.1l3 1.6c1.4-2.5 2.5-5.4 3-7.5l.3-.3.3-.1h.4l3.5 1.2.3.3.1.3v.4c-.2.6-.4 1.3-.6 1.9.7.4 1.4.9 2.1 1.4.8-1.6 1.5-3.4 1.9-5.1l.3-.3.3-.1h.4l3.4 1.1.3.3.1.3v.4c-.3 1.1-.7 2.1-1.1 3.1 1.4 1 2.7 2.2 4.1 3.6l.1.3v.3l-.1.3-2.3 2.6-.4.2h-.3l-.4-.2c-.8-1-1.6-1.9-2.7-2.9-.5.8-.9 1.5-1.3 2.1l.1.1.2.2.2.4.1 3.2h1.4l3.3-.2.3.1.2.2.2.4.1 3.4-.1.3-.1.2-.4.2h-4.7l.1 3.2c.7 0 1.4.1 2.2.1h1.7c1 0 2.2-.1 3.3-.2l.5.7-1.3 3.7c-.3.8-.9.8-1.3.8h-2.3c-4.2 0-6.6-.4-8.9-1.6-.7-.3-1.4-.8-2-1.4-.6 1.2-1.3 2.3-2.3 3.4-.2.3-.5.5-.9.5-.2 0-.5-.1-.7-.2l-1.8-1.1v1l-.5.5-4.2.1-.6-1zm5.1-4c2-2.5 2.3-5.7 2.3-9.8l.2-.4.3-.2.3-.1 3.6.4.3.1.2.2.2.4c0 1.8-.1 3.3-.3 4.7.4.6.9 1.1 1.5 1.6l-.2-9.5.1-.4.2-.2.3-.2h.1l-1.2-.7-.1-.8c.1-.2.3-.3.4-.5l.1-.1c-.4-.4-.8-.8-1.3-1.1-.8 1.7-1.7 3.2-2.7 4.4-.2.2-.4.5-.9.5-.3 0-.5-.1-.7-.3l-2.2-1.5c-.3.5-.5.9-.8 1.3l.3 12.2z"/><path class="st0" d="m184.3 250.9 3.1 1.8.1.3c-2 2.8-3.8 4.8-6.4 6.6-.2.1-.3.2-.4.2-.1 0-.3-.1-.4-.3l-2.3-3c2.5-1.6 4.5-3.4 6-5.7l.3.1zm15.4.3 3.4 1.1.1.3c-.3 1.1-.7 2.2-1.2 3.4 1.6 1.1 3 2.3 4.4 3.8v.3l-2.3 2.6h-.3c-1-1.3-2.1-2.3-3.3-3.4-.7 1.3-1.4 2.5-2.2 3.4h.8l.2.2.1 3.7h1.9l3.3-.2.2.2.1 3.4-.1.2h-5.3l.1 4.2c.8.1 1.7.1 2.7.1h1.7c1 0 2.2-.1 3.3-.2L206 278c-.1.4-.4.4-.9.4h-2.3c-4.3 0-6.5-.4-8.7-1.5-.9-.4-1.7-1.1-2.4-1.9-.6 1.4-1.4 2.7-2.5 4-.2.2-.4.3-.5.3-.1 0-.3-.1-.4-.2l-2.6-1.6.1 2-4.2.1-.1-7.7-.1-3.7c-.5.6-.8 1-1.3 1.6-.1.2-.3.2-.4.2-.1 0-.3-.1-.4-.4L178 266c2.6-2.2 4.8-5 6.2-8.2h.3l3 1.6.1.3c-.2.4-.4.8-.6 1.1 1.9-2.6 3.4-6.2 4.1-9.2l.3-.1 3.5 1.2.1.3c-.2.8-.4 1.5-.7 2.3 1 .6 2 1.2 2.9 2 1-1.9 1.7-3.9 2.2-5.7l.3-.4m-10 12.3c-.1 0-.3-.1-.4-.2l-2.7-1.8c-.3.7-.7 1.3-1.1 1.9l.3 13.4c2.9-2.8 3.3-6.5 3.3-11.1l.3-.2 3.6.4.2.2c0 1.7-.1 3.3-.3 4.8.6 1 1.5 1.8 2.5 2.4l-.3-10.4.2-.2h1.8l-2.8-1.6c.3-.3.6-.6.8-.9-.7-.7-1.4-1.3-2.2-1.9-.8 1.9-1.8 3.6-2.9 4.9 0 .2-.2.3-.3.3m-5.5-13.6h-.3l-.7.4c-1.4 2.1-3.2 3.8-5.7 5.4l-.3 1.5 2.3 3v.1c.1.2.5.6 1.2.6.3 0 .5-.1.8-.2-1.1 1.7-2.5 3.3-4.1 4.6l-.3 1.1 1.5 3.6c.4.9 1 1 1.3 1 .3 0 .6-.1.8-.3v1.2l.1 7.7 1 1 4.2-.1 1-1v-.1l1 .7c.3.2.7.3 1 .3.6 0 1-.4 1.2-.7.8-.9 1.5-1.9 2.1-2.9.5.4 1.1.8 1.6 1.1 2.4 1.2 4.8 1.6 9.1 1.6h2.3c.5 0 1.4 0 1.8-1.1l1.3-3.7-1-1.3c-1.1.1-2.2.1-3.2.2h-3.4l-.1-2.3h4.2l.8-.4.1-.2.2-.6-.1-3.4-.4-.8-.2-.2-.6-.2-3.3.2h-.8l-.1-2.7-.4-.7c.3-.4.5-.8.8-1.2.9.8 1.6 1.6 2.2 2.4l.7.4h.3l.8-.3 2.3-2.6.3-.7v-.3l-.3-.7c-1.3-1.4-2.5-2.5-3.9-3.4.3-.9.7-1.8.9-2.8l-.1-.7-.1-.3-.6-.5-3.4-1.1h-.7l-.3.1-.5.6c-.4 1.5-1 3-1.6 4.5-.4-.3-.9-.6-1.3-.9.2-.6.3-1.1.5-1.6l-.1-.7-.1-.3-.6-.5-3.5-1.2h-.7l-.3.1-.5.7c-.5 2-1.4 4.6-2.7 6.9l-2-1.1c1-1 1.9-2.2 2.8-3.6l.2-.8-.1-.3-.5-.6-3.1-1.8-.7-.1zm5.5 14.6c.7 0 1.1-.5 1.3-.7.9-1.1 1.7-2.4 2.5-4l.4.4-.2.2.3 1.5.5.3-.3.7.2 8.3c-.2-.2-.3-.3-.4-.5.2-1.3.2-2.8.3-4.6l-.3-.7-.2-.2-.6-.3-3.6-.4-.7.2-.3.2-.4.8c0 3.4-.2 6.1-1.3 8.2l-.3-10.2c.2-.2.3-.5.5-.8l1.8 1.2c.1.2.4.4.8.4"/><path class="st1" d="m223.8 277.3-.6-7.6c-2.1 3-4.6 5.6-7.5 7.7-.2.2-.5.2-.6.3h-.1c-.3 0-.6-.2-.8-.4l-2.8-2.8.1-.8c3.2-2.1 6.1-4.6 8.5-7.6h-.3l-.4-.1c-.5-.5-1-1-1.6-1.4-.7 1.2-1.4 2.3-2.1 3.2-.2.2-.4.4-.7.5-.3 0-.5-.1-.7-.2l-.2-.1-2.7-2-.1-.7c1.9-2.3 3.3-4.9 4-7.8l-3.8.5-.3-.1-.2-.2-.2-.4-.4-3.3.1-.4.2-.2.3-.2 4.6-.4 5.6-.6-.4-3.2.1-.4.2-.2.3-.2 3.8-.4.3.1.2.2.2.4.4 3.2 5.9-.7 4.5-.6.3.1.2.2.2.4.4 3.3-.1.4-.2.2-.3.2-3.1.3.3.1.3.2.1.3.1.4c-.2.8-.3 1.5-.5 2.2 1.6.9 2.9 1.8 4.2 3l.2.3v.3l-.1.4-2.2 2.7-.3.2h-.3l-.4-.2c-.9-.9-1.8-1.7-2.9-2.5-.3.6-.7 1.2-1.2 1.9-.2.3-.4.5-.7.5 3 2.1 6.3 3.6 9.9 4.8l.3.7-2.3 3.7c-.1.2-.4.5-.8.6h-.1c-.2 0-.4-.1-.6-.2-3.3-1.4-6.3-3.3-9.1-5.9l1.1 7.8-.4.6-4.5.5-.3-.6zm-4.3-16.9c.9.6 1.8 1.2 2.8 2l-.6-5.7-2.4.3.5.1.3.2.1.3.1.4c-.3.8-.6 1.6-.8 2.4m8 1.5c1.3-1.9 2.1-3.9 2.6-6.1l-3.3.4.7 5.7z"/><path class="st0" d="m225.3 248.2.2.2.4 3.7 6.4-.7 4.6-.6.2.2.4 3.3-.2.2-4.6.4-1.5.2 3.3.8.2.3c-.2.9-.4 1.7-.7 2.5 1.6.8 3 1.8 4.5 3.1v.3l-2.2 2.7h-.3c-1.1-1.1-2.2-2-3.4-2.9-.4.8-.9 1.6-1.4 2.4-.2.2-.3.3-.4.3-.1 0-.3-.1-.4-.2l-2.7-1.9c1.7-2.3 2.6-4.8 3.1-7.4h.1l-4.5.5.8 7.1c3.9 3.4 8.2 5.9 13.6 7.6l-2.3 3.7c-.1.2-.2.3-.4.3-.1 0-.2 0-.4-.1-4.1-1.7-7.3-4.1-10.1-6.8l1.3 9.2-4.5.5-.7-9c-2 3.2-4.7 6.3-8.2 8.8-.1.1-.3.2-.4.2h-.1c-.2 0-.3-.1-.4-.2l-2.8-2.8c4.7-3 8.4-6.9 11.1-11.3l-.8-6.8-5.8.6 3.3.8.1.3c-.3 1-.5 1.9-.9 2.8 1.1.6 2.1 1.4 3.2 2.2v.3l-2.2 2.5h-.3c-.7-.7-1.4-1.3-2.1-1.8-.7 1.3-1.5 2.5-2.3 3.6-.1.2-.2.3-.4.3-.1 0-.3-.1-.5-.2l-2.7-2c2.2-2.7 3.6-5.6 4.3-8.7h.1l-4.5.6-.2-.2-.4-3.3.2-.2 4.6-.4 6.1-.7-.4-3.7.2-.2 3.8-.4zm-.2-1-3.8.4-.6.3-.2.2-.3.8.3 2.7-5.1.6-4.6.4-.6.3-.2.2-.3.8.4 3.3.4.7.2.2.7.2 3-.4c-.8 2.6-2 4.8-3.7 6.9l.2 1.4 2.7 2 .1.1.1.1c.2.1.5.3.9.3h.1c.6-.1.9-.5 1-.7.6-.8 1.2-1.7 1.8-2.7.4.3.7.7 1.1 1l.2.1c-2.3 2.7-4.9 5-7.9 6.9l-.2 1.5 2.8 2.8c.2.2.5.5 1.1.5h.2c.3 0 .6-.2.9-.4 2.6-1.9 4.9-4.1 6.8-6.7l.5 6.2 1.1.9 4.5-.5.9-1.1-.9-6.5c2.6 2.2 5.3 3.9 8.3 5.1.3.1.5.2.8.2h.2c.7-.1 1-.6 1.1-.8l2.3-3.7-.5-1.5c-3.3-1.1-6.3-2.5-9.2-4.3.1-.1.1-.2.2-.3.4-.5.7-1 .9-1.5.8.6 1.6 1.3 2.3 2.1l.8.3h.3l.7-.4 2.2-2.7.2-.7v-.3l-.3-.6c-1.2-1.1-2.5-2-3.9-2.8.2-.6.3-1.2.4-1.8l-.1-.6 1.9-.2.6-.3.2-.2.3-.8-.4-3.3-.4-.7-.2-.2-.7-.2-4.6.6-5.4.6-.3-2.7-.4-.7-.2-.2-.7-.2zm2.3 9.3 2.1-.2c-.4 1.5-.9 2.8-1.6 4.1l-.5-3.9zm-6.8.8.6-.1.4 4c-.5-.4-1-.7-1.6-1.1l.6-2.1v-.7z"/><path class="st1" d="M248 274.8c-.3 0-.5-.1-.7-.3 0 0-.1-.1-.2-.1l-2.9-2.1v-.8c3.2-2.3 4.5-5 4.3-9.1l-4.7 1-.4-.1-.2-.2-.2-.3-.6-3.2.1-.4.2-.2.3-.2 4.9-.9 17.2-3.4 4.9-1 .4.1.2.2.2.3.6 3.2-.1.4-.2.2-.3.2-4.8.9-5.4 1 .1.7 3.9-.8 2.9-.7h.4l.2.1.2.3.6 3.1-.1.4-.1.2-.3.2-2.9.5-3.9.8.2 1.3h.2c3.4-.6 7.5-1.5 10.8-2.4l.6.6-1 4.2c-.1.6-.5.7-.9.8-2.4.5-4.9 1-7.2 1.4-2.6.5-4.6.7-6.3.7-1.1 0-2-.1-2.8-.3-1.1-.3-2-.7-2.9-1.3-.9 1.8-2.1 3.4-3.8 4.7-.3.2-.4.3-.6.3h.1zm5.8-9.7c.5.5 1.1.8 1.6 1.1.2.1.5.2.8.2l-1-5.3-2.1.4.3.1.3.2.2.4c.1.9 0 1.9-.1 2.9m-7.1-7.2-.2-.2-.2-.3-.8-4.4-.5-2.7-.8-3.5.1-.4.2-.2.3-.2 4.6-.8 10-1.9 4.3-.9.4.1.3.2.2.3.6 3.6.5 2.4 1 4.5-.1.4-.2.3-.3.2-4.1.7-10.4 2-4.4.9-.5-.1zm4.1-4.8 9.7-1.9-.1-.3-9.7 1.9.1.3zm-.7-3.7 9.7-1.9v-.3l-9.7 1.9v.3z"/><path class="st0" d="m263.8 242.8.3.2.6 3.6.5 2.4 1 4.5-.2.3-4.1.7-10.5 2-4.4.9-.2-.2-.8-4.4-.5-2.7-.8-3.5.2-.2 4.6-.8 10-1.9 4.3-.9zm-14.1 7.2 10.7-2.1-.2-1.2-10.7 2.1.2 1.2m.7 3.7 10.7-2.1-.2-1.3-10.7 2.1.2 1.3m19.7.4.2.2.6 3.2-.2.2-4.9.9-5.9 1.1.3 1.7 4.4-.8 2.9-.7.2.1.6 3.1-.1.2-2.9.5-4.4.8.4 2.2c.2 0 .5-.1.7-.1 3.1-.6 7.2-1.5 10.8-2.4l-1 4.2c-.1.3-.1.3-.5.4-2.4.5-4.9 1-7.2 1.4-2.3.4-4.4.7-6.2.7-1 0-1.9-.1-2.7-.3-1.2-.3-2.2-.8-3.2-1.6-.8 2-2.1 3.7-3.9 5-.2.1-.3.2-.4.2h-.1c-.2 0-.3-.1-.5-.3l-2.9-2.1c3.5-2.6 4.7-5.6 4.5-9.5l.2-.3 3.9-.1.3.2c.1 1.1 0 2.1-.1 3.1.6.6 1.3 1.1 2 1.3.4.2 1 .3 1.6.3l-1.3-6.4-7 1.4-4.9 1-.2-.2-.6-3.2.2-.2 4.9-.9L265 255l5.1-.9m-6.6-12.3-4.3.9-10 1.9-4.6.8-.6.4-.2.2-.2.8.8 3.5.5 2.7.8 4.4.2.3-3.1.5-.7.4-.2.2-.2.8.6 3.2.4.6.2.2.8.1 4.1-.9c0 3.5-1.3 6-4.1 8.1v1.6l2.9 2.1c.1.1.1.1.2.1.2.2.5.4 1 .4h.3c.3-.1.6-.2.8-.4 1.5-1.2 2.8-2.7 3.7-4.3.8.5 1.6.8 2.6 1.1.8.2 1.8.3 2.9.3 1.7 0 3.8-.2 6.4-.7 2.3-.4 4.7-.9 7.2-1.4.5-.1 1.1-.3 1.2-1.2l1-4.2-1.2-1.2c-3.3.9-7.2 1.7-10.5 2.4l-.1-.3 3.4-.7 2.9-.5.6-.4.1-.2.2-.8-.6-3.1-.5-.7 2.7-.5.7-.4.2-.2.2-.8-.6-3.2-.4-.6-.2-.2-.8-.1-2.9.6.1-.4-1-4.5-.5-2.4-.6-3.6-.4-.7-.3-.2-.9.2zm-9.3 20 .6-.1.8 4c-.4-.2-.9-.4-1.3-.8.1-1 .1-1.9.1-2.8l-.2-.3z"/><path class="st1" d="m278.9 267.8-.3-.1-.2-.2-1.9-2.8v-.5l.1-.3.3-.3.7-.3c1.5-.5 3.1-1.1 4.7-1.7l-.4-1.4-3.9 1.1h-.4l-.2-.1-.3-.3-.8-2.9.1-.4.1-.2.3-.2 3.9-.9-.2-.9-1.3.4-3.2.9h-.4l-.2-.1-.3-.3-.7-2.8.1-.4.1-.2.3-.2 2-.5c-.3-.5-.7-1-1.1-1.4l-.1-.5.1-.2-2.4.7h-.4l-.2-.1-.3-.3-.8-2.9.1-.4.1-.2.3-.2 1-.2c-.7-1.1-1.3-2-2.1-2.9l-.1-.3v-.3l.2-.4 2.2-1.5.2-.1h.3l.4.1.8.8-.4-1.7.1-.4.2-.3.3-.2 2.8-.7.4.1.3.2.2.3v-.3l.1-.3.3-.2 3-.8.4.1.3.1.2.3.5 1.9v-1.2l.2-.4.3-.2.4-.1 3 .1.3.2.2.2.1.4c0 1.3-.2 2.7-.5 3.8l.3-.1h.4l.2.1.3-.2 3.9-.9.2-.1-1.5-5.8.1-.4.2-.3.3-.2 3.6-.9h.3l.3.1.3.3 1.5 5.7 1.5-.4h.4l.2.1.3.3.9 3.4-.1.4-.4.1-.3.2-1.5.4 1.6 6 1.8 6.3c1 3.8 0 5.2-4.9 6.5-.2.1-.4.1-.6.1-.4 0-.6-.3-.8-.4l-2.6-3.3.3-.8c1.4-.4 2.5-.7 3-.9.2-.1.3-.1.3-.1s0-.1-.1-.4l-1.1-4.1-2.1 1.9-.4.1h-.3l-.4-.2c-.9-1.3-1.8-2.4-2.6-3.2l.1.5-.1.4-.1.2-.3.2-3.3.8-1 .3.2.9 3.6-1h.4l.2.1.3.3.8 2.9-.1.4v-.1l-.3.2-3.7.9.2.8c1.9-.8 3.4-1.4 4.8-2l.7.3.6 2.6c.2.9-.2 1.2-.8 1.4-3.6 1.8-9 3.9-13.2 5.6h-.4zm1.5-19c.5.6.9 1.4 1.4 2.2l1-.3c.1-1 .1-1.8.1-2.6l-2.5.7zm12.2-1.5c.9.6 1.7 1.4 2.5 2.3l-1-3.8-.2.1-3.8 1.1h-.4l-.2-.1-.2-.3-.1.1-2.1.5.2.1.2.2.2.5c-.1.6-.2 1.2-.2 1.6l1.4-.4h.4l.2.1.1.2 2.1-1.9.3-.1.3-.1.3-.1zm-16.4-1.7zm8.6-2.2z"/><path class="st0" d="m295.7 234.2.3.1 1.6 6.2 2-.6.2.1.9 3.4-.1.2-2 .5 1.7 6.5 1.8 6.3c.9 3.4.2 4.6-4.5 5.9-.2.1-.4.1-.5.1-.2 0-.2-.1-.4-.2l-2.6-3.3c1.4-.4 2.6-.7 3-.9.6-.2.7-.4.5-1.1l-1.3-4.9-2.7 2.4h-.3c-1.2-1.6-2.6-3.4-3.9-4.4v-.3l2.5-2.3.3-.1c1.4 1.1 2.8 2.5 3.9 3.9l-1.7-6.5-.7.2-3.8 1.1-.2-.1-.9-3.4.1-.2 3.9-.9.7-.2-1.6-6.2.2-.3 3.6-1zm-13.1 3.6.3.1 1.6 6.1.3-.1 3.5-1 .2.1.8 2.9-.1.2-3.6.8-6.2 1.6h.3c.6.7 1.2 1.7 1.9 3l1.7-.4c.2-1.5.2-2.5.2-3.4l.2-.2h3.4l.2.2c-.1 1-.2 1.6-.4 2.4l2.2-.6.2.1.8 2.9-.1.2-3.3.8-1.5.4.5 1.9.3-.1 3.8-1.1.2.1.8 2.9-.1.2-3.9.9-.3.1.5 1.9c1.9-.7 3.7-1.5 5.3-2.3l.6 2.6c.1.5 0 .6-.5.9-3.4 1.7-8.2 3.6-13.2 5.6l-.3-.1-1.9-2.8.1-.3c1.9-.7 3.9-1.3 5.9-2.1l-.6-2.3-.6.2-3.8 1.1-.2-.1-.8-2.9.1-.2 3.9-.9.6-.2-.5-1.9-1.8.5-3.2.9-.2-.1-.7-2.8.1-.2 2.7-.6c-.5-.8-.9-1.4-1.5-2.1l.1-.3 2.8-1.5-2.3.6-3.6 1-.2-.1-.8-2.9.1-.2 3.9-.9.5-.1-.3-1.2-2.3 1.6h-.3c-.8-1.3-1.4-2.3-2.4-3.3v-.3l2.2-1.5h.3c.7.7 1.5 1.7 2.3 2.9l-1.1-4.2.1-.3 2.8-.7.3.2 1.6 6.1.9-.2-1.6-6.1.1-.3 3-1.1m1.9.5 3 .1.2.2c0 1.4-.2 2.9-.5 4-.1.2-.1.3-.3.4h-.3l-2.5-.2c.2-1.5.2-3 .2-4.3l.2-.2m10.9-5.1-3.6.9-.6.5-.2.3-.1.8 1.4 5.3-3.6.9-.2.2h-.1c.2-1 .3-2.2.3-3.3l-.3-.7-.2-.2-.7-.3-3-.1-.7.2-.1.1-.4-.6-.3-.1-.8-.1-3 .8-.6.5-.7-.1-2.8.7-.6.5-.2.3-.1.8.1.2-.4-.1h-.3l-.4.2-2.2 1.5-.4.9v.3l.3.6c.6.7 1.1 1.3 1.7 2.2l-.3.1-.6.5-.1.2-.1.8.8 2.9.5.6.2.1.7.1 1.8-.5.1.4c.2.3.4.5.6.8l-1.3.3-.6.5-.1.2-.1.8.7 2.8.5.6.2.1.7.1-.1.1-.1.2-.1.8.8 2.9.5.6.2.1.7.1 3.4-1 .1.4c-1.4.5-2.9 1-4.3 1.5l-.7.3-.6.6-.1.3.1.9 1.9 2.8.4.3.3.1h.8c4.3-1.6 9.6-3.8 13.2-5.6.7-.4 1.3-.8 1-2l-.1-.2 2.2 2.8c.1.2.5.6 1.2.6.2 0 .5 0 .7-.1 5.1-1.3 6.3-3 5.2-7.1l-1.8-6.3-1.4-5.5 1-.2.6-.4.1-.2.2-.8-.9-3.4-.5-.7-.2-.1-.7-.1-1 .3-1.4-5.2-.6-.7-.3-.1-.5-.5zm-3 13.6 1.3-.4.4 1.5c-.4-.4-.8-.7-1.2-1l-.5-.1zm-4.4.6 1.2-.3.1.2.2.1.7.1.9-.3-1.6 1.5-.1-.1-.7-.1-.7.2c0-.3.1-.5.1-.9l-.1-.4zm-6.8 1.7 1.1-.3c0 .5 0 .9-.1 1.5l-.3.1c-.2-.4-.4-.9-.7-1.3m9 4.5.5-.4.1-.2c.6.7 1.2 1.4 1.8 2.3l.8.4h.3l.7-.3 1.5-1.3.9 3.3c-.5.2-1.6.5-2.9.9l-.3 1-.3-1.3-1.4-.7c-.1 0-.1 0-.2.1v-.2l-.8-2.9-.5-.7h-.2z"/><path class="st1" d="M310.3 259.8c-.3 0-.5-.1-.6-.2l-3.2-2.1v-.9c2.7-1.4 4.9-2.8 6.5-4.1l-2.6.8-4.2 1.4h-.4l-.3-.1-.2-.3-.9-2.9v-.4l.1-.3.3-.2 1.9-.5-3.8-11-1.7-4.8v-.4l.1-.3.4-.3 3.3-.4c.5-.4 1.1-1.1 1.6-1.8l.3-.2.3-.1h.4c.6.3 1.1.6 1.6.9l-.4-1.4v-.4l.1-.3.3-.3 3.2-1 .5.1.3.2.2.2.5 1.5.9-.3 2.8-1h.4l.1.1-.1-.5v-.4l.1-.3.3-.2 2-.5 1.6-.5 2.8-1h.4l.3.1.3.3.7 2.9 3.6 13.4 1.9-.6h.4l.3.1.2.3.9 2.9v.4l-.1.3-.3.2-4.3 1.2-1.4.4h.1c1.8 0 3.7.1 6 .3l.4.3.1.3v.4l-1.5 3.3-.2.2-.3.1-.3.1c-2.1-.3-5.9-.7-9.5-.7h-.5l-.5-.3-.1-.3v-.5l1.1-1.7-5.2 1.6 2.4.6.4.5v.3l-.1.4c-3.2 3.2-6.6 5.4-8.9 6.6-.4.7-.6.8-.8.8m1.3-11.2 2.5-.8-.7-2.2-.1.2-.3.2-2 .5h-.1l.7 2.1zm4.7-8.7.3.2.2.2 1.9 6.1h.1l-2.2-7.2-.2.1-3.5 1.2h-.4l-.3-.1-.2-.3-.1.2-.3.2-2 .5-.3.1.5 1.5.3-.1 1.9-.7h.4l.2.1-.1-.4v-.4l.1-.3.3-.3 3.1-1 .3.4zm6.8 5.1 2.3-.7-.5-2-1.8.6h-.4l-.2-.1.6 2.2zm-2.2-7.3.5 1.6.1-.2.3-.2 2-.5-.4-1.5-2 .7h-.4l-.2-.1.1.2zm-13.1-.4.5-.1 1.9-.7h.4l.3.1.1.1-.7-2.3c-.9.8-1.9 1.6-2.7 2.1l.2.8zm7.6-2 .4-.1 3.3-1.1h.4l.2.1v-.3l.1-.3.3-.2 2-.5.2-.1-.4-1.3-.3.1-1.9.7h-.4l-.1-.1.1.4v.4l-.1.3-.3.2-2.9.8-.9.3.3.7z"/><path class="st0" d="m325.1 226.5.3.1.7 2.9 3.7 13.9 2.4-.8.3.1.9 2.9-.1.3-4.3 1.2-18.5 5.7-4.2 1.4-.3-.1-.9-2.9.1-.3 2.4-.7-4-11.5-1.7-4.8.1-.3 3.4-.4c.5-.4 1.3-1.2 1.8-2l.3-.1c1.1.6 1.8 1 2.8 1.8l-.9-2.8.1-.3 3.2-1 .3.2.6 2 1.4-.4 2.8-1 .3.1.8 2.8-.1.3-2.9.8-1.4.4.5 1.8.8-.3 3.4-1.1.3.1.9 3.2 2.4 7.8 3.2-1-.8-3-.3.1-2 .7-.3-.1-.8-2.8.1-.3 2-.5.5-.1-.6-2.5-.6.2-2 .7-.3-.1-.8-2.8.1-.3 2-.5.7-.2-.6-2.3-.8.2-2 .7-.3-.1-.9-2.9.1-.3 2-.5 1.7-.5 3-.8zm-17.7 11.4.9-.3 2-.7.3.1.8 2.8-.1.3-2 .5-.8.3.8 2.4.7-.2 2-.7.3.1.8 2.8-.1.3-2 .5-.7.2 1 2.9 3.5-1.1-2-6.6.1-.3 3.1-1 .3.2 2 6.6 1-.3-2.5-8.1-.7.2-3.6 1.2-.3-.1-.8-3.1-1-3.4c-1.1 1.1-2.6 2.2-3.5 2.8l.5 1.7m20.3 10.7c2 0 3.9.1 5.9.3l.1.3-1.5 3.3-.3.1c-2.4-.4-6.2-.7-9.6-.7h-.5l-.1-.3 1.7-2.7.3-.1c1.4-.1 2.7-.2 4-.2m-12.3 2.8 4.1 1v.3c-2.8 2.8-5.9 5-8.8 6.5-.2.1-.3.1-.4.1-.1 0-.2 0-.4-.1l-3.2-2.1c3.5-1.8 6.3-3.7 8.3-5.6l.4-.1m9.4-25.8-2.8 1-1.6.5-2 .5-.6.5-.1.3v.5h-.1l-2.8 1-.4.1-.3-1.1-.3-.5-.3-.2-.9-.2-3.2 1-.6.5-.1.3v.7l.1.2c-.2-.1-.3-.2-.5-.3l-.8-.1-.3.1-.5.4c-.4.6-1 1.2-1.4 1.6l-3.1.4-.8.5-.1.3-.1.8 1.7 4.8 3.6 10.5-1.4.4-.6.5-.1.3-.1.8.9 2.9.5.6.3.1.8.1 3.8-1.2c-1.1.7-2.4 1.5-3.9 2.2l-.1 1.7 3.2 2.1c.2.1.5.3.9.3.3 0 .6-.1.8-.2 2.3-1.3 5.8-3.4 9-6.7l.3-.7v-.3l-.8-1-.6-.2 2.2-.7-.3.5-.1.9.1.3.9.6h.5c3.6 0 7.4.4 9.5.7l.6-.1.3-.1.4-.5 1.5-3.3v-.9l-.1-.3-.8-.5c-1.1-.1-2.1-.2-3-.2l2.7-.8.6-.5.1-.3.1-.8-.9-2.9-.5-.6-.3-.1-.8-.1-1.4.5-3.4-12.9-.7-2.9-.5-.6-.3-.1-1-.1zm-4.8 7.1 1.7-.6.1.3-1.7.4-.2.2v-.4l.1.1zm-11.9 4c.6-.4 1.2-.9 1.8-1.4l.2.7h-.2l-1.8.7zm13.5 1.3 1.5-.5.1.5-1.5.4-.1.1-.1-.5h.1zm-11.9 3.5 1.8-.5.3-.3h.1l-.1.3v.3h-.2l-1.7.6-.2-.4zm13.6 1.9 1.3-.5.3 1-1.3.4-.3-.9zm-11.7 3.5 1.6-.4.3 1-1.6.5-.3-1.1z"/><path class="st1" d="m339.1 250.2-.2-.1-2.1-2.6-.1-.5.1-.3.3-.3.8-.3c1.5-.7 3-1.3 4.5-2.1l-.5-1.3-3.8 1.4h-.4l-.3-.1-.3-.3-1-2.8v-.4l.1-.2.3-.3 3.8-1.3-.3-.9-1.3.5-3.1 1.2h-.4l-.3-.1-.3-.3-1-2.8v-.4l.1-.2.3-.3 1.9-.6c-.4-.5-.8-.9-1.2-1.3l-.1-.5.1-.2-2.3.9h-.4l-.3-.1-.3-.3-1-2.8v-.4l.1-.2.3-.3.9-.3c-.8-1.1-1.5-1.9-2.3-2.7l-.2-.3v-.3l.2-.4 2-1.7.2-.1.3-.1.4.1c.3.2.6.5.9.8l-.6-1.6v-.4l.1-.3.3-.3 2.8-1h.4l.3.1.2.2v-.3l.1-.3.3-.3 2.9-1h.4l.3.1.3.3.7 1.9c0-.4-.1-.8-.1-1.2l.1-.4.2-.2.3-.2 3-.1.4.1.2.2.2.3c.1 1.3 0 2.8-.1 3.8l.2-.1h.4l.2.1.3-.2 3.8-1.3.2-.1-2-5.6v-.4l.1-.3.3-.3 3.5-1.2h.3l.3.1.3.3 2 5.6 1.5-.6h.4l.2.1.3.3 1.2 3.3v.4l-.1.2-.3.2-1.5.5 2.1 5.8 2.3 6.1c.5 1.4.9 2.9.1 4.2-.6 1-1.9 1.8-4.4 2.7-.3.1-.5.2-.7.2-.4 0-.6-.2-.7-.4l-2.9-3.1.2-.8c1.3-.5 2.5-.9 2.9-1.2.2-.1.3-.2.3-.2s0-.1-.1-.4l-1.4-4-1.9 2.1-.3.2h-.3l-.4-.2c-1-1.2-2-2.2-2.9-3l.2.5v.4l-.1.2-.3.2-3.2 1.1-1 .3.3.9 3.5-1.4h.4l.2.1.3.3 1 2.9v.4l-.1.2-.3.2-3.6 1.2.3.8c1.8-.9 3.3-1.7 4.6-2.5l.7.3.8 2.6c.2.8-.1 1.2-.6 1.5-3.5 2.1-8.6 4.7-12.7 6.7h-.4l-.3.3zm.1-18.9c.5.6 1 1.3 1.6 2l.9-.3c0-1.1 0-1.8-.1-2.6l-2.4.9zm6.8-2.3.3.2.2.4c0 .6 0 1.2-.1 1.6l1.4-.5h.4l.2.1.2.2 1.9-2.1.2-.1.3-.1.4.1c.9.6 1.8 1.3 2.7 2.1l-1.3-3.7-.2.1-3.7 1.4h-.4l-.3-.1-.3-.3-.1.1-2 .7.2-.1zm-11.2-.6zm8.3-2.9z"/><path class="st0" d="m353.2 215.4.3.1 2.2 6.1 2-.8.2.1 1.2 3.3-.1.2-2 .7 2.3 6.3 2.3 6.1c1.2 3.3.6 4.6-4 6.2-.2.1-.4.1-.5.1-.1 0-.2-.1-.3-.2l-2.9-3.1c1.3-.5 2.5-1 3-1.2.6-.3.7-.5.4-1.2l-1.7-4.8-2.5 2.7h-.3c-1.3-1.5-2.9-3.1-4.2-4v-.3l2.3-2.5.3-.1c1.5.9 3 2.2 4.2 3.6l-2.3-6.3-.7.3-3.7 1.4-.3-.1-1.2-3.3.1-.2 3.8-1.3.7-.3-2.2-6.1.1-.3 3.5-1.1zm-12.7 4.7.3.1 2.1 5.9.3-.1 3.4-1.3.2.1 1 2.9-.1.2-3.5 1.2-6 2.2h.3c.6.7 1.4 1.6 2.2 2.8l1.6-.6c.1-1.5 0-2.5-.1-3.4l.2-.2 3.4-.3.3.2c0 1-.1 1.7-.2 2.4l2.1-.8.2.1 1 2.8-.1.2-3.2 1.1-1.4.5.6 1.8.3-.1 3.7-1.4.2.1 1 2.9-.1.2-3.8 1.3-.3.1.6 1.8c1.8-.9 3.5-1.8 5.1-2.7l.8 2.6c.1.5 0 .6-.4.9-3.2 2-7.8 4.3-12.6 6.7l-.3-.1-2.1-2.6.1-.3c1.8-.8 3.8-1.7 5.7-2.6l-.8-2.2-.6.2-3.7 1.4-.3-.1-1-2.8.1-.2 3.8-1.3.6-.2-.6-1.8-1.8.6-3.1 1.2-.3-.1-1-2.8.1-.2 2.6-.9c-.5-.8-1.1-1.3-1.7-2l.1-.3 2.7-1.8-2.2.8-3.5 1.4-.3-.1-1-2.8.1-.2 3.8-1.3.5-.2-.4-1.2-2.1 1.8h-.3c-.9-1.2-1.6-2.2-2.6-3.1v-.3l2-1.7.3-.1c.7.6 1.7 1.6 2.5 2.7l-1.5-4.1.1-.3 2.8-1 .3.1 2.1 5.9.9-.3-2.1-5.9.1-.3 2.9-1.1m5 .2.2.2c.1 1.4 0 2.9-.2 4 0 .2-.1.3-.2.4-.1 0-.2.1-.3.1h-2.6c0-1.5 0-3-.2-4.3l.2-.2 3.1-.2m8-5.9h-.6l-3.5 1.2-.6.5-.1.3v.8l1.8 5.1-3.5 1.2-.2.2h-.1c.1-1 .1-2.2.1-3.3l-.3-.7-.2-.2-.7-.2-3 .1-.7.3-.1.1-.5-.5-.3-.1h-.8l-2.9 1-.6.5h-.7l-2.8 1-.6.5-.1.3v.8l.1.2-.4-.1-.3.1-.4.2-2 1.7-.3.9v.3l.3.6c.7.6 1.2 1.3 1.8 2.1l-.3.1-.6.5-.1.2v.8l1 2.8.6.6.3.1h.7l1.8-.7.1.4c.3.3.5.5.7.8l-1.2.4-.6.5-.1.2v.8l1 2.8.6.6.3.1h.7l-.1.1-.1.2v.8l1 2.8.6.6.3.1h.7l3.3-1.3.2.4c-1.4.6-2.8 1.3-4.1 1.9l-.8.3-.5.6-.1.3.2.9 2.1 2.6.4.3.3.1h.8c4.1-2 9.2-4.6 12.7-6.7.6-.4 1.2-.9.9-2.1l-.1-.2 2.4 2.6c.1.1.5.5 1.1.5.3 0 .5-.1.8-.2 2.6-.9 4-1.8 4.7-2.9.9-1.4.5-3.1-.1-4.6l-2.3-6.1-1.9-5.3 1-.3.6-.4.1-.2.1-.8-1.2-3.3-.6-.6-.2-.1h-.7l-1 .4-1.8-5.1-.6-.6-.8-.6zm-2.4 13.8 1.3-.5.5 1.5c-.4-.3-.9-.6-1.3-.9l-.5-.1zm-2.9.9h.7l.9-.3-1.5 1.6h-.8l-.6.3v-.9l-.2-.5 1.1-.4.1.1.3.1zm-8.1 2.4 1.1-.4c0 .5.1.9 0 1.5l-.2.1-.9-1.2m9.3 3.7.5-.4.1-.2c.6.6 1.3 1.3 1.9 2.1l.8.3h.3l.7-.3 1.3-1.5 1.2 3.2c-.5.2-1.6.7-2.8 1.1l-.3 1-.4-1.2-1.5-.6-.1.1v-.2l-1-2.9-.6-.6-.1.1z"/><path class="st1" d="m368.4 238.2-3.9-9.3-3.1-7.1-1.6-3.5v-.4l.1-.3.3-.3 2.2-.9c-.2-1.7-.5-3.2-.9-4.6l.1-.4.1-.2.3-.2 4-1 .5.1.2.2.2.3c.2 1.4.3 2.6.3 3.8l2.9-1.3h.4l.3.1.3.3 1.1 2.8c.5-3.1.5-6.4.1-9.3l.2-.5.2-.1.2-.1 4-.7.5.2.2.3.1.2c.1 1.2.2 2.2.2 3.2l2.2-1 4.2-1.9h.4l.3.1.3.3c3.1 7.2 5.3 12.5 6.7 16.9 1.2 4 .3 6.4-3.1 7.9l-1.5.6c-.2.1-.4.1-.6.1-.4 0-.7-.2-.9-.4l-3-2.8.2-.8c.9-.3 1.5-.6 2.5-1 1.3-.5 1.7-1 1-3.1-.9-2.7-2.3-6.2-4.6-11.6l-4.2 1.8c-.1 1.5-.4 2.8-.7 4-.1.4-.3.7-.6.8-.1.1-.3.1-.5.1h-.2l-2.2-.3 2.1 4.9 3.9 8.8-.3.7-3.7 1.6-.7-.3-.4-.9-2.1.9.7 1.6-.3.7-3.6 1.6-.8-.6zm2-7.7 2.1-.9-1.5-3.4-2.1.9 1.5 3.4zm-3.2-7.5 2.1-.9-1.3-3-2.1.9 1.3 3zm14.3 2.4-.3-.1c-1.5-1.3-3.4-2.7-5.1-3.5l-.3-.4v-.3l.1-.3 2-2.7.3-.2.4-.1h.3c1.8.7 3.6 1.8 5.5 3.4l.2.4v.3l-.1.2-2.3 3.1-.4.2h-.3z"/><path class="st0" d="m376.8 206.1.2.3c.1 1.4.2 2.6.2 3.9l2.9-1.3 4.2-1.9.3.1c3 7 5.3 12.4 6.7 16.8 1.2 3.7.3 5.9-2.9 7.3l-1.5.6c-.2.1-.3.1-.4.1-.2 0-.4-.1-.6-.3l-3-2.8c1-.4 1.5-.6 2.6-1.1 1.6-.7 2-1.5 1.3-3.7-1.1-3.2-2.7-7.1-4.8-12l-4.9 2.1c-.1 1.4-.3 2.8-.7 4.2-.1.2-.2.4-.4.5-.1 0-.2.1-.3.1h-.2l-3.1-.5 2.5 5.8 3.9 8.8-3.7 1.6-.6-1.4-3 1.3.9 2-3.6 1.6-3.9-9.3-3.1-7.2-1.6-3.5.1-.3 2.6-1c-.2-1.7-.5-3.4-.9-5l.1-.2 4-1 .2.2c.2 1.7.3 3.2.3 4.5l.7-.3 2.8-1.3.3.1 1.5 3.6.3.7c.8-3.6.9-7.6.4-11.1l.2-.2 4-.8zm-9.9 17.5 3-1.3-1.7-3.9-3 1.3 1.7 3.9m3.3 7.6 3-1.3-1.9-4.4-3 1.3 1.9 4.4m8.5-13c1.8.7 3.6 1.9 5.4 3.3v.3l-2.3 3.1h-.3c-1.5-1.4-3.5-2.7-5.2-3.5v-.3l2-2.7.4-.2m-2.1-13.1-4 .7-.4.2-.2.2-.4.9c.4 2.3.4 4.8.2 7.2l-.4-1-.6-.6-.3-.1h-.8l-2.2 1c-.1-1-.1-2-.3-3.1l-.3-.6-.2-.2-.9-.2-4 1-.6.5-.1.2-.1.8c.3 1.3.6 2.7.8 4.2l-1.8.7-.6.6-.1.3v.7l1.6 3.5 3.1 7.1 3.9 9.3 1.3.5 3.6-1.6.5-1.3-.5-1.1 1.2-.5.2.5 1.3.5 3.7-1.6.5-1.3-3.9-8.8-1.8-4.1 1.3.2h.4l-.3.5-.2.6v.3l.6.9c1.6.8 3.5 2.1 5 3.4l.6.2h.3l.9-.4 2.3-3.1.2-.4c.3.9.6 1.7.9 2.5.7 1.9.3 2.1-.7 2.5-1.1.5-1.6.7-2.5 1l-.3 1.7 3 2.8c.3.3.7.6 1.3.6.3 0 .5-.1.8-.2l1.5-.6c3.6-1.6 4.7-4.3 3.4-8.5-1.4-4.4-3.6-9.7-6.7-16.9l-.6-.6-.3-.1h-.7l-4.2 1.9-1.5.7c0-.7-.1-1.6-.2-2.5l-.2-.5-.2-.3-1.3-.2zm1.4 9.8 3.5-1.5c1.2 2.9 2.2 5.2 2.9 7.1-1.9-1.5-3.7-2.6-5.4-3.2l-.5-.1-.4.1-.5.3c.2-.9.3-1.7.4-2.7m-11.5 5.3 1.2-.5.9 2.1-1.2.5-.9-2.1zm3.1 7.2 1.2-.5 1.1 2.5-1.2.5-1.1-2.5z"/><path class="st1" d="m399.9 225.6-3.5-2.1-.2-.3v-.3l.1-.3c.8-1.3 1.4-2.4 2.1-3.5l-2.8-5.1-2.2 1.3-.4.1-.3-.1-.3-.3-1.6-3v-.4l.1-.2.3-.3 2.3-1.1.4-.2 3.3-1.9h.4l.3.1.3.3 2.1 4v-.1l.2-.3 3.5-1.8.3-.2-.3-.5-2.8 1.6-.3.1h-.3l-.4-.3-1.3-2.3v-.3l.1-.3.3-.3 2.9-1.5-.2-.4c-1.4.8-2.4 1.2-3.2 1.2-1.1 0-1.7-.9-2.1-1.7l-.7-1.5-.2-.4-.5-.9-1.2 3.3-.2.3-.3.2h-.4c-1.7-.8-3.2-1.3-5.6-1.6l-.4-.3-.1-.2v-.4l1.3-3.1.3-.3.3-.1h.2c2.1.2 3.8.6 5.7 1.3v-.1l.1-.2.2-.2-.1.1h-.5l-.2-.1-.2-.2-1.2-2.1v-.4l.1-.2.2-.3 2.2-1.1 2.9-1.5 2.4-1.4h.4l.2.1.2.2v-.4l.1-.2.2-.2 2.3-1.2 3-1.6 2.5-1.4h.4l.2.1.3.3 1.1 2.1.5 1 1.2 2.1v.4l.4-.1h.2c.1 0 .6 0 .7.6.3.9.4 1.5.1 2.4-.3.9-.9 1.5-2.9 2.6l.2.4 2.8-1.6.3-.1h.3l.4.3 1.3 2.3.1.3v.2l-.3.3-3 1.5.3.5.8-.4 3.2-1.8.3-.1h.2l.3.3 1.3 2.4v.4l-.1.3-.3.3-2.7 1.4c.7-.1 1.4-.2 2.2-.3l.4.2.1.2.1.3-.1 1.7c.6-.4 1.3-.8 1.9-1.2l.8.4.4 4.2c.1.6-.3.8-.6 1-2.4 1.4-4.5 2.6-6.4 3.6-2.5 1.4-4.6 2.4-6.3 3.1-1.9.9-3.5 1.3-5 1.3-.8 0-1.6-.1-2.4-.4-.5 1.2-1 2.6-1.4 3.9l-.4.3h-.3l-.4-.2zm2.5-9c.3.2.7.4 1.2.5l-.8-.4-.1-.8c.9-.7 1.7-1.5 2.5-2.2l-3 1.7-.4.1h-.1l.7 1.1zm8.3-5.1.4.2.2.3v.5c-.6 1-1.3 2-2.1 3 .5-.3 1.2-.6 1.8-.9 1.5-.8 3.4-1.9 5.4-3.1-1.3.2-2.6.4-3.8.7l-.6-.2-.1-.2-.1-.4.3-1.5-2.6 1.4 1.2.2zm-2.5-3.9 1.4-.8-.3-.5-1.4.8.3.5zm-2.6-4.6.3.2.2.4 1.4-.8-.2-.4v-.6h-.2c-.6 0-1-.2-1.3-.5 0 .3-.1.6-.2.9l-.3.6.3.2zm-5.7-.7c.1-.1.4-.2.6-.3.6-.3.8-.5.8-.7l-1.5.8s.1.1.1.2m-3-2.5-1.4.8 1.5-.8 1.9-1v-.1l-2 1.1zm6.1-2.8 1.2 2.1v.4l.4-.1-.2-.4-.2-.4-.9-1.5v-.4l.1-.2.2-.2-.1.1h-.5l-.3-.1-.1-.1.4.8zm5.6.6c.2-.1.5-.2.8-.4.6-.3.8-.4.7-.7l-1.7.9c.1 0 .2.1.2.2m-3-2.5-1.4.8 1.5-.8 2-1.1v-.1l-2.1 1.2z"/><path class="st0" d="m409.5 189.3.2.1 1.1 2.1.6 1 1.2 2.1-.1.2-1.8.9 2.9-.6h.1c.1 0 .2.1.2.2.3.9.4 1.4.2 2.2-.3.8-.8 1.3-3.3 2.7-1.8.9-2.8 1.4-3.5 1.4-.7 0-1.2-.5-1.7-1.4l-.7-1.5-.2-.4-.9-1.5.1-.2 2.2-1.1 2.4-1.3-.5-.9-2.5 1.4-2.2 1.3-.3-.1-1.2-2.1.1-.2 2.3-1.2 3-1.6 2.3-1.5zm-1 8.8c.2 0 .5-.2 1.1-.5 1-.5 1.2-.7.8-1.8l-2.6 1.4.3.5c.1.3.2.4.4.4m-7.8-4.1.2.1 1 2 .6 1.1 1.2 2.1-.1.2-1.8.9 2.9-.6h.1c.1 0 .2.1.2.2.3.9.4 1.4.1 2.2-.3.8-.8 1.3-3.4 2.7-1.6.9-2.6 1.3-3.3 1.3-.7 0-1.2-.5-1.7-1.4l-.7-1.5-.2-.4-.9-1.5.1-.2 2.1-1.1 2.3-1.3-.5-.9-2.5 1.3-2.2 1.3-.2-.1-1.2-2.1.1-.2 2.2-1.1 2.9-1.6 2.7-1.4m-.9 8.8c.2 0 .4-.1.9-.4 1.1-.6 1.3-.7.9-1.9l-2.5 1.4.3.5c.1.3.2.4.4.4m15.1-3.3h.3l1.3 2.3v.2l-3.3 1.7-.1.1.7 1.4 1.3-.7 3.2-1.8h.2l1.3 2.4-.1.3-3.2 1.6-2.6 1.4c1.9-.5 3.5-.8 5.6-1l.1.2-.2 2.7c.9-.6 1.9-1.1 2.7-1.7l.4 4.2c0 .3 0 .4-.3.5-2.1 1.3-4.3 2.5-6.4 3.6-2.3 1.3-4.5 2.4-6.2 3.1-1.5.7-3.1 1.2-4.8 1.2-.9 0-1.8-.2-2.7-.5-.5 1.4-1.1 2.9-1.6 4.4h-.3l-3.5-2.1v-.3c.8-1.4 1.5-2.5 2.2-3.7l-3.1-5.8-.5.3-2.1 1.3-.3-.1-1.6-3 .1-.2 2.3-1.1.4-.2 3.4-1.9.3.1 2.1 4 2.5 4.6c.6.5 1.4.7 2.2.7.5 0 .9-.1 1.3-.2l-2.6-1.2c1.8-1.4 3.2-2.9 4.2-4.3l-1.8 1-3.4 1.9-.3-.1-1.3-2.4.1-.2 3.5-1.8.8-.4-.7-1.4h-.1l-3.1 1.8h-.3l-1.3-2.3.1-.3 3.3-1.7h.1l-.5-.8.1-.3 2.9-1.6.3.1.5.9 2.3-1.2-.5-.8.1-.3 3-1.6.3.1.5.9.1-.1 2.7-1.9m-6.9 8.7 2.3-1.2-.7-1.4-2.3 1.2.7 1.4m4.7.8-4.9 2.6 2.8.4.2.3c-1 1.7-2.2 3.3-3.7 4.7.6-.3 1.2-.5 1.9-.8l2.2-1.1c2.2-1.2 4.7-2.7 7.2-4.2-2.1.1-4 .4-6 .9l-.1-.2.4-2.6m-23.9-8.5c1.9.2 3.6.5 5.6 1.3l.1.3-1.3 3.4-.3.2c-1.9-.8-3.4-1.3-5.7-1.7l-.1-.2 1.3-3.1.4-.2m21-12.2-.8.1-2.5 1.4-3 1.6-2.2 1.1-.4.4-.1.1-.7.1-2.4 1.4-2.9 1.5-2.2 1.1-.5.5-.1.2v.9l.8 1.5c-1.3-.4-2.6-.6-4.1-.7h-.4l-.3.1-.6.6-1.3 3.1v.7l.1.2.8.6c2.3.4 3.7.9 5.4 1.6h.9l.3-.2.5-.5.9-2.3.2.4.7 1.4c.4.7 1.1 2 2.6 2h.2l-.3.4v.2l-.6-.5-.3-.1-.8.1-3.4 1.9-.4.2-2.2 1.1-.5.6-.1.2.1.8 1.6 3 .7.5.3.1.7-.1 1.7-1 2.4 4.4c-.6 1-1.2 2-1.9 3.2l-.1.7v.3l.5.7 3.5 2.1.6.1h.3l.9-.7c.4-1.2.8-2.4 1.3-3.5.7.2 1.4.3 2.1.3 1.6 0 3.2-.4 5.2-1.3 1.6-.7 3.7-1.8 6.3-3.2 1.8-1 4-2.2 6.4-3.6.3-.2.9-.5.8-1.5l-.4-4.2-1.5-.7c-.3.2-.7.4-1 .6l.1-.7-.2-.7-.1-.2-.7-.3.5-.3.5-.6.1-.3-.1-.8-1.3-2.4-.7-.5h-.2l-.7.1-.3.1-.1-.6-1.3-2.3-.7-.5h-.3l-.4.1c.2-.2.3-.5.4-.8.3-1 .2-1.7-.1-2.7-.2-.7-.7-1-1.2-1h-.2l-1.2-2.1-.5-1-1-2.1-.6-.5-.5.1zm-3.8 14.5c0-.1.1-.2.1-.3 0-.1 0-.1.1-.2.2.1.4.2.7.2v.2l-.6.3-.3-.2zm4.9 8.3.4-.2-.1.5-.3-.3zm-10.8.2zm10.8 2.8c.3-.4.6-.9.8-1.4v-.4l1 .4 1.2-.3c-1.1.6-2.1 1.2-3 1.7"/><path class="st1" d="M430.5 209.4c-.2 0-.4-.1-.6-.2l-3.5-2.1v-.8c1.1-.8 1.5-1.1 1.9-1.5l.2-.2s0-.1-.2-.3l-2.8-3.9c-.3.5-.7.9-1 1.4l-.3.2h-.3l-.4-.1-3-2.2-.2-.3v-.3l.1-.4c.7-.7 1.4-1.6 2.1-2.5l-2.2-3-2.3 1.7-.3.1h-.3l-.4-.2-1.9-2.7-.1-.4v-.3l.2-.3 2.4-1.6-3-4.1-.1-.3v-.3l.2-.4 2.8-2 .3-.1h.3l.4.2 3 4.1 1.5-1.1.3-.1-1.2-1.6-1.5-1.9-.1-.4v-.3l.2-.4 3.8-2.6 6.1-4.4 3.9-2.9.4-.1h.3l.3.2 1.3 2 1.4 2 1.5 1.9.1.4v.3l-.2.3-3.9 2.7-1 .7.2.2 1.1-.8 3-2.3.3-.1h.2l.4.2 1.6 2.2.1.4-.1.2-.1.1 1.2-.9.3-.1h.3l.4.2 1.6 2.3.1.5-.1.2-.2.3-2.8 1.9c.1.3.2.5.2.8l2.8-2.1.3-.1h.3l.4.2 1.6 2.3.1.5-.1.2-.2.3-3.5 2.4-1.9 1.4.1.2 1.1-.8 3.4-2.6.3-.1h.2l.4.2 1.6 2.3.1.4-.1.2-.2.3-3.5 2.4-1 .7 1.7 2.2-.1.7-3.6 2.6-.7-.1-1.5-2.3-1.3.9-3.1 2.4-.3.1h-.3l-.4-.2-1.6-2.2-.1-.4v-.3l.2-.3 3.3-2.2 1.3-.9-.1-.2-1.8 1.3-3.5 2.6-.3.1h-.3l-.4-.2-1.6-2.2-.1-.4v-.3l.2-.3 2.8-1.9c-.2-.2-.4-.3-.7-.5l-2.6 2-.3.1h-.3l-.3-.2c-.2.3-.4.7-.7 1l.4.5 3.9 5.2c1.2 1.6 1.6 2.8 1.3 4-.3 1.1-1.1 2.1-2.9 3.4.2.3 0 .5-.3.5m-4.9-17.3c.4-.5.7-1 1-1.5h.8l.6.8.5-.4h-.4l-.4-.2-1.6-2.2-.1-.4v-.3l.2-.3 3.1-2.1 1.3-.9-.2-.2-1 .7-3.7 2.7h-.2l.2.3.1.4-.1.2-.2.3-1.6 1.1 1.7 2zm11.1-2c.2.2.4.3.7.5l1.3-.9c-.1-.3-.2-.5-.3-.8l-1.7 1.2zm-4.9-1.4-1.7 1.3 1-.7 2.1-1.5v-.1l-1.4 1zm5.5-3.9 2-1.4 1-.7-1.9 1.3-1.1.8zm-10.2-2.2.1-.1-.7-1-.1.1.7 1zm3.4-2.5.1-.1-.7-1-.1.1.7 1zm3.5-2.5.2-.1-.7-1-.2.1.7 1z"/><path class="st0" d="M435 171.4h.3l1.3 2 1.4 2 1.5 1.9v.3l-3.9 2.7-1.4 1 .8 1 1.5-1.1 3-2.3h.2l1.6 2.2-.1.2-3.1 2.1-1.5 1.1.6.9 2.4-1.7 3.5-2.6h.3l1.6 2.3-.1.2-3.1 2.1c.2.6.4 1.2.5 1.8l3.4-2.5h.3l1.6 2.3-.1.2-3.5 2.4-2.4 1.7.7 1 1.5-1.1 3.4-2.6h.2l1.6 2.3-.1.2-3.5 2.4-1.5 1.1 2 2.6-3.6 2.6-1.8-2.7-1.7 1.2-3.1 2.4h-.3l-1.6-2.2v-.3l3.3-2.2 1.7-1.2-.7-1-2.2 1.6-3.5 2.6h-.3l-1.6-2.2v-.3l3.3-2.3c-.5-.4-1-.8-1.5-1.1l-2.9 2.2h-.3l-.4-.5c0 .1-.1.2-.2.3-.3.5-.7 1-1.1 1.6l.6.8 3.9 5.2c2.1 2.9 1.7 4.4-1.5 6.7-.2.1-.3.2-.4.2-.1 0-.2 0-.3-.1l-3.5-2.1c1.1-.8 1.5-1.2 1.9-1.5.5-.4.5-.7.1-1.3l-3.2-4.5c-.5.6-1 1.3-1.4 1.9h-.3l-3-2.2v-.3c.8-.9 1.7-1.9 2.4-2.8l-2.7-3.7-.1.1-2.6 1.9h-.3l-1.9-2.7v-.3l2.7-1.8.1-.1-3.3-4.5v-.3l2.8-2h.3l3.3 4.5 1.9-1.4h.2l1.9 2.7-.1.2-2 1.4 2 2.8c.5-.7 1-1.4 1.5-2l.9 1.2 3.4-2.3 2.5-1.8-.6-.9-1.7 1.2-3 2.3h-.3l-1.6-2.2v-.3l3.1-2.1 1.7-1.2-.8-1-1.4 1-3.7 2.8-.3-.1-1.3-2-1.4-2-1.5-1.9v-.3l3.8-2.6 6.1-4.4 4.7-2.8zm-1.1 6.9 1-.7-1.3-1.8-1 .7 1.3 1.8m-3.5 2.5 1-.7-1.3-1.8-.9.7 1.2 1.8m-3.4 2.5 1-.7-1.3-1.8-.9.7 1.2 1.8m10.3 8 1.9-1.4-.6-1.8-2.8 2 1.5 1.2m-2.2-20.9-.8.2-3.9 2.9-6 4.4-3.8 2.6-.4.7v.3l.2.7 1.5 1.9.8 1.1-.9.7-2.7-3.7-.8-.4h-.3l-.6.2-2.8 2-.4.7v.3l.2.7 2.7 3.7-2 1.3-.4.7v.3l.2.7 1.9 2.7.7.4h.3l.7-.2 1.9-1.4 1.6 2.3c-.6.7-1.3 1.5-1.9 2.1l-.2.8v.3l.4.7 3 2.2.7.2h.3l.7-.4c.2-.3.4-.5.6-.8l2.4 3.3c-.4.3-.8.7-1.8 1.4l.1 1.7 3.5 2.1c.2.1.5.3.8.3.4 0 .7-.2.9-.4 1.9-1.4 2.8-2.5 3.1-3.7.4-1.6-.5-3.1-1.4-4.4l-4-5.2-.2-.2c.1-.1.2-.3.3-.4h.3l.3-.1-.1.1v.3l.2.7 1.6 2.2.7.4h.3l.6-.2.1.3 1.6 2.2.7.4h.3l.7-.2 3.1-2.4.8-.6 1.2 1.9 1.4.3 3.6-2.6.2-1.4-1.4-1.8.6-.4 3.5-2.4.4-.6.1-.2-.2-.8-1.6-2.3-.2-.1.3-.4.1-.2-.1-.9-1.6-2.3-.8-.4h-.2l.1-.1.1-.2-.1-.9-1.6-2.3-.8-.4h-.3l-.6.2-.4.3v-.1l-1.6-2.2-.3-.2.3-.5v-.3l-.2-.8-1.5-1.9-1.4-1.9-1.3-2-.7-.4-.4-.2zm-10.1 20 1.1-.8.1-.1.6.8h-.6l-.6.9-.6-.8z"/></svg>