<svg xmlns="http://www.w3.org/2000/svg" xmlns:xlink="http://www.w3.org/1999/xlink" width="1496.1" height="464.3" style="overflow:visible;enable-background:new 0 0 1496.1 464.3" xml:space="preserve"><style>.st0{clip-path:url(#SVGID_2_);fill:#231f20}</style><defs><path id="SVGID_1_" d="M0 0h1496.1v464.3H0z"/></defs><clipPath id="SVGID_2_"><use xlink:href="#SVGID_1_" style="overflow:visible"/></clipPath><path class="st0" d="M1018.5 109c3.6-1.1 7.3-2.4 10.9-3.9 19.8-6.5 53.3-26.5 51.7-17.2-4.4 24.9-62.5 68.8-62.5 68.8h60.5s36.2-44 45.2-76.9c5.4-3.1 10.3-6.3 14.8-9.6-5.7 20.7-19.5 41.4-28.8 51.6h25.1c8.4-12.7 16-42.4 17.3-59.1h-4.6c5.7-5.1 10.6-10.4 14.7-15.4 2.2-.3 4.7-.6 7.2-.9-7.1 33.3-41 105.1-53.9 105.1-13.8 0 15.8-24.8 15.8-24.8l-25 .5s-33.9 32.2 18 32.2c45.8 0 79.9-96.7 85.5-113.5 2.6.5 4.7 1.3 6.1 2.3 6.4 4.4-8.1 17.4-8.1 17.4h43s32.1-20.6 9.3-34.8c-17.6-11-67.6-.4-89.8 5 8.7-13.7 11.5-24.1 11.5-24.1h-31.9s-4.8 25.6-25.2 62.6c.7-3.7.9-7.2.7-10.4-.7-9.1-20.3-4.4-43.4 6.6 23.2-19.6 39.7-38.8 39.7-38.8H1065s-4.2 42.6-46.5 77.3"/><path class="st0" d="M1161.2 156.7h62.4c14.8-39.4 9.5-69.1 9.5-69.1h-32.6c-.1 0-12.6 34.2-39.3 69.1M883.4 50c43.9-13 82.4-12.9 95.5-9.6 17 4.3 5.1 16.7-5.3 24.9l4.1-9.5h-81.5l-10.9 25.3h19.9l-14.4 42.1c-8-1-15.4-3.2-21.7-7.1 3.5-8.7 8.5-18.6 15.5-29.5h-8.9c-44 29.4-64.3 70.4-64.3 70.4h49.3s-1.5-12.1 5.2-32.5c9.6 45 120.9 39 120.9 39s16-33.5 22.8-47.7c-16.1-10.6-60.1 5.5-98.1 7.8l7.3-13.5h48.1l9.3-21.6h-45.8l4-7.5h32.2l3.6-8.3h48.1l8.2-15s24-47-45-40.8c-14.6 1.3-28.5 3.9-41.5 7.3 16.1-10.7 35.7-17.5 35.7-17.5h-62.2s-9 15.1-2.4 27.3c-10.4 4.4-19.6 9.3-27.6 14.5 3.2-14.6 8.9-24.5 8.9-24.5h-29.8l-25 48.7h44c-.4-8.2.4-15.9 1.8-22.7m439.9 304.7c-46.3 0-75.1 9-90.2 21.3 1.3-4.3 2.7-8.7 4.3-13.1h-27.9c-32.5 46.8-41.4 90.7-41.4 90.7h188.4s21.4-25.3 23.7-52.5c3.1-35.9-23.4-46.4-56.9-46.4m-21.6 73.7h-76.8c.1-3.9.4-8.2.8-12.8h84.3c-2.4 4.3-5.2 8.7-8.3 12.8m-72.9-34.6c.7-3.6 1.5-7.3 2.5-11 32.3-12 70.1-10.4 81.3 6.1 1 1.5 1.7 3.1 2.1 4.9h-85.9zM674.6 92.3l-7.5 16 24.2-1.8c-15.2 20.7-34.2 40-51.8 53.4 34.8-17.2 58.9-31.9 76.8-47.3-3.7 20 .3 33 10.5 41.2 21.9 17.5 55.6 7.5 66.8 3.9 2.5-5.8 15.4-37.9 21.3-53.6-29 0-47 23.5-72.3 17-6.6-1.7-12.8-8.6-16.4-17.1h68.2s8-21.2 12.5-32.6c-9.5 2-23.5 5.2-46 6.5 9-2.2 22.1-6.6 31.9-15.6 11.9-11.1 21.7-32.5 1.3-36.8-6.7-1.4-14.1-1.9-21.9-1.8 4.2-11.4 6.4-19.2 6.4-19.2h-50.7s.2 9.9-2.5 24.9c-13.3 2.8-22.6 5.5-22.6 5.5l-7 13.9c-23-12.1-22.8-36.9-22.8-36.9h-38.5s-5.7 37 61 37.6L689 62s14.4-4.2 23.9-4.9c1.2-.1 3.1-.3 5.3-.5-1.1 3.1-2.3 6.3-3.6 9.6-1.4 3.5-3.1 7-4.9 10.5-16.9-2.2-25.2-5.6-25.2-5.6l-7.9 16.7C660 75 660.1 54.9 660.1 54.9h-38.5s-5.2 33.9 53 37.4m72.3-15.8c4.2-6.5 7.9-13.4 11.3-20.3 5.2 1 8.6 2.9 8.3 6.1-.7 7.1-7.8 13.2-11.4 15.8-3 .1-6.1.2-9.4.3.4-.7.8-1.3 1.2-1.9"/><path class="st0" d="M677 112.4c-48.7 25.4-28.2-12.9-62.4-.5-8.9 17.4-20 39.5-20 39.5s52-.2 82.4-39m-179.1 193c-.7-9.1-13.1-9.5-31.3-4.2 23.5-23.3 35.8-43.5 40.6-49.1h-55.7c37.5-23.3 67.7-51 73.3-56.3h-80.3c-4.2 23.8-44.5 68.2-72.4 88.8 15.3-2 31.3-7.5 46.9-14.8-14.8 32.3-51.5 77.3-78.5 104.8 29.7-8.9 54.6-20.7 75.4-33.5 7.7-2.5 12.4-2.4 11.5 2.2-7 39.5-97.9 109.2-97.9 109.2H424c-.1 0 77.9-95.8 73.9-147.1"/><path class="st0" d="M709.7 333.9c5.3-14.8 28.7-76.3 28.7-76.3s-82.2 19.6-211 7.3c-8.2 20.8-36.3 85.6-36.3 85.6s24.6-16.7 87.1-21.9c9.3 28.9 21.5 82.9-8.3 103.7-34.4 24-35.8-48.3-60.3-48.3-7 12.5-29.4 47.5-29.4 47.5s22.6 27.7 70.9 26.5c117.2-2.9 124.3-86.8 116.1-128.8 13.4 1.1 27.5 2.7 42.5 4.7M579.9 200.3c-7.1 18.7-23.6 57.8-23.6 57.8h137.2c7.5-18.1 22.1-57.8 22.1-57.8s-50.5 25.1-135.7 0m471.3 191 21.3-40s-19.8 1.6-52 3.6c1.8-5.4 1.7-10.4-.1-14.7-5.8-13.8-24.9-18.9-58.2-22.7-12.8-1.5-25-2.4-36.8-3 .5-2.1 1.1-4.1 1.6-6.1 48.9 2.4 95.1 8.9 95.1 8.9s68.8-61.1-29-74.1c-8.8-1.2-25.2-3.2-45.6-2.9.5-1.6 1-3.2 1.6-4.7 72.7-.2 115.8 15.9 115.8 15.9l20.4-54.4s-54.9 3.1-117.8 10.6c-3.1.4-6.1.7-9.1 1 4.6-12.7 7.4-20 7.4-20h-45.4s-5.1 8.2-13 22.5c-63.5-.3-99.3-14.1-99.3-14.1l-20.2 52.1s53.8-4.7 104.8-10.2c-1.6 3.1-3.2 6.4-4.8 9.7-17.3 4.8-35.2 12.2-52.3 23.3 2-6.2 4.5-13 7.7-20.2-5.8-.4-19.3-.4-24.7-.4-24.8 36.5-34.7 62-34.7 62s34.3-3.9 77.4-5.3l-2.7 6.9c-26.1 1.3-51 3.6-76.7 5-4.8 9.7-9.9 23.4-13.6 32.8 11.7 3.6 42.4 2.6 76.2 1.2-.8 2.3-1.5 4.7-2.3 7-80.2-1.3-116-9.7-116-9.7l-18.5 46s63.1-7 126.4-8.7c-.6 2.3-1.2 4.6-1.8 7-60.8 1-80.4.1-80.4.1l-14.8 37.2s42.9-4.9 88.5-7.5c-1.2 6.2-2.3 12.5-3.2 18.7-8 .6-13.3-3.3-14.3-8.5 0 0-24.8 2.4-39 4 4.8 6.4 19.3 16.1 46.6 16.1h83.6c.9-10.2 2.1-20.5 3.5-30.8 54.2 2.8 92.8 11.2 92.8 11.2l22.3-41.9s-33.3-.4-73.2-.3c11.9-.6 23.5-2.1 34-5.1 43.9 1 72.5 2.5 72.5 2.5M940.4 262.5c13.3.8 23.4 3.4 27.7 8.3 5.6 6.5 3.9 12.9-1.1 18.6h-34.6c2.7-9.4 5.4-18.4 8-26.9M869 289.4h-38.4c.8-3.6 1.8-7.5 3.1-11.8 13-4.1 29-7.8 45.3-10.6-3.3 7.1-6.6 14.6-10 22.4M924.3 394c-5.6 0-11.1.1-16.7.1.4-2.1.8-4.1 1.1-6.2 12.3 0 24.1.1 35.3.3-5.3 2.1-11.8 4-19.7 5.8m8.6-34.4c-6.4.3-12.6.5-18.6.7.6-2.7 1.2-5.3 1.8-8 19.8.3 36 1.9 43.9 6-8.7.5-17.7.9-27.1 1.3m549.7-330h-50.8c5.4-6.5 11.4-13.2 18.1-20.1H1399s-12.6 17.9-22.8 50.2c-3.4-17.7-16.1-22.6-26.1-22.3-4.2.1-9 1.7-13.9 4.3 7.4-6.9 16.8-14.5 28.4-21.6h-36c-14.8 11.5-15.8 29.4-15 39.4-5.8 6.2-10.7 13-13.8 19.6 2.4-8.7 5.2-17.7 8.4-26.8h-15.9c-30.9 50.2-40.6 103.5-40.6 103.5h98.2s13.2-26.3 21.3-53.1h14.7s5.5-15.2 20-37.9c8-11.7 29.2-39.4 37-15.8 5.3 24-6.5 89.4-34.2 95.5-20 4.4-16.4-27.3-34.1-28.4-.5 1.6-13 32.6-13.4 33.6 8.4 12.3 55 25.2 91.8 3.2 66.2-39.5 38.7-114.9 29.6-123.3m-170 97.5h-23.9c.9-5.1 2-10.7 3.3-16.8h30.7c-3.1 5.7-6.6 11.4-10.1 16.8m19.3-36.6h-35.3c.8-3 1.6-6.1 2.5-9.3 13.9-14.9 33.6-15.5 34.7-1.4.2 2.9-.5 6.6-1.9 10.7"/><path class="st0" d="M1437 64.6h-17.7c-7.4 23.6-23.8 50.7-27.9 57.7h28.3c1.1-2 14-23.8 17.3-57.7m-17.5 172.5 21.8-60S1319 219 1201.5 192.9c-27.8 93.5-63.4 180.5-113.6 184.5l-35.8 70.2c14.6 4.6 65.4 18 98.1-18.2 23.5-26 38.1-54.7 47.8-83.4 8.5 3 17 .2 24.2-5.6l-4 13.2h33.1l1.6-12.5c3.1 5.4 8.3 8.7 14.3 9.6 14.1 2 24.2-1.7 31-8 13 10.9 27 6.4 37.7-4.1l-3.6 13.5h33.1l1.3-12c3.4 6.9 9.8 11.2 17.3 12.2 49.5 6.4 57-29.3 52.4-47.8l-25.8 3.5c-3.1 8.5-12.2 20.3-23.7 18.8-16.4-2.2-7.9-16-6.3-18.4 7.1.4 14.7 1 22.7 1.8 4.5-11.8 12.7-34.3 12.7-34.3s-20 4.1-43 6.2l.5-4.8c21.2-4.2 50.6-18.3 58.2-36.7h-46.1s-5.6 14.4-27.4 18.3c-9.9 1.7-32.8-2-32.8-2l-5.5 16s14.1 4.9 31.9 5.8l-1.2 4.6c-12.6.1-24.5-1-32.9-4.2-3.3 9.6-8 22.6-10.1 28.2l-16.5 2.1c-2.9 8-11 18.9-21.1 17.5-14.5-2-6.7-15.5-5.3-17.8 6.3.4 13 .9 20 1.7 4.2-11 11.7-32 11.7-32s-16.5 3.5-36.1 5.6l.5-3.9c22.4-3.3 41.4-17 48.7-34.5h-40.4s-4 15.2-22.6 17c-10.6 1.1-25.1-3.1-29.7-4.5 1.1-7.4 2.1-14.6 3.1-21.5h199.6zm-110.4 72.6c3.3-.4 9.4-1.1 18-1.6-1.8 9.1-7.9 23.2-23.3 27.4 4.9-8.1 6.4-18 5.3-25.8m-106.8 22c2.1-7.4 4-14.8 5.6-22.2 2.6-.2 5.8-.5 9.4-.7-1.4 7-5.4 17.2-15 22.9m38-50.8-1.5 4.9c-9.5.2-18.6-.4-25.9-2.3.5-3 1-5.9 1.4-8.8 3.8 1.5 13.4 5 26 6.2M139.4 4.3h-24.9l-43 29.9v16.9h30.4c-23.6 69.1-57.5 100.8-57.5 100.8H124c0-.1 15.4-50.4 15.4-147.6m99.6 0h-24.9l-43 29.9v16.9h30.4C177.9 120.2 144 151.9 144 151.9h79.6c-.1-.1 15.4-50.4 15.4-147.6m76.9 116.8c-18.5-2.9-24.7-14.1-26.8-23.5l-38.8 26.6c14 15.3 30.2 27.1 60.7 31.5 57.4 8.4 100.8-15.7 100.8-48.2 0-32.2-25.5-46.9-62.1-49.7L411.4 25 385.5 0S371.4 5.6 361 7.2c-8 1.2-43.8 5.4-92.8-3.7-3.3 10.8-11.6 42.9-11.6 42.9s36.7-5.3 77.6-8l-23.9 22.4c-11.3 2.9-20.7 7.2-25.7 11.3l12.7 12.3c5.6-2.6 14.1-6.2 25.9-6.2 25.3 0 34.4 10.6 34.4 24.6.1 16.5-19.9 21.7-41.7 18.3M556 142.9c44.5-22.3 61.3-69.3 37.6-104.9-23.7-35.6-79-46.5-123.4-24.2-44.5 22.3-61.3 69.3-37.6 104.9s78.9 46.6 123.4 24.2m-89.1-42.5c9.5-32.5 37.8-68.9 63.2-81.3 25.5-12.3 38.4 4.1 29 36.6-9.5 32.5-37.8 68.9-63.2 81.3-25.5 12.3-38.5-4.1-29-36.6M197 185.3c-91.3 0-178.3 62.5-194.4 139.5-16.1 77 44.8 139.5 136.1 139.5S317 401.8 333.1 324.8c16.1-77-44.9-139.5-136.1-139.5M66.9 324.8c8.9-42.8 54-78.4 104-84.3L83.8 385c-15-15.4-21.8-36.7-16.9-60.2M150 410c-7.5 0-14.6-.7-21.4-2l44.5-74 25.3 66.4c-15.1 6.2-31.6 9.6-48.4 9.6m118.8-85.2c-3.7 17.5-13.3 33.8-26.9 47.3L206.4 279l19.2-31.9c32.2 13.4 50.4 43.2 43.2 77.7"/></svg>